<?xml version="1.0" encoding="utf-8"?>
<!-- Generator: Adobe Illustrator 18.1.1, SVG Export Plug-In . SVG Version: 6.00 Build 0)  -->
<svg version="1.1" id="Capa_1" xmlns="http://www.w3.org/2000/svg" xmlns:xlink="http://www.w3.org/1999/xlink" x="0px" y="0px"
	 width="1000px" height="1000px" viewBox="0 0 1000 1000" enable-background="new 0 0 1000 1000" xml:space="preserve">
<g>
	<path d="M94.4,471.3c28.9-1,52-6.9,70.5-15c20.1,12.8,43.9,20.2,69.5,20.2c25.6,0,49.4-7.4,69.5-20.2c18.4,8.2,41.5,14,70.5,15
		c7.1,0.3,11.9-7.3,8.6-13.6c-7-13.5-15.7-37-15.7-70.6c0-56.2-1.9-189.8-132.9-189.8S101.5,330.9,101.5,387.1
		c0,33.5-8.7,57-15.7,70.6C82.5,464,87.3,471.6,94.4,471.3z"/>
	<path d="M54.3,748.3h287.4l1.1-6.4c5.5-31.8,22.1-60.7,46.7-81.5c9.3-7.8,19.5-14.3,30.4-19.4c-4.2-3.2-8.1-6.7-11.9-10.5
		c-23.5-23.5-36.4-54.7-36.4-87.9c0-0.3,0-0.7,0-1c-29.9-22.6-67.1-35.8-107-35.8h-60.5c-86.4,0-160.3,62.2-175,147.4l-9.4,54.2
		C16.1,728.8,32.6,748.3,54.3,748.3z"/>
	<path d="M968.7,653.2c-14.7-85.2-88.6-147.4-175-147.4h-60.5c-42.6,0-82.1,15.1-113,40.6c-1.1,38.3-19.9,72.5-48.4,94.6
		c10.9,5.1,21.2,11.6,30.6,19.5c24.7,20.8,41.2,49.7,46.7,81.5l1.1,6.4h293.4c21.7,0,38.2-19.6,34.5-40.9L968.7,653.2z"/>
	<path d="M619.8,748.3l-0.2-1.3c-6.3-36.8-31-66.4-63.6-80.3c-12.9-5.5-27-8.5-41.7-8.5h-36.4c-12.6,0-24.8,2.2-36.1,6.3
		c-35.4,12.7-62.6,43.6-69.3,82.5l-0.2,1.3l-4.6,26.7c-2.6,15.3,9.1,29.2,24.6,29.2h207.6c15.5,0,27.3-14,24.6-29.2L619.8,748.3z"/>
	<path d="M422.4,601.6c17.3,21.5,43.8,35.3,73.6,35.3c0.4,0,0.9,0,1.3,0c51.5-0.7,93.3-43.4,93-94.9c-0.2-34.7-19.2-65-47.3-81.2
		c-14.9-8.6-27.4-20.8-35.8-35.7c-3.2-5.6-6.1-12-8.4-18.9c-0.5-1.4-1.7-2.1-2.9-2.1s-2.4,0.7-2.9,2.1c-2.3,6.9-5.2,13.2-8.4,18.9
		c-8.5,15.1-21.2,27.3-36.2,36c-28.1,16.3-46.9,46.7-46.9,81.6c0,13.6,2.9,26.5,8,38.2C413,588.3,417.3,595.3,422.4,601.6z"/>
	<path d="M760.2,474.1c72.7,0,131.6-58.9,131.6-131.6V212.8c0-21-20-36.3-40.3-30.7l-160.3,44.2c-37,10.2-62.6,43.8-62.6,82.2v34
		C628.6,415.2,687.5,474.1,760.2,474.1z"/>
</g>
</svg>
