<?xml version="1.0" encoding="utf-8"?>
<!-- Generator: Adobe Illustrator 18.1.1, SVG Export Plug-In . SVG Version: 6.00 Build 0)  -->
<svg version="1.1" id="Capa_1" xmlns="http://www.w3.org/2000/svg" xmlns:xlink="http://www.w3.org/1999/xlink" x="0px" y="0px"
	 width="1000px" height="1000px" viewBox="0 0 1000 1000" enable-background="new 0 0 1000 1000" xml:space="preserve">
<g>
	<path d="M494.2,514.8c-1,0-2.1,0-3.1,0c-29.5,0-58.1-5.8-85-17.2c-26-11-49.4-26.7-69.4-46.8c-5-5-9.8-10.2-14.2-15.7
		c-32.2,47.1-54.4,107.6-61.8,175l424.4,230.5c24.8-51.7,39.2-113.8,39.2-180.7c0-87.3-24.6-166.6-64.7-225
		C620.1,482.9,560.7,513.9,494.2,514.8z"/>
	<path d="M491.1,985.6c71,0,134.5-44.3,177.3-114.1L258.1,648.7c-0.1,3.8-0.2,7.6-0.2,11.4C258,839.8,362.4,985.6,491.1,985.6z"/>
	<path d="M585,133.2c-29.7-17.1-54.7-41.5-71.5-71.4c-6.3-11.3-12.2-23.9-16.7-37.7c-0.9-2.8-3.3-4.1-5.7-4.1
		c-2.4,0-4.8,1.4-5.7,4.1c-4.5,13.8-10.4,26.4-16.7,37.7c-16.9,30.1-42.4,54.4-72.3,71.8c-56,32.6-93.7,93.3-93.7,162.9
		c0,42.9,14.4,82.5,38.5,114.1c34.4,45.1,88.7,74.2,149.8,74.2c0.9,0,1.8,0,2.7,0c59.8-0.8,113-29.9,147-74.4
		c24.5-32,39-72,38.7-115.2C679,226,641.1,165.5,585,133.2z"/>
</g>
</svg>
