<?xml version="1.0" encoding="utf-8"?>
<!-- Generator: Adobe Illustrator 18.1.1, SVG Export Plug-In . SVG Version: 6.00 Build 0)  -->
<svg version="1.1" id="Capa_1" xmlns="http://www.w3.org/2000/svg" xmlns:xlink="http://www.w3.org/1999/xlink" x="0px" y="0px"
	 width="1000px" height="1000px" viewBox="0 0 1000 1000" enable-background="new 0 0 1000 1000" xml:space="preserve">
<g>
	<path d="M260.2,924.4c17.6,17.6,46.1,17.6,63.6,0L479,769.3l-76.9-76.9c-11.7-11.7-11.7-30.7,0-42.4l3.5-3.5
		c11.7-11.7,30.7-11.7,42.4,0l76.9,76.9l52.2-52.2l-76.9-76.9c-11.7-11.7-11.7-30.7,0-42.4l3.5-3.5c11.7-11.7,30.7-11.7,42.4,0
		l76.9,76.9l86.6-86.6l-92.9-92.9l-67.5-67.5l-92.9-92.9L70.5,671c-17.6,17.6-17.6,46.1,0,63.6L260.2,924.4z"/>
	<path d="M855.8,275.9c-0.6-8-0.8-16.4-0.4-25.1c1.7-37.2,21.6-70.9,52.2-92.2c3.9-2.7,7.8-5.9,11.3-9.5c25.7-25.7,30.1-62.8,9.9-83
		c-20.2-20.2-57.4-15.8-83,9.9c-3.6,3.6-6.7,7.4-9.5,11.3c-21.3,30.6-54.9,50.5-92.2,52.2c-8.7,0.4-17.1,0.2-25.1-0.4
		c-42.6-3.3-84.7,7.2-119.9,29.8L826,395.8C848.6,360.6,859.2,318.4,855.8,275.9z"/>
	<path d="M477.5,264l75.4,75.4L655.5,442l75.4,75.4l0.7,0.7c8.4,8.4,19.4,12.6,30.5,12.6c11,0,22.1-4.2,30.5-12.6l26.2-26.2
		c16.8-16.8,16.8-44.1,0-60.9l-11.1-11.1L575,187.2l-11.1-11.1c-8.4-8.4-19.4-12.6-30.5-12.6s-22.1,4.2-30.5,12.6l-26.2,26.2
		c-16.8,16.8-16.8,44.1,0,60.9L477.5,264z"/>
</g>
</svg>
