<?xml version="1.0" encoding="utf-8"?>
<!-- Generator: Adobe Illustrator 18.1.1, SVG Export Plug-In . SVG Version: 6.00 Build 0)  -->
<svg version="1.1" id="Capa_1" xmlns="http://www.w3.org/2000/svg" xmlns:xlink="http://www.w3.org/1999/xlink" x="0px" y="0px"
	 width="1000px" height="1000px" viewBox="0 0 1000 1000" enable-background="new 0 0 1000 1000" xml:space="preserve">
<g>
	<path d="M902,287c-15.3,0-29.7-3.6-42.5-10v49.5H141.2V277c-12.8,6.4-27.2,10-42.5,10c-15.3,0-29.7-3.6-42.5-10v634.7
		c0,16.6,13.4,30,30,30h25c16.6,0,30-13.4,30-30V843h718.3v68.7c0,16.6,13.4,30,30,30h25c16.6,0,30-13.4,30-30V277
		C931.7,283.4,917.3,287,902,287z M542.9,411.5h117.3v233.4H542.9V411.5z M457.9,644.9H340.6V411.5h117.3V644.9z M141.2,411.5h114.4
		v233.4H141.2V411.5z M745.1,644.9V411.5h114.4v233.4H745.1z"/>
	<g>
		<path d="M98.7,126c-36.2,0-65.5,29.3-65.5,65.5c0,22.1,11,41.7,27.8,53.5c10.7,7.5,23.7,12,37.7,12c14.1,0,27.1-4.4,37.7-12
			c16.8-11.9,27.8-31.4,27.8-53.5C164.2,155.3,134.9,126,98.7,126z"/>
		<path d="M902,126c-36.2,0-65.5,29.3-65.5,65.5c0,22.1,11,41.7,27.8,53.5c10.7,7.5,23.7,12,37.7,12s27.1-4.4,37.7-12
			c16.8-11.9,27.8-31.4,27.8-53.5C967.5,155.3,938.2,126,902,126z"/>
	</g>
</g>
</svg>
