<?xml version="1.0" encoding="utf-8"?>
<!-- Generator: Adobe Illustrator 18.1.1, SVG Export Plug-In . SVG Version: 6.00 Build 0)  -->
<svg version="1.1" id="Capa_1" xmlns="http://www.w3.org/2000/svg" xmlns:xlink="http://www.w3.org/1999/xlink" x="0px" y="0px"
	 width="1000px" height="1000px" viewBox="0 0 1000 1000" enable-background="new 0 0 1000 1000" xml:space="preserve">
<g>
	<path d="M455.4,290.9c-30.8-10.9-64.7-17-100.2-17c-108.6,0-201.7,56.4-241,136.7l341.1,0V290.9z"/>
	<path d="M208.7,743.4h553.4c84.2-74.3,137.2-181.9,137.2-301.7C899.3,229,732.4,54.5,520,37.3c-0.9-0.1-1.8-0.1-2.6-0.1
		c-17.5,0-32,14.2-32,32v234.3v137.2c0,0-286.5,0-382.8,0c0,0-0.1,0-0.1,0C85,440.8,71.3,455.6,72.7,473
		C81,580.2,131.8,675.7,208.7,743.4z"/>
	<circle cx="270.2" cy="878.4" r="96"/>
	<circle cx="686.5" cy="878.4" r="96"/>
</g>
</svg>
