<?xml version="1.0" encoding="utf-8"?>
<!-- Generator: Adobe Illustrator 18.1.1, SVG Export Plug-In . SVG Version: 6.00 Build 0)  -->
<svg version="1.1" id="Capa_1" xmlns="http://www.w3.org/2000/svg" xmlns:xlink="http://www.w3.org/1999/xlink" x="0px" y="0px"
	 width="1000px" height="1000px" viewBox="0 0 1000 1000" enable-background="new 0 0 1000 1000" xml:space="preserve">
<g>
	<path d="M729.8,527.6c10.6-9.2,22.7-16.9,36.2-22.9v-3.6c0-26.5,21.5-48,48-48h12v-12.7c0-19.3-15.7-35-35-35H623.7
		c-19.3,0-35,15.7-35,35v196.4c0,19.3,15.7,35,35,35h58.2c-1.8-9.6-2.8-19.6-2.8-30c0-22.8,4.3-44.1,12.7-63.2
		C700.3,559.4,713.1,542.1,729.8,527.6z"/>
	<path d="M342.5,19.5c-19.3,0-35,15.7-35,35v582.3c0,19.3,15.7,35,35,35h167.2c19.3,0,35-15.7,35-35V54.5c0-19.3-15.7-35-35-35
		H342.5z"/>
	<path d="M263.6,636.9V239.1c0-19.3-15.7-35-35-35H61.3c-19.3,0-35,15.7-35,35v397.8c0,19.3,15.7,35,35,35h167.2
		C247.9,671.9,263.6,656.2,263.6,636.9z"/>
	<path d="M946.2,724.4c-10.3-10.3-23.6-19.1-39.4-26.1c-14.7-6.5-30.7-9.7-46.1-12.8c-20.2-4.1-39.4-7.9-51.9-18.4
		c-1.8-1.5-3.5-3.2-5-5c-5-6.1-7.5-13.8-7.5-23.5c0-9.8,2.9-17.6,9.2-24.6c5-5.6,12.3-9.8,20.6-12.1c4.7-1.3,9.7-2,14.8-2
		c13,0,24.6,4.5,31.6,12.4c5.2,5.8,8.9,15.5,10.8,28.1c1.3,8.3,8.4,14.2,16.5,14.2c0.8,0,1.7-0.1,2.5-0.2l53.7-8
		c9.1-1.4,15.4-9.8,14.1-18.9l0,0c-4.6-32.7-18.6-59-41.6-78.1c-11.8-9.8-26.6-17.4-43.2-22.2v-26c0-9.2-7.5-16.7-16.7-16.7H826h-12
		c-9.2,0-16.7,7.5-16.7,16.7v25.6c-18.3,5.1-34.3,13.4-46.9,24.5c-26.5,23.2-40,53.8-40,90.8c0,10.5,1.2,20.5,3.5,30
		c2.3,9.4,5.7,18.3,10.3,26.7c9.4,17.1,22.9,30.7,40.2,40.4c24.5,13.7,48.2,19.7,74.4,25.6c17.3,3.9,36.4,9.6,46.2,21.6
		c4.6,5.6,6.9,13.9,6.9,24.5c0,13.2-3.7,23.9-11.2,32.5c-7,8-17.3,13.4-28.9,15.2c-2.8,0.4-5.6,0.6-8.5,0.6c-16.6,0-31.9-7-41-18.7
		c-4.2-5.4-10-17-13.5-41.3c-1.2-8.3-8.4-14.3-16.5-14.3c-1,0-1.9,0.1-2.9,0.3l-52.5,9.1c-8.4,1.5-14.4,9.1-13.8,17.7
		c1.8,25.9,8.7,48.4,20.5,66.9c11.9,18.7,26.5,32.6,43.4,41.3c9.6,4.9,19.8,8.9,30.5,11.8v21.5c0,9.2,7.5,16.7,16.7,16.7h54.4
		c9.2,0,16.7-7.5,16.7-16.7v-21c23.3-6.5,43.6-18.3,59.3-34.8c22.9-24,34.5-54.2,34.5-89.7c0-16.2-2.8-31.6-8.3-45.7
		C964.9,747.6,956.7,735,946.2,724.4z"/>
</g>
</svg>
