<?xml version="1.0" encoding="utf-8"?>
<!-- Generator: Adobe Illustrator 18.1.1, SVG Export Plug-In . SVG Version: 6.00 Build 0)  -->
<svg version="1.1" id="Capa_1" xmlns="http://www.w3.org/2000/svg" xmlns:xlink="http://www.w3.org/1999/xlink" x="0px" y="0px"
	 width="1000px" height="1000px" viewBox="0 0 1000 1000" enable-background="new 0 0 1000 1000" xml:space="preserve">
<g>
	<path d="M940.2,519.4H526v66c40.7,2.7,80.3,12.1,117.9,28c43.7,18.5,83,45,116.7,78.7c28.1,28.1,51.1,60,68.7,95.1
		C893.5,715.2,934.4,622,940.2,519.4z"/>
	<path d="M792.2,164.8C720.5,101.3,627.9,61,526,55.2V355c75.3-5.8,145.3-37.9,199.2-91.9C754,234.4,776.5,201,792.2,164.8z"/>
	<path d="M476,469.4v-64.2c-40.7-2.7-80.3-12.1-117.9-28c-43.7-18.5-83-45-116.7-78.7c-28.4-28.4-51.6-60.7-69.2-96.2
		C108.3,274.1,67.6,367.1,61.8,469.4H476z"/>
	<path d="M172.7,787.2c17.6-35.1,40.6-67.1,68.7-95.1c33.7-33.7,73-60.2,116.7-78.7c37.6-15.9,77.2-25.3,117.9-28v-66H61.8
		C67.6,622,108.5,715.2,172.7,787.2z"/>
	<path d="M526,469.4h414.2c-5.7-102.3-46.4-195.3-110.3-267.2c-17.7,35.6-40.9,67.9-69.2,96.2c-33.7,33.7-73,60.2-116.7,78.7
		c-37.6,15.9-77.2,25.3-117.9,28V469.4z"/>
	<path d="M725.2,727.4c-54-54-123.9-86.1-199.2-91.9v298c101.6-5.7,194-45.9,265.7-109C776,788.8,753.7,755.9,725.2,727.4z"/>
	<path d="M276.8,263.1c54,54,123.9,86.1,199.2,91.9V55.2C374.1,61,281.5,101.3,209.8,164.8C225.5,201,248,234.4,276.8,263.1z"/>
	<path d="M476,635.5c-75.3,5.8-145.3,37.9-199.2,91.9c-28.4,28.4-50.8,61.3-66.5,97.1c71.7,63.2,164.1,103.3,265.7,109V635.5z"/>
</g>
</svg>
