<?xml version="1.0" encoding="utf-8"?>
<!-- Generator: Adobe Illustrator 18.1.1, SVG Export Plug-In . SVG Version: 6.00 Build 0)  -->
<svg version="1.1" id="Capa_1" xmlns="http://www.w3.org/2000/svg" xmlns:xlink="http://www.w3.org/1999/xlink" x="0px" y="0px"
	 width="1000px" height="1000px" viewBox="0 0 1000 1000" enable-background="new 0 0 1000 1000" xml:space="preserve">
<g>
	<path d="M930.6,293.9h-43.2v247.5c0,38.6-31.4,70-70,70H151v43.2c0,22.1,17.9,40,40,40h739.5c22.1,0,40-17.9,40-40V333.9
		C970.6,311.9,952.7,293.9,930.6,293.9z"/>
	<path d="M817.3,581.4c22.1,0,40-17.9,40-40V293.9v-73.2c0-22.1-17.9-40-40-40H77.8c-22.1,0-40,17.9-40,40v320.7
		c0,22.1,17.9,40,40,40H151H817.3z M393.1,272.9c8.5-7.4,19.8-12.8,32.8-15.6v-8.4c0-9.5,7.8-17.3,17.3-17.3h7.5
		c9.5,0,17.3,7.8,17.3,17.3v8.6c12,2.7,22.5,7.6,30.6,14.3c7.3,6.1,13.1,13.5,17.3,22.1c1.1,2.3,2.1,4.6,3,7
		c1.7,4.8,1.2,10.1-1.4,14.6c-2.7,4.5-7.2,7.5-12.3,8.3l-7.3,1.1c-0.9,0.1-1.7,0.2-2.6,0.2c-7.4,0-14-4.7-16.4-11.7
		c-1.6-4.7-3.7-8.6-6.3-11.5c-3.1-3.5-7.2-6.2-11.8-7.9c-4.3-1.6-9-2.5-14.1-2.5c-5.1,0-10,0.9-14.5,2.5c-5.5,2-10.3,5.1-13.9,9.1
		c-5.2,5.9-7.8,12.7-7.8,20.8c0,8,2.2,14.6,6.5,19.9c9.4,11.3,25.4,14.5,41,17.7c9.6,1.9,19.5,3.9,28.3,7.8
		c9.4,4.1,17.2,9.3,23.2,15.3c6.1,6.1,10.8,13.4,14.1,21.8c3.2,8.3,4.9,17.3,4.9,26.9c0,21-6.8,38.8-20.3,52.9
		c-10.4,10.9-24.2,18.4-40.3,21.7v5.5c0,9.5-7.8,17.3-17.3,17.3h-7.5c-9.5,0-17.3-7.8-17.3-17.3v-5.8c-8.4-1.8-16.4-4.7-23.7-8.4
		c-9.7-5-18.2-13.1-25.2-24.1c-4.6-7.3-8-15.8-10-25.2c-1-4.6-0.1-9.3,2.5-13.2c2.6-3.9,6.8-6.6,11.4-7.4l7.5-1.3c1-0.2,2-0.3,3-0.3
		c7.9,0,14.8,5.4,16.7,13c2,7.8,4.6,13.8,7.8,17.9c7.3,9.3,19.3,14.9,32.3,14.9c2.2,0,4.4-0.2,6.6-0.5c9.2-1.4,17.4-5.7,23.1-12.2
		c6-6.8,9.1-15.5,9.1-25.8c0-8.6-2.1-15.5-6.1-20.5c-7.7-9.5-21.5-13.7-33.9-16.5c-16.4-3.7-31.1-7.5-46.1-15.8
		c-9.9-5.5-17.7-13.3-23.1-23.2c-5.3-9.7-8-20.8-8-33.1c0-11.9,2.4-22.6,7-32.1C380.6,286.1,386.1,279,393.1,272.9z"/>
</g>
</svg>
