<?xml version="1.0" encoding="utf-8"?>
<!-- Generator: Adobe Illustrator 18.1.1, SVG Export Plug-In . SVG Version: 6.00 Build 0)  -->
<svg version="1.1" id="Capa_1" xmlns="http://www.w3.org/2000/svg" xmlns:xlink="http://www.w3.org/1999/xlink" x="0px" y="0px"
	 width="1000px" height="1000px" viewBox="0 0 1000 1000" enable-background="new 0 0 1000 1000" xml:space="preserve">
<g>
	<path d="M903.4,324.8H717.7c18.5-5.4,33.2-12.2,44.3-20.5c33.8-25,55.7-61.7,61.9-103.3c6.2-41.6-4.2-83-29.2-116.8
		c-14.9-20.1-34.5-36.5-56.8-47.4c-21.5-10.6-45.6-16.2-69.7-16.2c-33.9,0-66.3,10.7-93.6,31c-21.9,16.2-42.8,47.9-63.3,96h-26.2
		c-20.5-48.2-41.4-79.8-63.3-96c-27.3-20.3-59.7-31-93.6-31c-24,0-48.1,5.6-69.7,16.2c-22.3,11-41.9,27.4-56.8,47.4
		c-25,33.8-35.4,75.2-29.2,116.8c6.2,41.6,28.2,78.2,61.9,103.3c11.1,8.2,25.8,15,44.3,20.5H98.6c-24.9,0-45,20.1-45,45v241h419.9
		V341.4c10.7-0.3,41.6-0.1,55,0.1v269.4h419.9v-241C948.4,345,928.2,324.8,903.4,324.8z M342.5,271.3c-47.4-6-64.3-15.4-69.3-19.2
		c-19.8-14.7-32.7-36.2-36.3-60.6c-3.6-24.4,2.5-48.7,17.2-68.5c17.6-23.7,44.7-37.3,74.2-37.3c19.9,0,38.9,6.3,54.9,18.2
		c13.8,10.2,31.4,41.4,48.9,85.7c-6.4,11.4-10,24.5-10,38.4c0,18.4,6.3,35.3,16.9,48.7C402.5,276.6,369.3,274.7,342.5,271.3z
		 M563.1,276.7c10.5-13.4,16.8-30.3,16.8-48.7c0-16.3-4.9-31.4-13.3-43.9c16.7-41.4,33.5-70.4,46.7-80.2c16-11.9,35-18.2,54.9-18.2
		c29.6,0,56.7,13.6,74.2,37.3c14.7,19.8,20.8,44.1,17.2,68.5c-3.6,24.4-16.5,45.9-36.3,60.6c-5.1,3.8-22,13.2-69.3,19.2
		C628.6,274.6,597.3,276.4,563.1,276.7z"/>
	<path d="M528.5,951.9h374.9c24.9,0,45-20.1,45-45v-241H528.5V951.9z"/>
	<path d="M53.6,906.9c0,24.9,20.1,45,45,45h374.9v-286H53.6V906.9z"/>
</g>
</svg>
