<?xml version="1.0" encoding="utf-8"?>
<!-- Generator: Adobe Illustrator 18.1.1, SVG Export Plug-In . SVG Version: 6.00 Build 0)  -->
<svg version="1.1" id="Capa_1" xmlns="http://www.w3.org/2000/svg" xmlns:xlink="http://www.w3.org/1999/xlink" x="0px" y="0px"
	 width="1000px" height="1000px" viewBox="0 0 1000 1000" enable-background="new 0 0 1000 1000" xml:space="preserve">
<g>
	<path d="M20.2,749.4c0,19.1,15.5,34.6,34.6,34.6h233.4c0-39.2,15.3-76.1,43-103.8c27.7-27.7,64.6-43,103.8-43
		c39.2,0,76.1,15.3,103.8,43c27.7,27.7,43,64.6,43,103.8h36v0h328.3c16.6,0,30-13.4,30-30v-15c0-16.6-13.4-30-30-30h-96.4V403.5
		c0-137-111.1-248.1-248.1-248.1H268.4c-137,0-248.1,111.1-248.1,248.1V749.4z M741.6,409.5v119.6H472.5V264.6h124.2
		C676.7,264.6,741.6,329.5,741.6,409.5z M128.4,409.5c0-80,64.9-144.9,144.9-144.9h124.2v264.5H128.4V409.5z"/>
	<path d="M435,900.8c64.5,0,116.8-52.3,116.8-116.8S499.5,667.2,435,667.2c-64.5,0-116.8,52.3-116.8,116.8
		C318.2,848.5,370.5,900.8,435,900.8z M435,741.2c23.6,0,42.8,19.2,42.8,42.8c0,23.6-19.2,42.8-42.8,42.8
		c-23.6,0-42.8-19.2-42.8-42.8C392.2,760.4,411.4,741.2,435,741.2z"/>
</g>
</svg>
