<?xml version="1.0" encoding="utf-8"?>
<!-- Generator: Adobe Illustrator 18.1.1, SVG Export Plug-In . SVG Version: 6.00 Build 0)  -->
<svg version="1.1" id="Capa_1" xmlns="http://www.w3.org/2000/svg" xmlns:xlink="http://www.w3.org/1999/xlink" x="0px" y="0px"
	 width="1000px" height="1000px" viewBox="0 0 1000 1000" enable-background="new 0 0 1000 1000" xml:space="preserve">
<g>
	<path d="M493,31.1L147.4,218.4l15.2-3.8l412.9-104.7l-35-64.6C531.3,28.2,510,21.9,493,31.1z"/>
	<path d="M820.4,226.9l-26.2-103.4c-4-15.9-18.3-26.4-33.9-26.4c-2.8,0-5.7,0.3-8.6,1.1l-160.5,40.7l-347.4,88.1h395.1H820.4z"/>
	<path d="M586.2,670.1v-176c0-36.7,29.8-66.5,66.5-66.5h218.6h16.5h16.5h13.2V291.9c0-19.3-15.7-35-35-35H861h-16.5H828H655.2H173.3
		h-16.5h-16.5h-64h-1.8c-12.9,0-24.1,7-30.2,17.3c-3,5.2-4.8,11.2-4.8,17.7v5.6v574.9c0,19.3,15.7,35,35,35h807.9
		c19.3,0,35-15.7,35-35V736.7H652.7C616,736.7,586.2,706.8,586.2,670.1z"/>
	<path d="M947.5,464.1c-4.5-2.7-9.6-4.3-15-4.8c-1-0.1-1.9-0.1-2.9-0.1h-12.1h-5.2h-16.5h-39.6H652.7c-19.3,0-35,15.7-35,35v176
		c0,19.3,15.7,35,35,35h264.8h12.1c1,0,1.9-0.1,2.9-0.1c5.4-0.4,10.5-2.1,15-4.8c10.2-6.1,17.1-17.3,17.1-30.1v-176
		C964.6,481.4,957.7,470.2,947.5,464.1z M740,638.9c-31.3,0-56.8-25.4-56.8-56.8c0-31.3,25.4-56.8,56.8-56.8
		c31.3,0,56.8,25.4,56.8,56.8C796.8,613.5,771.4,638.9,740,638.9z"/>
</g>
</svg>
