<?xml version="1.0" encoding="utf-8"?>
<!-- Generator: Adobe Illustrator 18.1.1, SVG Export Plug-In . SVG Version: 6.00 Build 0)  -->
<svg version="1.1" id="Capa_1" xmlns="http://www.w3.org/2000/svg" xmlns:xlink="http://www.w3.org/1999/xlink" x="0px" y="0px"
	 width="1000px" height="1000px" viewBox="0 0 1000 1000" enable-background="new 0 0 1000 1000" xml:space="preserve">
<g>
	<path d="M129.9,440.6c0-38.6,31.4-70,70-70h677.8l-80.2-253.9C790,93.1,764.7,79.9,741,87.4l-686.5,217
		c-23.7,7.5-36.8,32.8-29.3,56.5l104.8,331.4V440.6z"/>
	<path d="M159.9,846.2c0,22.1,17.9,40,40,40h730c22.1,0,40-17.9,40-40v-54h-810V846.2z"/>
	<path d="M969.9,440.6c0-22.1-17.9-40-40-40h-42.7H199.9c-22.1,0-40,17.9-40,40v276.5h199.7h610.3V440.6z"/>
</g>
</svg>
