<?xml version="1.0" encoding="utf-8"?>
<!-- Generator: Adobe Illustrator 18.1.1, SVG Export Plug-In . SVG Version: 6.00 Build 0)  -->
<svg version="1.1" id="Capa_1" xmlns="http://www.w3.org/2000/svg" xmlns:xlink="http://www.w3.org/1999/xlink" x="0px" y="0px"
	 width="1000px" height="1000px" viewBox="0 0 1000 1000" enable-background="new 0 0 1000 1000" xml:space="preserve">
<g>
	<path d="M625.2,59.9c0-22.1-17.9-40-40-40H380.7c-22.1,0-40,17.9-40,40v93.6h284.5V59.9z"/>
	<path d="M266,188.5c-22.1,0-40,17.9-40,40v216L343.5,392l107-47.8c10.3-4.6,21.2-6.9,32.4-6.9c11.2,0,22.2,2.3,32.4,6.9l107,47.8
		l117.6,52.5v-216c0-22.1-17.9-40-40-40h-74.8H340.7H266z"/>
	<path d="M807.9,518.2L499.3,380.4c-5.2-2.3-10.7-3.5-16.3-3.5c-5.6,0-11.1,1.2-16.3,3.5L158.1,518.2c-19,8.5-28.3,30.2-21.4,49.8
		l130.8,371.8c5.6,16,20.8,26.7,37.7,26.7H483h177.8c17,0,32.1-10.7,37.7-26.7L829.3,568C836.2,548.3,826.9,526.6,807.9,518.2z
		 M602.1,522.4c18.1,0,32.7,14.6,32.7,32.7c0,18.1-14.6,32.7-32.7,32.7c-18.1,0-32.7-14.6-32.7-32.7
		C569.4,537,584,522.4,602.1,522.4z M359.5,522.4c18.1,0,32.7,14.6,32.7,32.7c0,18.1-14.6,32.7-32.7,32.7
		c-18.1,0-32.7-14.6-32.7-32.7C326.7,537,341.4,522.4,359.5,522.4z"/>
</g>
</svg>
