<?xml version="1.0" encoding="utf-8"?>
<!-- Generator: Adobe Illustrator 18.1.1, SVG Export Plug-In . SVG Version: 6.00 Build 0)  -->
<svg version="1.1" id="Capa_1" xmlns="http://www.w3.org/2000/svg" xmlns:xlink="http://www.w3.org/1999/xlink" x="0px" y="0px"
	 width="1000px" height="1000px" viewBox="0 0 1000 1000" enable-background="new 0 0 1000 1000" xml:space="preserve">
<g>
	<path d="M431.5,561.5v-21.1v-77.1h98.3V501c20.3-17.5,42.9-31.9,67.3-43V58c0-19.4-15.7-35.1-35.1-35.1H69
		c-19.4,0-35.1,15.7-35.1,35.1v716.3c0,19.4,15.7,35.1,35.1,35.1h378c-10.5-30-15.9-61.4-15.9-93.6c0-4.8,0.1-9.6,0.4-14.4V561.5z
		 M529.8,402h-98.3v-98.3h98.3V402z M199.5,721.1h-98.3v-98.3h98.3V721.1z M199.5,561.5h-98.3v-98.3h98.3V561.5z M199.5,402h-98.3
		v-98.3h98.3V402z M364.6,721.1h-98.3v-98.3h98.3V721.1z M364.6,561.5h-98.3v-98.3h98.3V561.5z M364.6,402h-98.3v-98.3h98.3V402z
		 M101.2,222.6v-127h428.6v127H101.2z"/>
	<path d="M479.1,809.4c37.2,93.4,128.5,159.5,235.2,159.5c139.8,0,253.1-113.3,253.1-253.1S854.1,462.6,714.3,462.6
		c-42.3,0-82.2,10.4-117.2,28.7c-25.2,13.2-48,30.5-67.3,51.1c-42.5,45.3-68.6,106.2-68.6,173.3c0,1.8,0,3.5,0.1,5.3
		C461.9,752.2,468.1,782,479.1,809.4z M761.5,751.2c-10.2-12.5-27.7-17.8-43.4-21.4c-19.5-4.4-37.1-8.9-54.7-18.7
		c-11.3-6.3-20.2-15.2-26.3-26.4c-6.1-11.1-9.2-23.9-9.2-38c0-25.1,9-45.7,26.8-61.2c10.5-9.2,24.9-15.6,41.2-18.6v-13.7
		c0-9.2,7.5-16.7,16.7-16.7h9.1c9.2,0,16.7,7.5,16.7,16.7V567c15.1,2.9,28.5,8.8,38.6,17.2c10.7,8.9,18.5,20.1,23.3,33.5
		c3.6,9.9-2.9,20.5-13.3,22.1l-8.8,1.3c-8,1.2-15.7-3.5-18.3-11.2c-2.1-6.2-5-11.4-8.5-15.4c-8-8.9-20.6-14.1-34.5-14.1
		c-14.8,0-28.8,5.8-37.5,15.5c-7.1,7.9-10.5,17.1-10.5,28c0,10.7,3,19.7,8.9,26.8c12.3,14.8,32.5,18.9,52,22.8
		c11.4,2.3,23.2,4.7,33.4,9.2c10.9,4.8,19.9,10.8,26.9,17.7c7,7,12.4,15.4,16.1,24.9c3.7,9.5,5.6,20,5.6,31
		c0,24.3-7.9,44.9-23.4,61.2c-12.7,13.4-30.1,22.2-50,25.8v10.1c0,9.2-7.5,16.7-16.7,16.7h-9.1c-9.2,0-16.7-7.5-16.7-16.7V863
		c-11-2.1-21.5-5.6-30.9-10.5c-11.1-5.7-20.8-15-28.9-27.7c-5.4-8.4-9.2-18.2-11.6-29.2c-2-9.2,4.2-18.3,13.5-19.9l9-1.6
		c8.6-1.5,16.9,3.9,19.1,12.4c2.6,10,6,17.8,10.3,23.3c9.6,12.3,25.4,19.7,42.4,19.7h0c2.9,0,5.8-0.2,8.6-0.6
		c12.1-1.8,23-7.6,30.5-16.2c8-9.1,12-20.5,12-34C769.8,767.2,767,758,761.5,751.2z"/>
</g>
</svg>
