<?xml version="1.0" encoding="utf-8"?>
<!-- Generator: Adobe Illustrator 18.1.1, SVG Export Plug-In . SVG Version: 6.00 Build 0)  -->
<svg version="1.1" id="Capa_1" xmlns="http://www.w3.org/2000/svg" xmlns:xlink="http://www.w3.org/1999/xlink" x="0px" y="0px"
	 width="1000px" height="1000px" viewBox="0 0 1000 1000" enable-background="new 0 0 1000 1000" xml:space="preserve">
<g>
	<path d="M455.3,214.4l-197.5,211c-14.4,21-9,49.6,11.9,63.9l198.9,136.3v132.5c0,25.2,20,46.3,45.2,46.8
		c25.8,0.4,46.8-20.3,46.8-46V601.5c0-15.2-7.5-29.4-20-37.9L413,476.1l107.4-113.9l55,125.3c7.3,16.7,23.9,27.5,42.1,27.5H785
		c25.2,0,46.3-20,46.8-45.2c0.4-25.8-20.3-46.8-46-46.8l-138.1,0c-18.2-41.4-37.6-82.4-54.5-124.4c-8.6-21.2-13.4-30.4-29.2-45
		c-3.2-3-25.5-23.4-45.4-41.6C500.3,195.4,472.1,196.5,455.3,214.4z"/>
	<circle cx="643.7" cy="132" r="105.4"/>
	<circle cx="219.3" cy="744.7" r="194"/>
	<circle cx="781.7" cy="744.7" r="194"/>
</g>
</svg>
