<?xml version="1.0" encoding="utf-8"?>
<!-- Generator: Adobe Illustrator 18.1.1, SVG Export Plug-In . SVG Version: 6.00 Build 0)  -->
<svg version="1.1" id="Capa_1" xmlns="http://www.w3.org/2000/svg" xmlns:xlink="http://www.w3.org/1999/xlink" x="0px" y="0px"
	 width="1000px" height="1000px" viewBox="0 0 1000 1000" enable-background="new 0 0 1000 1000" xml:space="preserve">
<g>
	<path d="M94.1,133.4c-77.6,90.3-62.3,197.6-61.6,202.2c2.5,16.5,16.6,29,32.8,29h740.8c16.1,0,30.3-12.4,32.9-29
		c0.7-4.5,15.8-111.7-61.6-201.8c-68-79.2-182.9-119.3-341.6-119.3C276.8,14.4,161.9,54.4,94.1,133.4z M690.2,213
		c13.9,10.5,16.6,30.3,6.1,44.2c-10.5,13.9-30.3,16.6-44.2,6.1c-8.1-6.1-12.4-15.6-12.5-25.1l-0.2-63.7L690.2,213z M407.4,228.6
		l28.3-57.1l28.3,57.1c7.7,15.6,1.4,34.6-14.3,42.3c-15.6,7.7-34.6,1.4-42.3-14.3C402.9,247.6,403.2,237.1,407.4,228.6z M181.1,213
		l50.8-38.5l-0.2,63.7c0,17.4-14.2,31.5-31.6,31.5c-17.4,0-31.5-14.2-31.5-31.6C168.7,227.9,173.6,218.8,181.1,213z"/>
	<path d="M799.4,395.5H71.9c-22.7,0-41.1,18.4-41.1,41.1v67.5c0,22.7,18.4,41.1,41.1,41.1H525c4.2-4.8,8.6-9.6,13.2-14.1
		c52.4-52.4,122.1-81.3,196.3-81.3c37,0,72.9,7.2,106.1,20.9v-34.1C840.6,413.9,822.1,395.5,799.4,395.5z"/>
	<path d="M139.5,725.5H457c0.4-54,16.1-105.6,45.1-149.8H71.9c-22.7,0-41.1,18.4-41.1,41.1C30.8,676.8,79.5,725.5,139.5,725.5z"/>
	<path d="M840.6,503.6c-32.7-15.5-68.8-23.7-106.1-23.7c-72.1,0-151,38.6-195.6,95.7c-33.3,42.7-51.5,94.9-51.9,149.8
		c0,0.7,0,1.3,0,2c0,66.1,25.8,128.3,72.5,175.1c46.8,46.8,108.9,72.5,175.1,72.5c66.1,0,128.3-25.8,175.1-72.5
		c46.8-46.8,72.5-108.9,72.5-175.1c0-66.1-25.8-128.3-72.5-175.1C889.2,532,865.9,515.6,840.6,503.6z M734.5,890
		c-29.4,0-57-7.8-80.8-21.6l221.8-221.8c13.7,23.8,21.6,51.4,21.6,80.8C897,817.1,824.1,890,734.5,890z M572,725.5
		c0.8-68.3,44-126.6,104.5-149.8c18-6.9,37.6-10.7,58-10.7c20.4,0,40,3.8,58,10.7c7.9,3,15.5,6.7,22.8,10.9l-139,139l-82.8,82.8
		c-13.7-23.8-21.6-51.4-21.6-80.8C572,726.8,572,726.1,572,725.5z"/>
</g>
</svg>
