<?xml version="1.0" encoding="utf-8"?>
<!-- Generator: Adobe Illustrator 18.1.1, SVG Export Plug-In . SVG Version: 6.00 Build 0)  -->
<svg version="1.1" id="Capa_1" xmlns="http://www.w3.org/2000/svg" xmlns:xlink="http://www.w3.org/1999/xlink" x="0px" y="0px"
	 width="1000px" height="1000px" viewBox="0 0 1000 1000" enable-background="new 0 0 1000 1000" xml:space="preserve">
<g>
	<path d="M75.6,843.9h321.6l-32.3-32.3c-27.5-27.5-27.5-72.2,0-99.7l58.4-58.4c13.3-13.3,31-20.6,49.8-20.6
		c18.8,0,36.5,7.3,49.8,20.6l65.3,65.3l231.2-231.2c9.6-9.6,21.6-16.1,34.6-19V65.4c0-22.1-17.9-40-40-40H75.6
		c-22.1,0-40,17.9-40,40v738.5C35.6,826,53.5,843.9,75.6,843.9z M220.1,167.1c27.8-18,57.5-32.5,88.8-43.3
		c43.7-15.1,89.4-22.8,135.9-22.8c46.5,0,92.3,7.7,135.9,22.8c31.3,10.9,61.1,25.4,88.8,43.3c15.7,10.1,19.4,31.5,8,46.2
		l-78.2,101.3c-9.8,12.7-27.6,16.1-41.4,7.9c-24.9-14.7-52.1-24.3-80.7-28.4l-32.5-146l-32.5,146c-28.6,4.1-55.9,13.7-80.7,28.4
		c-13.8,8.2-31.6,4.8-41.4-7.9L212,213.3C200.6,198.5,204.4,177.2,220.1,167.1z"/>
	<path d="M897.6,509.1c-7.8-7.8-18-11.7-28.3-11.7c-5.2,0-10.4,1-15.3,3c-4.7,2-9.2,4.8-13,8.7L588.3,761.9l-86.8-86.8
		c-7.8-7.8-18-11.7-28.3-11.7s-20.5,3.9-28.3,11.7l-58.4,58.4c-15.6,15.6-15.6,40.9,0,56.6l53.8,53.8l90.5,90.5
		c15.2,15.2,35.9,23.8,57.5,23.8c21.6,0,42.2-8.6,57.5-23.8L956,624.1c15.6-15.6,15.6-40.9,0-56.6L897.6,509.1z"/>
</g>
</svg>
