<?xml version="1.0" encoding="utf-8"?>
<!-- Generator: Adobe Illustrator 18.1.1, SVG Export Plug-In . SVG Version: 6.00 Build 0)  -->
<svg version="1.1" id="Capa_1" xmlns="http://www.w3.org/2000/svg" xmlns:xlink="http://www.w3.org/1999/xlink" x="0px" y="0px"
	 width="1000px" height="1000px" viewBox="0 0 1000 1000" enable-background="new 0 0 1000 1000" xml:space="preserve">
<g>
	<path d="M395.5,929.2c0,19.3,15.7,35,35,35h59c19.3,0,35-15.7,35-35v-157h-129V929.2z"/>
	<path d="M524.5,69.6c0-19.3-15.7-35-35-35h-59c-19.3,0-35,15.7-35,35v30.7h129V69.6z"/>
	<rect x="395.5" y="400.3" width="129" height="71.9"/>
	<path d="M770.5,144c-6.6-8.6-16.9-13.7-27.8-13.7H524.5h-129H185c-19.3,0-35,15.7-35,35v170c0,19.3,15.7,35,35,35h210.5h129h218.2
		c10.9,0,21.2-5.1,27.8-13.7l65.2-85c9.6-12.6,9.6-30,0-42.6L770.5,144z"/>
	<path d="M524.5,742.2H727c19.3,0,35-15.7,35-35v-170c0-19.3-15.7-35-35-35H524.5h-129H169.3c-10.9,0-21.2,5.1-27.8,13.7l-65.2,85
		c-9.6,12.6-9.6,30,0,42.6l65.2,85c6.6,8.6,16.9,13.7,27.8,13.7h226.2H524.5z"/>
</g>
</svg>
