<?xml version="1.0" encoding="utf-8"?>
<!-- Generator: Adobe Illustrator 18.1.1, SVG Export Plug-In . SVG Version: 6.00 Build 0)  -->
<svg version="1.1" id="Capa_1" xmlns="http://www.w3.org/2000/svg" xmlns:xlink="http://www.w3.org/1999/xlink" x="0px" y="0px"
	 width="1000px" height="1000px" viewBox="0 0 1000 1000" enable-background="new 0 0 1000 1000" xml:space="preserve">
<g>
	<path d="M858.2,69.2h-28.1c-19.3,0-35,15.7-35,35v167.5c32.5,10.9,56,41.6,56,77.7v149c0,10-0.7,19.9-2,29.7
		c-2.6,18.8-7.6,37-15,54.6c-9.5,22.5-22.6,42.9-38.9,61c-2.4,2.7-4.9,5.3-7.5,7.9c-8.9,8.9-18.5,17-28.7,24.1
		c5.1,3,11.1,4.7,17.4,4.7h18.4c-5.1,80.8-72.6,145-154.7,144.8c-81.6-0.2-148-64.5-153.7-144.8h52.7c-7.4-6.2-14.2-13.1-20.3-20.5
		L486,619.3L450.9,576c-4.7-5.8-10.7-6.6-13.9-6.6c-3.2,0-9.2,0.9-13.9,6.6l-35.1,43.3l-32.8,40.5c-6.1,7.5-12.9,14.4-20.3,20.5
		h53.4c2.8,62.7,28.2,122.7,72.5,167.6c47.9,48.5,111.8,75.2,179.9,75.2s132-26.7,179.9-75.2c44.3-44.9,69.7-104.9,72.5-167.6h19
		c19.1,0,34.6-15.5,34.6-34.6v-83.1c0-19.1-15.5-34.6-34.6-34.6h-18.7V104.2C893.2,84.8,877.6,69.2,858.2,69.2z"/>
	<path d="M260.6,227.7l-20,39.6h392.8l-20-39.6c-6-11.8-18-19.2-31.2-19.2H291.9C278.7,208.5,266.6,216,260.6,227.7z"/>
	<path d="M57.4,349.3v149c0,100.5,81.5,182,182,182h0c34.3,0,66.8-15.4,88.5-41.9c0.1-0.1,0.2-0.3,0.3-0.4l59.7-73.7l8.2-10.1
		c10.5-13,25.7-19.5,40.8-19.5c15.2,0,30.3,6.5,40.8,19.5l8.2,10.1l59.7,73.7c0.1,0.1,0.2,0.3,0.3,0.4
		c21.7,26.5,54.2,41.9,88.5,41.9h0c40.1,0,77.2-13,107.3-35c22.1-16.1,40.4-37.1,53.3-61.4c9.2-17.2,15.6-36,18.9-55.8
		c1.6-9.7,2.4-19.6,2.4-29.7v-149c0-16.5-8.5-31.1-21.3-39.6c-7.5-4.9-16.4-7.8-26-7.8H650.9H223.1H104.8
		C78.6,302,57.4,323.2,57.4,349.3z"/>
</g>
</svg>
