<?xml version="1.0" encoding="utf-8"?>
<!-- Generator: Adobe Illustrator 18.1.1, SVG Export Plug-In . SVG Version: 6.00 Build 0)  -->
<svg version="1.1" id="Capa_1" xmlns="http://www.w3.org/2000/svg" xmlns:xlink="http://www.w3.org/1999/xlink" x="0px" y="0px"
	 width="1000px" height="1000px" viewBox="0 0 1000 1000" enable-background="new 0 0 1000 1000" xml:space="preserve">
<g>
	<path d="M559.4,527c97.9-37.7,154-75.4,178.8-94.5c9.3-7.2,20.9-11.2,32.7-11.2c11.8,0,23.4,4,32.7,11.2
		c13.8,10.7,37.4,27.1,72.7,46.2V203.4c0-19.3-15.7-35-35-35H56.5c-19.3,0-35,15.7-35,35v347.9c0,19.3,15.7,35,35,35h469
		c-0.2-2.4-0.3-4.7-0.4-6.8C524.1,556.4,537.8,535.3,559.4,527z M512.2,486.8c-10.8,11.3-25.3,19.2-42,22.7v5.7c0,9.9-8.1,18-18,18
		h-7.8c-9.9,0-18-8.1-18-18v-6.1c-8.8-1.9-17.1-4.9-24.7-8.8c-10.2-5.2-19-13.7-26.3-25.1c-4.8-7.6-8.3-16.4-10.5-26.3
		c-1-4.8-0.1-9.7,2.7-13.7c2.7-4.1,7.1-6.9,11.9-7.7l7.8-1.4c1-0.2,2.1-0.3,3.1-0.3c8.2,0,15.4,5.6,17.5,13.6
		c2.1,8.1,4.8,14.4,8.2,18.7c7.6,9.7,20.2,15.5,33.6,15.5c2.3,0,4.6-0.2,6.8-0.5c9.6-1.4,18.2-6,24.1-12.7
		c6.3-7.1,9.5-16.2,9.5-26.9c0-9-2.1-16.1-6.4-21.3c-8.1-9.9-22.4-14.2-35.4-17.2c-17.1-3.9-32.5-7.8-48.1-16.5
		c-10.4-5.8-18.5-13.9-24.1-24.2c-5.5-10.1-8.4-21.7-8.4-34.5c0-22.7,8.2-41.3,24.3-55.4c8.9-7.8,20.6-13.3,34.2-16.2v-8.8
		c0-9.9,8.1-18,18-18h7.8c9.9,0,18,8.1,18,18v9c12.5,2.8,23.5,8,31.9,14.9c9.7,8,16.8,18.3,21.1,30.4c1.8,5,1.3,10.6-1.5,15.2
		c-2.8,4.7-7.5,7.8-12.9,8.6l-7.6,1.1c-0.9,0.1-1.8,0.2-2.7,0.2c-7.7,0-14.6-4.9-17.1-12.2c-1.7-4.9-3.9-8.9-6.6-12
		c-6.2-6.9-16-10.9-27-10.9c-11.8,0-22.8,4.5-29.6,12.1c-5.5,6.1-8.1,13.2-8.1,21.7c0,8.3,2.3,15.3,6.8,20.7
		c9.8,11.8,26.5,15.2,42.7,18.4c10,2,20.4,4.1,29.5,8.1c9.8,4.3,17.9,9.7,24.2,16c6.4,6.4,11.3,14,14.7,22.7
		c3.4,8.6,5.1,18.1,5.1,28C533.3,453.5,526.2,472.1,512.2,486.8z"/>
	<path d="M972.1,553.7c-23.8-9.2-45.3-18.4-64.5-27.4c-10.5-4.9-21-10-31.3-15.3c-44.8-23.1-74.1-43.4-90.1-55.8
		c-4.5-3.5-9.9-5.2-15.2-5.2s-10.8,1.7-15.2,5.2c-25.5,19.7-84.2,59.3-186,98.5c-10,3.9-16.5,13.7-16,24.5c0.6,13.2,2,26.4,4.1,39.5
		c11.6,74.5,53.4,203.9,201.2,283.7c3.7,2,7.8,3,11.9,3c4.1,0,8.2-1,11.9-3C962.4,804.3,985.5,634,988.1,578.1
		C988.6,567.4,982.1,557.6,972.1,553.7z"/>
</g>
</svg>
