<?xml version="1.0" encoding="utf-8"?>
<!-- Generator: Adobe Illustrator 18.1.1, SVG Export Plug-In . SVG Version: 6.00 Build 0)  -->
<svg version="1.1" id="Capa_1" xmlns="http://www.w3.org/2000/svg" xmlns:xlink="http://www.w3.org/1999/xlink" x="0px" y="0px"
	 width="1000px" height="1000px" viewBox="0 0 1000 1000" enable-background="new 0 0 1000 1000" xml:space="preserve">
<g>
	<path d="M603,485.6c-10.3-10.3-23.4-19-39.1-25.9c-14.6-6.4-30.5-9.6-45.8-12.7c-20-4-39.1-7.9-51.6-18.3c-1.8-1.5-3.5-3.2-5-5
		c-5-6-7.4-13.7-7.4-23.3c0-9.7,2.9-17.5,9.1-24.5c4.9-5.5,12.2-9.7,20.4-12.1c4.7-1.3,9.6-2,14.7-2c12.9,0,24.4,4.5,31.4,12.3
		c5.2,5.8,8.9,15.4,10.8,27.9c1.2,8.2,8.3,14.1,16.4,14.1c0.8,0,1.6-0.1,2.5-0.2l53.3-8c9-1.3,15.2-9.7,14-18.7l0,0
		c-4.6-32.5-18.5-58.6-41.3-77.6c-11.7-9.7-26.4-17.2-42.9-22.1v-25.8c0-9.2-7.4-16.6-16.6-16.6h-42.1h-11.9
		c-9.2,0-16.6,7.4-16.6,16.6v25.4c-18.2,5.1-34.1,13.4-46.6,24.3c-26.3,23-39.7,53.4-39.7,90.2c0,10.4,1.2,20.3,3.5,29.7
		c2.3,9.4,5.7,18.2,10.2,26.5c9.3,17,22.7,30.5,39.9,40.1c24.3,13.6,47.9,19.6,73.9,25.4c17.2,3.9,36.1,9.5,45.9,21.4
		c4.5,5.6,6.9,13.8,6.9,24.3c0,13.1-3.6,23.7-11.1,32.2c-7,8-17.2,13.3-28.7,15.1c-2.7,0.4-5.6,0.6-8.4,0.6
		c-16.4,0-31.7-6.9-40.7-18.6c-4.2-5.4-10-16.9-13.4-41c-1.2-8.3-8.3-14.2-16.4-14.2c-0.9,0-1.9,0.1-2.9,0.2l-52.1,9.1
		c-8.4,1.5-14.3,9-13.7,17.5c1.8,25.7,8.7,48.1,20.3,66.4c11.8,18.6,26.3,32.4,43,41c9.5,4.9,19.6,8.8,30.3,11.7v21.4
		c0,9.2,7.4,16.6,16.6,16.6h54c9.2,0,16.6-7.4,16.6-16.6V692c23.1-6.4,43.3-18.2,58.8-34.5c22.7-23.9,34.2-53.8,34.2-89.1
		c0-16.1-2.8-31.4-8.3-45.4C621.6,508.7,613.5,496.1,603,485.6z"/>
	<g>
		<g>
			<path d="M901.8,257.8l39.4-37.6c13.9-13.3,8.2-36.7-10.2-42.1l-227.9-66.8c-18.5-5.4-35.9,11.2-31.3,29.9l56,230.7
				c4.5,18.7,27.6,25.5,41.6,12.2l32.7-31.2c12,31,19.8,63.6,23.3,97.5c6.5,62.2-2.3,125.4-25.6,183
				c-19.6,48.5-49.4,92.9-86.8,129.7c-9.4,9.3-10.1,24.3-1.4,34.3l52.5,60.5c9.4,10.8,25.9,11.5,36.3,1.6
				c51.8-49.9,93-110.7,120-177.2c31.3-77.2,43.1-162,34.4-245.4C948.1,373.6,930.3,313.6,901.8,257.8z"/>
		</g>
		<path d="M95.2,718.9l-39.4,37.6c-13.9,13.3-8.2,36.7,10.2,42.1l227.9,66.8c18.5,5.4,35.9-11.2,31.3-29.9l-56-230.7
			c-4.5-18.7-27.6-25.5-41.6-12.2l-32.7,31.2c-12-31-19.8-63.6-23.3-97.5c-6.5-62.2,2.3-125.4,25.6-183
			c19.6-48.5,49.4-92.9,86.8-129.7c9.4-9.3,10.1-24.3,1.4-34.3l-52.5-60.5c-9.4-10.8-25.9-11.5-36.3-1.6
			c-51.8,49.9-93,110.7-120,177.2c-31.3,77.2-43.1,162-34.4,245.4C48.9,603.1,66.7,663.1,95.2,718.9z"/>
	</g>
</g>
</svg>
