<?xml version="1.0" encoding="utf-8"?>
<!-- Generator: Adobe Illustrator 18.1.1, SVG Export Plug-In . SVG Version: 6.00 Build 0)  -->
<svg version="1.1" id="Capa_1" xmlns="http://www.w3.org/2000/svg" xmlns:xlink="http://www.w3.org/1999/xlink" x="0px" y="0px"
	 width="1000px" height="1000px" viewBox="0 0 1000 1000" enable-background="new 0 0 1000 1000" xml:space="preserve">
<g>
	<path d="M283.9,458.2c-11,8.5-17.4,21.6-17.4,35.5v440.4c0,24.9,20.1,45,45,45h412c24.9,0,45-20.1,45-45V493.7
		c0-13.9-6.4-27-17.4-35.5c-27.2-21.2-76.9-66.7-76.9-116.3H571.5H360.7C360.7,391.4,311.1,436.9,283.9,458.2z"/>
	<path d="M372.6,127.2c-22.1,0-40,17.9-40,40v92.2c0,22.1,17.9,40,40,40h294.7c22.1,0,40-17.9,40-40v-92.2c0-22.1-17.9-40-40-40H574
		V85.9h48.5V58.2c0-22.1-17.9-40-40-40h-125c-22.1,0-40,17.9-40,40v27.8h48.5v41.2H372.6z"/>
</g>
</svg>
