<?xml version="1.0" encoding="utf-8"?>
<!-- Generator: Adobe Illustrator 18.1.1, SVG Export Plug-In . SVG Version: 6.00 Build 0)  -->
<svg version="1.1" id="Capa_1" xmlns="http://www.w3.org/2000/svg" xmlns:xlink="http://www.w3.org/1999/xlink" x="0px" y="0px"
	 width="1000px" height="1000px" viewBox="0 0 1000 1000" enable-background="new 0 0 1000 1000" xml:space="preserve">
<g>
	<path d="M624.2,48.9L516.8,260.7l90.7,178.9c2.3,0.9,4.6,1.8,6.9,2.8c20.4,8.6,39.5,19.5,57.3,32.4l210.9-416
		c6.7-13.3-2.9-29-17.8-29H655.4C642.2,29.7,630.2,37.1,624.2,48.9z"/>
	<path d="M375.8,48.9c-6-11.8-18-19.2-31.2-19.2H135.3c-14.9,0-24.6,15.7-17.8,29l211.8,417.8c49.6-36.9,110.7-57,172.4-57
		c22.4,0,44.4,2.5,65.8,7.5L375.8,48.9z"/>
	<path d="M413.4,465.1c-34.9,12.7-67,32.7-93.6,58.9c-47.8,47.1-77.5,112.5-77.5,184.9c0,143.3,116.2,259.5,259.5,259.5
		s259.5-116.2,259.5-259.5c0-73.6-30.6-140-79.8-187.2c-48-46.1-113.1-72.3-179.7-72.3C471.5,449.4,441.6,454.9,413.4,465.1z
		 M682.9,709.7c0,16.4-13.3,29.7-29.7,29.7h-12.8v43.2c0,16.4-13.3,29.7-29.7,29.7c-16.4,0-29.7-13.3-29.7-29.7v-43.2H422.4v43.9
		c0,16.4-13.3,29.7-29.7,29.7S363,799.6,363,783.2v-43.9h-14.2c-16.4,0-29.7-13.3-29.7-29.7c0-16.4,13.3-29.7,29.7-29.7H363v-43.2
		c0-16.4,13.3-29.7,29.7-29.7s29.7,13.3,29.7,29.7V680H581v-43.9c0-16.4,13.3-29.7,29.7-29.7c16.4,0,29.7,13.3,29.7,29.7V680h12.8
		C669.6,680,682.9,693.3,682.9,709.7z"/>
</g>
</svg>
