<?xml version="1.0" encoding="utf-8"?>
<!-- Generator: Adobe Illustrator 18.1.1, SVG Export Plug-In . SVG Version: 6.00 Build 0)  -->
<svg version="1.1" id="Capa_1" xmlns="http://www.w3.org/2000/svg" xmlns:xlink="http://www.w3.org/1999/xlink" x="0px" y="0px"
	 width="1000px" height="1000px" viewBox="0 0 1000 1000" enable-background="new 0 0 1000 1000" xml:space="preserve">
<g>
	<path d="M41.6,901c149.1,3.8,223.6,92.6,461.5,60.3c76.4-10.4,157-10.8,197.1-10.2c14.3,0.2,26.6-9.7,29.7-23.6
		c10.9-48.7,38.1-101.7,38.1-203.2c0-118.5-52-199.5-52-300c0-59.8-13.3-117-24.1-153.5c-2.9,12.7-6.9,25.1-12,37.1
		c-11.4,27-27.7,51.2-48.6,72c-17.1,17.1-36.5,31.2-57.9,42c0.4,21.8-8.6,42.8-24.3,58.1C428.8,597.6,535.9,712,475.9,661.6
		c-88.9-96.8-255-40.7-255-40.7c-46-80.4-151.5-64.3-181.1-57.9c-4.6,1-7.9,5.1-7.9,9.8V891C31.8,896.4,36.1,900.9,41.6,901z"/>
	<path d="M471.2,416.4c41.2,0,79.4-12.7,111-34.3c43.3-29.7,74.1-76.2,82.9-130.1c3.7-22.4,3.4-46-0.7-68.4
		c-17-91.3-97.1-160.4-193.3-160.4c-82.9,0-153.8,51.3-182.7,123.8c-9.1,22.9-13.9,48.1-13.9,72.8
		C274.6,328.4,362.6,416.4,471.2,416.4z M471.2,140.2c44,0,79.6,35.6,79.6,79.6c0,1.7-0.1,3.4-0.2,5.1c-1.3,20.9-10.7,39.6-25.1,53
		c-14.2,13.3-33.3,21.4-54.3,21.4c-26.5,0-49.9-12.9-64.4-32.8c-9.6-13.1-15.2-29.3-15.2-46.8c0-3.4,0.2-6.8,0.7-10.1
		C397.2,170.5,430.6,140.2,471.2,140.2z"/>
</g>
</svg>
