<?xml version="1.0" encoding="utf-8"?>
<!-- Generator: Adobe Illustrator 18.1.1, SVG Export Plug-In . SVG Version: 6.00 Build 0)  -->
<svg version="1.1" id="Capa_1" xmlns="http://www.w3.org/2000/svg" xmlns:xlink="http://www.w3.org/1999/xlink" x="0px" y="0px"
	 width="1000px" height="1000px" viewBox="0 0 1000 1000" enable-background="new 0 0 1000 1000" xml:space="preserve">
<g>
	<path d="M492,47.2c-154.7,0-280.1,125.4-280.1,280.1c0,176.4,167.6,378.4,167.6,378.4h234.9c0,0,157.8-202,157.8-378.4
		C772.1,172.6,646.7,47.2,492,47.2z M574.7,519.6c-14.1,14.8-33.1,25-54.9,29.7v7.5c0,13-10.6,23.6-23.6,23.6H486
		c-13,0-23.6-10.6-23.6-23.6v-8c-11.5-2.5-22.3-6.3-32.3-11.5c-13.3-6.8-24.8-17.9-34.3-32.9c-6.3-9.9-10.9-21.5-13.7-34.4
		c-1.4-6.3-0.1-12.6,3.5-18c3.6-5.3,9.3-9,15.6-10.1l10.2-1.8c1.3-0.2,2.7-0.4,4.1-0.4c10.8,0,20.2,7.3,22.8,17.8
		c2.7,10.6,6.3,18.8,10.7,24.5c9.9,12.7,26.4,20.3,44,20.3c3,0,6-0.2,8.9-0.7c12.6-1.9,23.7-7.8,31.5-16.6
		c8.2-9.3,12.4-21.2,12.4-35.2c0-11.7-2.8-21.1-8.3-27.9c-10.6-13-29.3-18.6-46.2-22.5c-22.3-5.1-42.5-10.2-62.9-21.6
		c-13.6-7.6-24.1-18.2-31.5-31.6c-7.3-13.3-10.9-28.4-10.9-45.1c0-29.6,10.7-54,31.8-72.5c11.6-10.1,27-17.4,44.7-21.2v-11.5
		c0-13,10.6-23.6,23.6-23.6h10.2c13,0,23.6,10.6,23.6,23.6v11.8c16.4,3.7,30.7,10.4,41.7,19.5c12.6,10.5,21.9,23.9,27.6,39.8
		c2.4,6.6,1.7,13.8-1.9,19.9c-3.6,6.1-9.8,10.2-16.8,11.3l-9.9,1.5c-1.2,0.2-2.3,0.3-3.5,0.3c-10.1,0-19.1-6.4-22.3-16
		c-2.2-6.4-5.1-11.7-8.6-15.6c-8.1-9.1-21-14.3-35.3-14.3c-15.4,0-29.8,5.9-38.6,15.8c-7.1,8-10.6,17.3-10.6,28.3
		c0,10.9,3,20,8.9,27.1c12.8,15.4,34.7,19.8,55.9,24.1c13.1,2.6,26.6,5.4,38.6,10.6c12.8,5.6,23.5,12.7,31.7,20.9
		c8.3,8.3,14.8,18.3,19.2,29.7c4.4,11.3,6.6,23.6,6.6,36.7C602.4,476,593.1,500.3,574.7,519.6z"/>
	<rect x="374" y="738.8" width="235.9" height="60.9"/>
	<path d="M374,845.3L374,845.3c0.6,64.7,53.1,116.9,117.9,116.9c64.8,0,117.4-52.2,117.9-116.9h0v-13.7H374V845.3z"/>
</g>
</svg>
