<?xml version="1.0" encoding="utf-8"?>
<!-- Generator: Adobe Illustrator 18.1.1, SVG Export Plug-In . SVG Version: 6.00 Build 0)  -->
<svg version="1.1" id="Capa_1" xmlns="http://www.w3.org/2000/svg" xmlns:xlink="http://www.w3.org/1999/xlink" x="0px" y="0px"
	 width="1000px" height="1000px" viewBox="0 0 1000 1000" enable-background="new 0 0 1000 1000" xml:space="preserve">
<g>
	<path d="M961.2,352.9c-0.3-3.9-0.7-7.8-1.2-11.6c-16.1-126.9-136-214.1-258.4-214.1c-23.1,0-46.4,3.1-69,9.7
		c-53.1,15.4-98,48.7-131.6,91.7c-33.6-43-78.4-76.3-131.6-91.7c-22.6-6.6-45.9-9.7-69-9.7C178,127.2,58.2,214.3,42,341.2
		c-0.5,3.9-0.9,7.7-1.2,11.6c-4.5,57.1,10,112.4,35.6,162.7h167.2l64.5-163.7c4.2-10.8,14.7-17.7,26.3-17.4
		c11.6,0.3,21.7,7.8,25.3,18.8l63,189.8l14.4,43.5l20.6-43.5l63-133.2c4.5-9.4,13.9-15.5,24.4-15.7c0.2,0,0.3,0,0.5,0
		c10.3,0,19.7,5.7,24.4,14.9l55.2,106.6h300.2C951.2,465.3,965.6,409.9,961.2,352.9z"/>
	<path d="M584.2,555.7l-6.5-12.6l-30.8-59.5l-28.2,59.5l-61,129c-4.6,9.6-14.3,15.7-24.8,15.7c-0.6,0-1.1,0-1.7-0.1
		c-11.2-0.7-20.9-8.1-24.4-18.8l-41.8-125.9l-33.4-100.5l-39.6,100.5l-4,10.1c-4.1,10.5-14.3,17.4-25.6,17.4H110.1
		c15,21,31.7,40.6,49.4,58.7c80.8,82.5,182.4,139.4,272.7,210.1c22.9,18,49.3,36.5,68.8,58.2c19.5-21.7,45.9-40.3,68.8-58.2
		c90.3-70.7,191.9-127.6,272.7-210.1c17.7-18,34.4-37.7,49.4-58.7H608.6C598.3,570.6,588.9,564.8,584.2,555.7z"/>
</g>
</svg>
