<?xml version="1.0" encoding="utf-8"?>
<!-- Generator: Adobe Illustrator 18.1.1, SVG Export Plug-In . SVG Version: 6.00 Build 0)  -->
<svg version="1.1" id="Capa_1" xmlns="http://www.w3.org/2000/svg" xmlns:xlink="http://www.w3.org/1999/xlink" x="0px" y="0px"
	 width="1000px" height="1000px" viewBox="0 0 1000 1000" enable-background="new 0 0 1000 1000" xml:space="preserve">
<g>
	<path d="M948.3,823V446.2c0-18.5-16.5-32.5-34.8-29.6c-81.5,12.9-148.1,70.4-174.2,146.7c-77.2-105.3-197.6-173.1-332.8-173.1
		c-157.1,0-294.2,91.4-366.8,227.1c-5.8,10.9-5.8,23.9,0,34.8C112.4,787.6,249.5,879,406.6,879c135.2,0,255.6-67.7,332.8-173.1
		c26,76.3,92.7,133.8,174.2,146.7C931.8,855.5,948.3,841.5,948.3,823z M243.9,619.2c-25.4,0-46-20.6-46-46c0-25.4,20.6-46,46-46
		s46,20.6,46,46C289.9,598.6,269.3,619.2,243.9,619.2z"/>
	<g>
		<path d="M334.5,338.5c2.1,1.9,4.4,3.6,6.9,5.1c-5.1-3.1,20.5-38.9,23.3-42.4c11.6-14.4,24.9-27.3,37.3-41
			c17-18.9,32.2-39.8,41.3-63.5c9.7-25.2,12.8-55.3,1.4-80.6c-4-8.9-11.5-19.5-20-24.7c4.1,2.6-19,37.1-21.4,40.5
			c-10.3,14.6-22,28.2-33.4,41.9c-19.8,23.8-39.4,48.9-48.8,78.4C312.7,278.4,312.4,318.5,334.5,338.5z"/>
		<path d="M550.5,338.5c2.1,1.9,4.4,3.6,6.9,5.1c-5.1-3.1,20.5-38.9,23.3-42.4c11.6-14.4,24.9-27.3,37.3-41
			c17-18.9,32.2-39.8,41.3-63.5c9.7-25.2,12.8-55.3,1.4-80.6c-4-8.9-11.5-19.5-20-24.7c4.1,2.6-19,37.1-21.4,40.5
			c-10.3,14.6-22,28.2-33.4,41.9c-19.8,23.8-39.4,48.9-48.8,78.4C528.7,278.4,528.4,318.5,550.5,338.5z"/>
	</g>
</g>
</svg>
