<?xml version="1.0" encoding="utf-8"?>
<!-- Generator: Adobe Illustrator 18.1.1, SVG Export Plug-In . SVG Version: 6.00 Build 0)  -->
<svg version="1.1" id="Capa_1" xmlns="http://www.w3.org/2000/svg" xmlns:xlink="http://www.w3.org/1999/xlink" x="0px" y="0px"
	 width="1000px" height="1000px" viewBox="0 0 1000 1000" enable-background="new 0 0 1000 1000" xml:space="preserve">
<g>
	<path d="M661.1,95.6V32.2c0-14.9-12.9-26.4-27.7-24.9C591.3,11.8,510.2,28.7,453.7,92c25.7,16.8,46.1,34.3,60.9,48.8
		C558.7,123.4,607.7,108.3,661.1,95.6z"/>
	<path d="M400.6,197.4c4-2.5,8-5,12.1-7.4c22-13,45.8-25.2,71.5-36.5c-12.9-11.8-29.3-25-49-37.6c-25.6-16.5-56.9-32-93.5-42.1
		c-2.7-0.8-5.4-1.1-8.1-1.1c-16.1,0-30,12.9-30,30v175C329.7,248.4,362.1,221.5,400.6,197.4z"/>
	<path d="M382.7,608.1L359,650.3c-7.3,13,1.6,29.1,16.5,29.8c4.8,0.2,10,0.4,15.5,0.4c23.2,0,51.5-2.6,76.6-12.1V958
		c0,18.5,15,33.5,33.5,33.5c18.5,0,33.5-15,33.5-33.5V668.3c25.1,9.5,53.4,12.1,76.6,12.1c5.5,0,10.7-0.1,15.5-0.4
		c14.9-0.7,23.8-16.8,16.5-29.8l-23.7-42.2c73-30.1,122.2-87.2,122.2-152.6c0-91.5-29.9-119.2-48.7-183.9
		c-11.6-39.9,2.3-91,14.6-124.2c5-13.4-5.2-27-18.6-27c-1.5,0-3,0.2-4.5,0.5c-8,1.8-15.8,3.6-23.5,5.5
		C567.6,149.2,473.3,182,394,237.8c-65.4,46-143.6,130-133.5,217.8C260.5,521,309.7,578,382.7,608.1z"/>
	<path d="M567.9,852.3c-0.5,12.3,8.2,23.1,20.3,25.4c48.6,9.2,172.3,13.9,210.5-163.9c3.3-15.4-8.3-30.1-24.1-30.3
		C592.8,681.3,569.8,802.9,567.9,852.3z"/>
	<path d="M413.2,938.5c12.8-2.1,21.8-13.5,21-26.4c-2.8-42.8-25-134.9-165.7-135.5c-16.1-0.1-28,14.9-24.4,30.6
		C276.1,944.1,370.9,945.3,413.2,938.5z"/>
</g>
</svg>
