<?xml version="1.0" encoding="utf-8"?>
<!-- Generator: Adobe Illustrator 18.1.1, SVG Export Plug-In . SVG Version: 6.00 Build 0)  -->
<svg version="1.1" id="Capa_1" xmlns="http://www.w3.org/2000/svg" xmlns:xlink="http://www.w3.org/1999/xlink" x="0px" y="0px"
	 width="1000px" height="1000px" viewBox="0 0 1000 1000" enable-background="new 0 0 1000 1000" xml:space="preserve">
<path d="M945.5,15.1L844,61.3c-6.5,3-12.5,7.1-17.6,12.2L661,239L91.4,170.7c-10.3-1.2-20.7,2.3-28,9.7l-31.7,31.7
	c-16.8,16.8-11.6,45.2,10.1,54.9L450,450L332.8,567.2l-204.7,0c-9,0-17.6,3.6-24,9.9L87,594.3c-17,17-11.4,45.7,10.6,55.1l172.7,74
	l74,172.7c9.4,22,38.2,27.6,55.1,10.6l17.2-17.2c6.4-6.4,9.9-15,9.9-24l0-204.7l117.2-117.2l183,408.3c9.7,21.7,38.1,26.9,54.9,10.1
	l31.7-31.7c7.4-7.4,10.9-17.7,9.7-28l-68.4-569.6l165.5-165.5c5.1-5.1,9.2-11,12.2-17.6l46.2-101.5C988.2,27.2,966.6,5.5,945.5,15.1
	z"/>
</svg>
