<?xml version="1.0" encoding="utf-8"?>
<!-- Generator: Adobe Illustrator 18.1.1, SVG Export Plug-In . SVG Version: 6.00 Build 0)  -->
<svg version="1.1" id="Capa_1" xmlns="http://www.w3.org/2000/svg" xmlns:xlink="http://www.w3.org/1999/xlink" x="0px" y="0px"
	 width="1000px" height="1000px" viewBox="0 0 1000 1000" enable-background="new 0 0 1000 1000" xml:space="preserve">
<g>
	<path d="M397.9,608.9c4,12.4,15.5,20.7,28.5,20.7h149c13,0,24.5-8.4,28.5-20.7l46.1-141.7c4-12.4-0.4-25.9-10.9-33.5L518.6,346
		c-10.5-7.6-24.8-7.6-35.3,0l-120.6,87.6c-10.5,7.6-14.9,21.2-10.9,33.5L397.9,608.9z"/>
	<path d="M172.7,822.7c42.6,42.6,92.3,76.1,147.6,99.5c57.3,24.2,118.1,36.5,180.7,36.5s123.5-12.3,180.7-36.5
		c55.3-23.4,104.9-56.9,147.6-99.5c42.6-42.6,76.1-92.3,99.5-147.6c24.2-57.3,36.5-118.1,36.5-180.7c0-62.7-12.3-123.5-36.5-180.7
		c-23.4-55.3-56.9-104.9-99.5-147.6C786.7,123.5,737,90,681.7,66.6C624.5,42.4,563.7,30.1,501,30.1S377.5,42.4,320.3,66.6
		C265,90,215.3,123.5,172.7,166.1c-42.6,42.6-76.1,92.3-99.5,147.6C49,370.9,36.7,431.8,36.7,494.4c0,62.7,12.3,123.5,36.5,180.7
		C96.6,730.5,130.1,780.1,172.7,822.7z M225.7,219.1c40.6-40.6,88.6-71.1,141-90.3l-10.5,22.7c-6.9,14.7-0.7,32.3,13.8,39.5
		l116.5,58c8.5,4.2,18.5,4.2,26.9-0.1l116-58.9C644,182.6,650,165,643,150.3l-10.7-22.6c53.5,19.1,102.6,50,144,91.4
		c7.9,7.9,15.4,16,22.5,24.4l-24.7-2.2c-16.2-1.4-30.6,10.3-32.4,26.5l-14.8,129.3c-1.1,9.4,2.4,18.8,9.3,25.3l94.9,89
		c11.9,11.1,30.4,10.8,41.9-0.8l17.4-17.6c0,0.4,0,0.9,0,1.3c0,76.1-21.7,149-62.2,211.4l-5.2-24.4c-3.4-15.9-18.8-26.2-34.8-23.2
		l-128,23.7c-9.3,1.7-17.3,7.8-21.5,16.3L581.4,815c-7.2,14.6-1.4,32.2,13,39.8l22.1,11.6c-36.9,11.4-75.8,17.3-115.5,17.3
		s-78.6-5.9-115.5-17.3l22.1-11.6c14.4-7.5,20.2-25.2,13-39.8l-57.3-116.8c-4.2-8.5-12.1-14.6-21.5-16.3l-128-23.7
		c-16-3-31.4,7.3-34.8,23.2l-5.2,24.4c-40.5-62.4-62.2-135.2-62.2-211.4c0-0.4,0-0.9,0-1.3l17.4,17.6c11.4,11.6,30,11.9,41.9,0.8
		l94.9-89c6.9-6.5,10.4-15.9,9.3-25.3l-14.8-129.3c-1.8-16.2-16.2-27.9-32.4-26.5l-24.7,2.2C210.3,235.2,217.8,227,225.7,219.1z"/>
</g>
</svg>
