<?xml version="1.0" encoding="utf-8"?>
<!-- Generator: Adobe Illustrator 18.1.1, SVG Export Plug-In . SVG Version: 6.00 Build 0)  -->
<svg version="1.1" id="Capa_1" xmlns="http://www.w3.org/2000/svg" xmlns:xlink="http://www.w3.org/1999/xlink" x="0px" y="0px"
	 width="1000px" height="1000px" viewBox="0 0 1000 1000" enable-background="new 0 0 1000 1000" xml:space="preserve">
<g>
	<path d="M655.3,216.4c-126.5,0-236.3,71.8-290.9,176.8c18,4,35.6,9.7,52.8,16.9c36.9,15.6,70.1,38,98.5,66.4
		c28.5,28.5,50.8,61.6,66.4,98.5c16.2,38.2,24.4,78.8,24.4,120.7s-8.2,82.4-24.4,120.7c-6.1,14.4-13.2,28.2-21.3,41.4
		c29.9,9,61.6,13.9,94.5,13.9c180.9,0,327.6-146.7,327.6-327.6C982.9,363.1,836.3,216.4,655.3,216.4z"/>
	<path d="M411.4,38.2c0.8,52.6,26.8,104,74.2,135c47.4,31,104.8,34.4,153.4,14.1c-0.8-52.6-26.8-104-74.2-135
		C517.4,21.2,459.9,17.8,411.4,38.2z"/>
	<path d="M673.4,188.2c31.3,13.1,68.2,10.9,98.7-9c30.5-20,47.2-53,47.7-86.9c-31.3-13.1-68.2-10.9-98.7,9
		C690.6,121.3,673.9,154.4,673.4,188.2z"/>
	<path d="M339.3,721.2L444,846.1c9.9-9.7,18.7-20.3,26.4-31.6c16.3-23.9,27.6-51,33-79.6c-54.7-4.6-93.7-7.8-121.4-10.1
		C362.9,723.1,349.1,722,339.3,721.2z"/>
	<path d="M86.4,697.4c0.2,54.2,21.3,95.1,37.8,118.8l124.1-104.1L86.4,697.4z"/>
	<path d="M294.7,485.9c-42.9,0.7-85.9,14.7-120.1,39l105.6,125.9L294.7,485.9z"/>
	<path d="M343,682.9l16.3,1.4l147.6,12.9c-0.4-45.6-13-86.4-37.5-121.4c-37.9,32-85.2,72.1-115.1,97.4
		C350.2,676.9,346.4,680.1,343,682.9z"/>
	<path d="M296.6,975.7c98.7,0,185.4-51.1,235.3-128.2c28.3-43.7,44.7-95.8,44.7-151.8c0-135.8-96.7-249-225-274.6
		c-17.8-3.5-36.2-5.4-55-5.4c-154.6,0-280,125.4-280,280C16.6,850.3,141.9,975.7,296.6,975.7z M296.6,452.8c14.7,0,29,1.3,43,3.8
		c113.6,20.3,199.9,119.6,199.9,239.1c0,50.3-15.3,97-41.4,135.7c-43.6,64.7-117.6,107.2-201.5,107.2
		c-134.1,0-242.9-108.7-242.9-242.9S162.4,452.8,296.6,452.8z"/>
	<path d="M258,902.8l14.2-161.5L148.4,845.1C178.4,874.9,216.7,895.1,258,902.8z"/>
	<path d="M146,549.3c-29.6,30.5-49.3,69.2-56.5,110.8l161.8,14.8L146,549.3z"/>
	<path d="M414.9,870.1L309.7,744.5l-14.2,161.8c0.1,0,0.1,0,0.2,0C350.5,906.4,391.5,885.8,414.9,870.1z"/>
	<path d="M445.2,547c-30.8-30.6-70.2-51-112.8-58.3c-0.1,0-0.2,0-0.2,0l-0.3,3.2l-4.1,46.7l-10.1,115.2c6.4-5.3,14.1-11.8,22.7-19
		C371.7,608.6,414.3,572.8,445.2,547z"/>
</g>
</svg>
