<?xml version="1.0" encoding="utf-8"?>
<!-- Generator: Adobe Illustrator 18.1.1, SVG Export Plug-In . SVG Version: 6.00 Build 0)  -->
<svg version="1.1" id="Capa_1" xmlns="http://www.w3.org/2000/svg" xmlns:xlink="http://www.w3.org/1999/xlink" x="0px" y="0px"
	 width="1000px" height="1000px" viewBox="0 0 1000 1000" enable-background="new 0 0 1000 1000" xml:space="preserve">
<g>
	<path d="M472.5,186.5c3.9-6.6,5.5-16.3,3.1-23.7c-2.4-7.4-7-14.6-14.1-18.4c-6.8-3.6-16.2-6.2-23.7-3.1
		c-37.8,15.5-72.1,38.6-98.3,70.3c-22.6,27.3-39.9,58.9-49.3,93c-0.7,2.6,0.3,5.3,2.4,6.8c6.1,4.2,11.8,8.9,17.1,14
		c2.4,2.3,6.3,2.4,8.7,0.1c7.2-6.9,15.1-13,23.6-18.3c4.7-2.9,9.7-5.6,14.8-8c0.1-0.2,0.2-0.4,0.2-0.6c6.4-14.4,14.4-28,23.7-40.7
		c10-12.4,21.3-23.7,33.8-33.7c13.2-9.8,40.7-23.8,42.3-24.6l0.2-0.1C463.4,196.5,468.7,193,472.5,186.5z"/>
	<path d="M931.9,252.4c-2.8-6.7-10.4-11-17-13c-6.9-2.1-14.3-0.5-20.6,2.7c-6.2,3.2-11.3,10.3-13,17c-1.7,6.6-0.6,12.2,1.7,18.1
		c22,54.2,12.7,117.6-21.5,164.4c-1.4,1.8-2.9,3.5-4.4,5.3c-1.1,1.2-1.6,2.8-1.5,4.4c0.5,10.1-0.7,20.1-3.4,29.8
		c-1.4,4.7,2.9,9.1,7.6,7.8c0,0,0.1,0,0.1,0c7.6-2,15.3-3,23.1-3c3,0,6,0.2,9,0.4c2,0.2,4-0.6,5.3-2.1c5-5.8,9.7-11.9,14.1-18.3
		c22.2-31.4,34.6-68.6,38.2-106.7C953.1,322.5,946,286.1,931.9,252.4z"/>
	<path d="M249.4,792.2c20.4,0,44.4-3.2,60.6-16.8c2.3-2,5.7-2,8-0.1c9.1,7.6,21.7,13,39.2,15.4c7.3,1,14.4,1.5,21.5,1.5
		c17.6,0,34.3-3.1,50.1-8.7c1.4-0.5,2.5-1.5,3.3-2.8c11.9-20.3,31.5-36,56-42.4l0.2-0.1c4.7-1.2,6.3-7.1,2.8-10.5
		c-11.4-11.3-19.9-25.7-24.2-42c-6.2-23.7-2.7-48.4,9.7-69.5c12.4-21.2,32.3-36.2,56-42.4c0.1,0,0.1,0,0.2,0
		c4.8-1.2,6.3-7.1,2.9-10.6c-11.4-11.3-19.9-25.6-24.1-42c-11.4-44,11.2-89,51.5-106.9c3.1-1.4,4.5-5,3.2-8.1
		c-22.8-54.4-68-92.2-140.1-92.2c-32.2,0-60.2,10.3-81.5,28.1c-10.1,8.4-18.6,18.6-25.3,30.1c-2.4,4.1-8.3,4.1-10.7,0
		c-6.8-11.7-15.5-21.9-25.7-30.5c-21.2-17.6-49.1-27.7-81-27.7C-54.4,314.1,29.4,792.2,249.4,792.2z"/>
	<path d="M173.9,110.1c-7.7-0.2-14.3,5.4-15.4,13c-4.7,35.5-5.7,130.8,121.9,121.8c7.7-0.5,13.8-6.9,13.9-14.7
		C295,197,285.3,113.2,173.9,110.1z"/>
	<path d="M859.4,337.8c0.6-33.3-9-117-120.4-120.2c-7.7-0.2-14.3,5.4-15.4,13c-4.7,35.5-5.7,130.8,121.9,121.8
		C853.3,351.9,859.3,345.5,859.4,337.8z"/>
	<path d="M903.2,725.2c-7.7-29.4-34.2-50-64.6-50c-5.6,0-11.3,0.7-16.8,2.2c-17.2,4.5-31.7,15.4-40.7,30.8
		c-9,15.4-11.6,33.4-7.1,50.6c7.7,29.4,34.2,50,64.6,50c5.6,0,11.3-0.7,16.8-2.2C890.9,797.4,912.4,760.9,903.2,725.2z"/>
	<path d="M674.9,717.8c-5.6,0-11.3,0.7-16.8,2.2c-35.6,9.3-57.1,45.8-47.8,81.4c7.7,29.4,34.2,50,64.6,50c5.6,0,11.3-0.7,16.8-2.2
		c17.2-4.5,31.7-15.4,40.7-30.8c9-15.4,11.6-33.4,7.1-50.6C731.8,738.4,705.3,717.8,674.9,717.8z"/>
	<path d="M777,653.9c9-15.4,11.6-33.4,7.1-50.6c-7.7-29.4-34.2-50-64.6-50c-5.6,0-11.3,0.7-16.8,2.2c-35.6,9.3-57.1,45.8-47.8,81.4
		c7.7,29.4,34.2,50,64.6,50c5.6,0,11.3-0.7,16.8-2.2C753.5,680.3,768,669.3,777,653.9z"/>
	<path d="M606.1,431.7c-9.5-0.8-21,0.9-29.9,4.3c-31.1,12.1-49,46-40.4,79c5.9,22.5,22.8,39.8,44,46.7c12,3.9,25.1,4.3,37.4,1.1
		c17.2-4.5,31.7-15.4,40.7-30.8c9-15.4,11.6-33.4,7.1-50.6C657.8,453.8,634,434,606.1,431.7z"/>
	<path d="M940.6,611.4c9-15.4,11.5-33.4,7.1-50.6c-7.7-29.4-34.2-50-64.6-50c-12.6,0-26.5,4.2-36.9,11.2c-23,15.4-35,44.1-27.6,72.4
		c7.7,29.4,34.2,50,64.6,50c5.6,0,11.3-0.7,16.8-2.2C917.1,637.7,931.6,626.7,940.6,611.4z"/>
	<path d="M821.1,489.1c8.8-14.6,12.2-32.5,7.6-50.3c-7.7-29.4-34.2-50-64.6-50c-5.6,0-11.3,0.7-16.8,2.2
		c-17.2,4.5-31.7,15.4-40.7,30.8c-9,15.4-11.6,33.4-7.1,50.6c7.7,29.4,34.2,50,64.6,50C788.1,522.4,809.3,508.7,821.1,489.1z"/>
	<path d="M498.3,628.9c-9,15.4-11.6,33.4-7.1,50.6c14.5,55.8,92.7,67.2,122.1,17c9-15.4,11.6-33.4,7.1-50.6
		c-9-34.7-46.4-56.9-81.4-47.8C521.8,602.6,507.3,613.5,498.3,628.9z"/>
	<path d="M492.5,763.2c-32.5,10.1-55,45.7-45.9,80.7c7.7,29.4,34.2,50,64.6,50c5.6,0,11.3-0.7,16.8-2.2
		c17.2-4.5,31.7-15.4,40.7-30.8c9-15.4,11.5-33.4,7.1-50.6c-7.5-29-34.7-50-64.6-50C504.7,760.4,498.4,761.4,492.5,763.2z"/>
</g>
</svg>
