<?xml version="1.0" encoding="utf-8"?>
<!-- Generator: Adobe Illustrator 18.1.1, SVG Export Plug-In . SVG Version: 6.00 Build 0)  -->
<svg version="1.1" id="Capa_1" xmlns="http://www.w3.org/2000/svg" xmlns:xlink="http://www.w3.org/1999/xlink" x="0px" y="0px"
	 width="1000px" height="1000px" viewBox="0 0 1000 1000" enable-background="new 0 0 1000 1000" xml:space="preserve">
<path d="M765.6,28.8c-26.4-11.7-54.4-17.6-83.1-17.6c-74.5,0-142.7,40.3-178.8,104.3L330.6,363.5l53.4,37.1l97.8-140.2
	c2.2,10.1,5.3,20.2,9.1,30.1c19.8,51.2,58.2,91.6,108.4,113.8c26.4,11.7,54.4,17.6,83.1,17.6c36.7,0,71.9-9.8,102.4-27.4
	l-38.1,166.7l63.3,14.7L877.4,281C910.3,182,863,71.9,765.6,28.8z M682.4,357.7c-77.8,0-141-63.1-141-141c0-77.8,63.1-141,141-141
	c77.8,0,141,63.1,141,141C823.4,294.6,760.3,357.7,682.4,357.7z"/>
<path d="M375.2,431l-71.9-49.9c-6.7-4.7-14.4-6.9-22.1-6.9c-12.3,0-24.4,5.8-31.9,16.7l-165.1,238c-12.2,17.6-7.8,41.8,9.8,54
	l71.9,49.9c6.7,4.7,14.4,6.9,22.1,6.9c12.3,0,24.4-5.8,31.9-16.7l165.1-238C397.1,467.4,392.8,443.2,375.2,431z"/>
<path d="M815.3,608L730,588.2c-2.9-0.7-5.9-1-8.8-1c-17.6,0-33.6,12.1-37.7,30l-65.3,282.2c-4.8,20.9,8.2,41.7,29,46.5l85.3,19.7
	c2.9,0.7,5.9,1,8.8,1c17.6,0,33.6-12.1,37.7-30l65.3-282.2C849.2,633.6,836.2,612.8,815.3,608z"/>
</svg>
