<?xml version="1.0" encoding="utf-8"?>
<!-- Generator: Adobe Illustrator 18.1.1, SVG Export Plug-In . SVG Version: 6.00 Build 0)  -->
<svg version="1.1" id="Capa_1" xmlns="http://www.w3.org/2000/svg" xmlns:xlink="http://www.w3.org/1999/xlink" x="0px" y="0px"
	 width="1000px" height="1000px" viewBox="0 0 1000 1000" enable-background="new 0 0 1000 1000" xml:space="preserve">
<g>
	<path d="M931.6,278c17.2-3.2,22.2-25.5,8-35.8c-24.2-17.6-55.3-35-78.6-29.8l48.4-120.3c6.6-16.3-9.7-32.6-26-26L763,114.4
		c5.2-23.3-12.2-54.4-29.8-78.6c-10.3-14.1-32.6-9.2-35.8,8c-9.2,49.5-32.2,105.2-43.9,131.5c12.9,8.3,25,18.1,36.2,29.2l81.2,81.2
		c11.2,11.2,20.9,23.2,29.3,36.2C826.4,310.2,882.1,287.2,931.6,278z"/>
	<path d="M743.8,312.8l-81.2-81.2c-35.4-35.4-81-52.4-126.2-52.4c-61.7,0-122.7,31.7-156.2,91.3L291,429l96.8,159.6l-139.1-84.4
		L52.5,853.3C31.9,890,61,929.8,96.8,929.8c8.2,0,16.8-2.1,25.3-6.8l152.5-85.7l-51.2-95l112.4,60.6l313.4-176.1l-86-150.2
		l171.3,98.1C811.1,508.5,818.8,387.9,743.8,312.8z"/>
</g>
</svg>
