<?xml version="1.0" encoding="utf-8"?>
<!-- Generator: Adobe Illustrator 18.1.1, SVG Export Plug-In . SVG Version: 6.00 Build 0)  -->
<svg version="1.1" id="Capa_1" xmlns="http://www.w3.org/2000/svg" xmlns:xlink="http://www.w3.org/1999/xlink" x="0px" y="0px"
	 width="1000px" height="1000px" viewBox="0 0 1000 1000" enable-background="new 0 0 1000 1000" xml:space="preserve">
<g>
	<path d="M196.5,643.3l2.4-0.7c97-26.2,181.6-59.8,251.2-99.8c94.5-54.3,159.4-119.5,193-193.8l16-35.4l-28.7,26.2
		c-57,52.1-134.8,91-231.4,115.8c-81.9,21-176,31.7-279.8,31.7c-5.4,0-17.4-0.1-24.6-0.2l-16.9-0.8c-13.3-0.6-25.4,7.6-29.8,20.2
		l-6.6,19.1c-3.9,11.3-0.7,23.9,8.2,32c7.4,6.7,14.9,13.2,14.9,13.2s56,48.5,129.6,71.7L196.5,643.3z"/>
	<path d="M849.8,187.5c-29.1-13.4-56.9-15.4-70.9-15.4c-1.8,0-3.5,0-4.9,0.1c-3.2-11.2-19.4-78.1-30.7-124.9
		c-5.2-21.5-31.1-30.2-48.2-16.1l-53.6,44.2c-14,11.5-16.9,31.7-6.7,46.7c22.4,32.9,59.5,91.7,77.7,144.8
		c17.2,50.3,18.7,102.9,10.5,154.6c-13.4,83.7-57.6,168.2-131.4,251.2c-40.2,45.2-84.7,86.4-132.2,123.7
		c-23.8,18.7-48.4,36.4-73.7,53c-2.6,1.7-32.7,19.4-53.6,30.2c-11.7,6-18.1,19-15.8,31.9l2.5,14c2.4,13.4,13.5,23.5,27,24.6
		c34.3,2.9,105.1,4.8,199.7-13.9c51.8-10.2,101.8-34.5,148.2-62.1c78.1-46.6,182.8-131.4,238.1-271c24.7-62.3,35.2-126.7,31.2-191.6
		c-3.9-63.8-20.7-112.4-34.1-142C911.6,231.1,885,203.6,849.8,187.5z"/>
	<path d="M147.4,769.3c13.1,8.1,34.4,19.8,60.3,28.4c44.5,14.8,91.8,21.2,138.5,22.7c0,0,2.6,0.1,2.6,0.1l2.1-1.4
		c34.5-23.1,67.3-47.3,97.6-71.9c37.7-30.7,71.5-62.2,100.5-93.6c26.3-28.5,50.6-58.9,71.4-91.6c18.2-28.6,33.7-59.1,44.8-91.2
		c5.2-15,9.5-30.4,12.4-46.1c3-15.9,4.4-32.1,6.5-48.2c0.4-3.2,0.8-6.3,1.2-9.5l-19.9,33.9c-41.7,71.2-110.5,133.7-204.6,186
		C399.6,621,334,647,267.2,668.1c-36.4,11.5-71.6,21.6-108.6,27.3c-14.6,2.2-25.3,14.8-25.3,29.6c0,6.4,0,13.1,0,18.9
		C133.3,754.2,138.6,763.8,147.4,769.3z"/>
</g>
</svg>
