<?xml version="1.0" encoding="utf-8"?>
<!-- Generator: Adobe Illustrator 18.1.1, SVG Export Plug-In . SVG Version: 6.00 Build 0)  -->
<svg version="1.1" id="Capa_1" xmlns="http://www.w3.org/2000/svg" xmlns:xlink="http://www.w3.org/1999/xlink" x="0px" y="0px"
	 width="1000px" height="1000px" viewBox="0 0 1000 1000" enable-background="new 0 0 1000 1000" xml:space="preserve">
<g>
	<path d="M984.4,314.9c0-34.5-28-62.5-62.5-62.5H734.8L699,128c-3.4-11.8-14.2-19.9-26.4-19.9h-155c-11,0-20,9-20,20v15
		c0,11,9,20,20,20h134.3l25.7,89.2h-89.7c-34.5,0-62.5,28-62.5,62.5v214h55v-214c0-4.1,3.4-7.5,7.5-7.5h105.5l25.6,89h-65.8
		c-16.6,0-30,13.4-30,30v102.5h161.4c15.9,0,30.6,6.4,41.4,18c10.8,11.6,16.4,27.4,15.2,43.3c-7.9,107.6-55.8,207.6-134.9,281.5
		c-8.8,8.2-17.9,16-27.3,23.4c-10.7,8.5-21.8,16.4-33.3,23.7c-18.5,11.9-37.9,22.4-57.9,31.3c0,0,0,0,0,0h334
		c34.5,0,62.5-28,62.5-62.5V314.9z M776.2,396.4l-25.6-89h171.3c4.1,0,7.5,3.4,7.5,7.5v81.5H776.2z"/>
	<path d="M414.1,871.2c39.1,0,76.6-7,111.2-19.7c19.3-7.1,37.7-16,55-26.4c15.2-9.2,29.5-19.6,42.9-31.1
		c66.6-57.3,108.6-141.4,108.6-235.1H96.4C96.4,731.4,238.7,871.2,414.1,871.2z M580.4,629.3l22.8,17.2c12.8,9.6,15.3,27.8,5.7,40.6
		c-6.8,9.1-18,13-28.5,11c-4.3-0.8-8.4-2.6-12.1-5.3c-7.5-5.6-11.4-14.3-11.5-23l-0.3-58.5L580.4,629.3z M402.7,660.9l26-52.4
		l26,52.4c7.1,14.3,1.2,31.7-13.1,38.8c-14.3,7.1-31.7,1.2-38.8-13.1C398.6,678.3,398.9,668.7,402.7,660.9z M254.2,646.5l46.7-35.2
		l-0.3,58.5c-0.1,16-13.1,28.9-29.1,28.9c-16-0.1-28.9-13.1-28.9-29.1C242.7,660.2,247.3,651.8,254.2,646.5z"/>
	<path d="M414.1,956.8c46.4,0,90.9-7.9,132.3-22.5c27.1-9.5,52.8-21.9,76.8-36.8c1.3-0.8,2.6-1.6,3.9-2.5
		C730.7,829.4,801.9,717.3,811.3,588c1.2-15.9-11.5-29.5-27.5-29.5H767c-1.6,114.5-57.8,215.9-143.7,279.2
		c-13.6,10-27.9,19.1-42.9,27.1c-17.5,9.4-35.9,17.3-55,23.6c-35,11.6-72.4,17.9-111.3,17.9c-193.2,0-350.1-155.3-352.8-347.8H44.4
		c-16,0-28.6,13.5-27.5,29.5C32,794.2,204.1,956.8,414.1,956.8z"/>
</g>
</svg>
