<?xml version="1.0" encoding="utf-8"?>
<!-- Generator: Adobe Illustrator 18.1.1, SVG Export Plug-In . SVG Version: 6.00 Build 0)  -->
<svg version="1.1" id="Capa_1" xmlns="http://www.w3.org/2000/svg" xmlns:xlink="http://www.w3.org/1999/xlink" x="0px" y="0px"
	 width="1000px" height="1000px" viewBox="0 0 1000 1000" enable-background="new 0 0 1000 1000" xml:space="preserve">
<g>
	<path d="M829.5,921.7v-79.3c-16.4,9.3-35,14.2-54.4,14.2c-17.4,0-34.8-4.2-50.2-12c-6.5-3.3-12.6-7.2-18.3-11.7
		c-5.7,4.5-11.9,8.4-18.3,11.7c-15.4,7.9-32.8,12-50.2,12c-17.4,0-34.8-4.2-50.2-12c-6.5-3.3-12.6-7.2-18.3-11.7
		c-5.7,4.5-11.9,8.4-18.3,11.7c-15.4,7.9-32.8,12-50.2,12c-17.4,0-34.8-4.2-50.2-12c-6.5-3.3-12.6-7.2-18.3-11.7
		c-5.7,4.5-11.9,8.4-18.3,11.7c-15.4,7.9-32.8,12-50.2,12s-34.8-4.2-50.2-12c-6.5-3.3-12.6-7.2-18.3-11.7
		c-5.7,4.5-11.9,8.4-18.3,11.7c-15.4,7.9-32.8,12-50.2,12c-19.4,0-38-4.9-54.4-14.2v79.3c0,21.8,17.7,39.5,39.5,39.5h578
		C811.8,961.2,829.5,943.5,829.5,921.7z"/>
	<path d="M171.5,811.3c0.2,0.1,0.3,0.3,0.5,0.4c0.2,0.1,0.3,0.3,0.5,0.4c14.8,12.1,33.7,19.4,54.4,19.4c28,0,52.8-13.4,68.5-34.1
		c15.7,20.7,40.5,34.1,68.5,34.1c28,0,52.8-13.4,68.5-34.1c15.7,20.7,40.5,34.1,68.5,34.1s52.8-13.4,68.5-34.1
		c15.7,20.7,40.5,34.1,68.5,34.1c28,0,52.8-13.4,68.5-34.1c15.7,20.7,40.5,34.1,68.5,34.1c20.6,0,39.6-7.3,54.4-19.4
		c0.2-0.1,0.3-0.3,0.5-0.4c0.2-0.1,0.3-0.3,0.5-0.4c18.6-15.8,30.5-39.3,30.5-65.6c0-43.1-31.8-78.8-73.2-84.9V551.2
		c-14.4,7.4-30.6,11.6-47.8,11.6c-16.5,0-32.9-3.9-47.5-11.4c-4.2-2.2-8.3-4.6-12.2-7.3c-3.9,2.7-8,5.2-12.2,7.3
		c-14.6,7.4-31,11.4-47.5,11.4c-16.5,0-32.9-3.9-47.5-11.4c-4.2-2.2-8.3-4.6-12.2-7.3c-3.9,2.7-8,5.2-12.2,7.3
		c-14.6,7.4-31,11.4-47.5,11.4c-16.5,0-32.9-3.9-47.5-11.4c-4.2-2.2-8.3-4.6-12.2-7.3c-3.9,2.7-8,5.2-12.2,7.3
		c-14.6,7.4-31,11.4-47.5,11.4c-16.5,0-32.9-3.9-47.5-11.4c-4.2-2.2-8.3-4.6-12.2-7.3c-3.9,2.7-8,5.2-12.2,7.3
		c-14.6,7.4-31,11.4-47.5,11.4c-17.2,0-33.5-4.2-47.8-11.6v109.6c-41.4,6.1-73.2,41.8-73.2,84.9C141,772,152.9,795.6,171.5,811.3z"
		/>
	<path d="M262,383c-41.4,0-74.9,33.5-74.9,74.9c0,23.2,10.5,43.8,27,57.6c13,10.8,29.7,17.3,47.8,17.3c24.4,0,46.1-11.7,59.7-29.7
		c13.7,18.1,35.3,29.7,59.7,29.7c24.4,0,46.1-11.7,59.7-29.7c13.7,18.1,35.3,29.7,59.7,29.7c24.4,0,46.1-11.7,59.7-29.7
		c13.7,18.1,35.3,29.7,59.7,29.7c24.4,0,46.1-11.7,59.7-29.7c13.7,18.1,35.3,29.7,59.7,29.7c18.2,0,34.9-6.5,47.8-17.3
		c16.5-13.7,27-34.4,27-57.6c0-41.4-33.5-74.9-74.9-74.9C715.6,383,286.4,383,262,383z"/>
	<path d="M610.2,350.8c86.3-13.7,130.6-53.5,142.1-80c0.6-1.3,0.9-2,0.9-2c13-30-0.8-64.9-30.8-77.9c-19.4-8.4-40.9-5.6-57.1,5.6
		c-3-19.5-15.6-37.1-35-45.5c-30-13-64.9,0.8-77.9,30.8c0,0-0.3,0.7-0.8,2c-11.5,26.5-10.1,86,39,158.3
		C594.9,348.7,602.6,352,610.2,350.8z"/>
	<path d="M180.4,217.6C199.4,261.5,274,328,419.7,349c7.5,1.1,14.9-2.1,19.2-8.3C523.4,220,526,120.2,507,76.3
		c-0.9-2.1-1.4-3.3-1.4-3.3C484.6,24.2,427.8,1.7,379,22.8c-31.6,13.7-52.1,42.2-57,73.9c-26.4-18.2-61.3-22.7-92.9-9.1
		c-48.8,21.1-71.3,77.8-50.2,126.7C178.9,214.4,179.5,215.5,180.4,217.6z"/>
</g>
</svg>
