<?xml version="1.0" encoding="utf-8"?>
<!-- Generator: Adobe Illustrator 18.1.1, SVG Export Plug-In . SVG Version: 6.00 Build 0)  -->
<svg version="1.1" id="Capa_1" xmlns="http://www.w3.org/2000/svg" xmlns:xlink="http://www.w3.org/1999/xlink" x="0px" y="0px"
	 width="1000px" height="1000px" viewBox="0 0 1000 1000" enable-background="new 0 0 1000 1000" xml:space="preserve">
<g>
	<path d="M748,72.7c0-24.9-20.1-45-45-45H307.2c-24.9,0-45,20.1-45,45V151H748V72.7z"/>
	<path d="M262.2,919.7c0,24.9,20.1,45,45,45H703c24.9,0,45-20.1,45-45v-78.3H262.2V919.7z"/>
	<path d="M214,181.7c-24.9,0-45,20.1-45,45v539c0,24.9,20.1,45,45,45h48.2H748h48.2c24.9,0,45-20.1,45-45v-539c0-24.9-20.1-45-45-45
		H748H262.2H214z M307.5,427.7c0.1-1.7,0.3-3.3,0.5-5c8.2-64.8,79.5-105.5,140.6-87.8c22.8,6.6,42.1,20.9,56.5,39.4
		c14.4-18.4,33.7-32.8,56.5-39.4c61.1-17.7,132.4,23,140.6,87.8c0.2,1.7,0.4,3.3,0.5,5c3.5,45-20.4,87.4-50.9,118.7
		c-34.7,35.4-78.3,59.9-117.1,90.2c-9.9,7.7-21.2,15.7-29.5,25c-8.4-9.3-19.7-17.3-29.5-25c-38.8-30.4-82.4-54.8-117.1-90.2
		C327.8,515.1,304,472.7,307.5,427.7z"/>
</g>
</svg>
