<?xml version="1.0" encoding="utf-8"?>
<!-- Generator: Adobe Illustrator 18.1.1, SVG Export Plug-In . SVG Version: 6.00 Build 0)  -->
<svg version="1.1" id="Capa_1" xmlns="http://www.w3.org/2000/svg" xmlns:xlink="http://www.w3.org/1999/xlink" x="0px" y="0px"
	 width="1000px" height="1000px" viewBox="0 0 1000 1000" enable-background="new 0 0 1000 1000" xml:space="preserve">
<g>
	<path d="M110,187.2c0,13.8,11.2,25,25,25h153.7l19.1,86.7h61.4l-28.1-127.1c-2.5-11.5-12.7-19.6-24.4-19.6H135
		c-13.8,0-25,11.2-25,25V187.2z"/>
	<path d="M711,200.7c-0.4-1.9-1.3-4.4-2.7-7.1L603.1,298.9h84.9l62.9-62.9c-2.7-1.4-5.2-2.3-7.1-2.7
		C727.3,229.9,714.5,217.1,711,200.7z"/>
	<path d="M875.5,310.6c3.8,0,7.7-2.2,9.4-6.2c33.6-80.8-22-222.9-22-222.9s-83.7-32.8-159.2-32.8c-22.8,0-44.9,3-63.7,10.8
		c-7.4,3.1-8.5,13.2-1.7,17.6c5.2,3.4,10.3,7.5,15.1,12.3c11.8,11.8,19.5,25.4,22,37.4c0.8,3.9,3.9,7,7.8,7.8
		c12,2.5,25.6,10.1,37.4,22c11.8,11.8,19.5,25.4,22,37.4c0.8,3.9,3.9,7,7.8,7.8c12,2.5,25.6,10.1,37.4,22
		c11.8,11.8,19.5,25.4,22,37.4c0.8,3.9,3.9,7,7.8,7.8c12,2.5,25.6,10.1,37.4,22c4.8,4.8,8.9,9.9,12.3,15.1
		C869.2,309.2,872.3,310.6,875.5,310.6z"/>
	<path d="M228.5,328.9c-11.8,0-22.8,6-29.3,15.9C161.8,401.6,140,469.7,140,542.9c0,144.2,84.6,268.7,206.8,326.5
		c24.4,13.6,58.5,33.3,90.2,54.2c19.4,12.8,41.7,19.3,64,19.3s44.6-6.4,64-19.3c31.6-21,65.8-40.7,90.2-54.2
		C777.4,811.6,862,687.1,862,542.9c0-73.2-21.8-141.2-59.2-198.1c-6.5-9.9-17.5-15.9-29.3-15.9H228.5z"/>
</g>
</svg>
