<?xml version="1.0" encoding="utf-8"?>
<!-- Generator: Adobe Illustrator 18.1.1, SVG Export Plug-In . SVG Version: 6.00 Build 0)  -->
<svg version="1.1" id="Capa_1" xmlns="http://www.w3.org/2000/svg" xmlns:xlink="http://www.w3.org/1999/xlink" x="0px" y="0px"
	 width="1000px" height="1000px" viewBox="0 0 1000 1000" enable-background="new 0 0 1000 1000" xml:space="preserve">
<g>
	<path d="M173.3,521.1v302.5c0,22.1,17.9,40,40,40h369.8c-0.4-0.4-0.7-0.7-1.1-1.1c-19.5-19.9-35.4-42.5-46-65.4
		c-28.3-61-18.6-135.5,36.1-179.1c27-21.5,60.8-33.4,95.1-33.4c13.5,0,26.8,1.9,39.5,5.6c18.6,5.4,35.8,14.7,51.1,27.3
		c15.3-12.7,32.5-22,51.1-27.3c5.8-1.7,11.8-3,17.8-3.9v-65.3L499.9,267.5L173.3,521.1z"/>
	<path d="M78.3,500.3c8.8,11.3,22,17.3,35.3,17.3c9.6,0,19.2-3.1,27.3-9.4l359-278.7l359,278.7c8.1,6.3,17.8,9.4,27.3,9.4
		c13.3,0,26.5-5.9,35.3-17.3l47.9-61.7c15.1-19.5,11.6-47.5-7.9-62.6L527.3,39c-8-6.2-17.7-9.4-27.4-9.4c-9.7,0-19.3,3.1-27.4,9.4
		L38.3,376.1c-19.5,15.1-23,43.1-7.9,62.6L78.3,500.3z"/>
	<path d="M912,841.5c32.2-32.9,57.3-77.5,53.6-124.9c-0.1-1.8-0.3-3.5-0.5-5.3c-7.3-57.3-61.5-96.7-116.8-96.7
		c-7.3,0-14.5,0.7-21.7,2.1c-3.2,0.6-6.3,1.4-9.4,2.3c-24,7-44.3,22-59.4,41.4c-15.2-19.4-35.4-34.5-59.4-41.4
		c-10.2-3-20.7-4.4-31.2-4.4c-48.3,0-96.2,30.8-112.1,77.1c-18.6,54,11,111.6,48.4,149.7c7.7,7.8,15.7,15.1,24.1,22.1
		c31.5,26.2,66.9,47.6,99.1,72.8c10.4,8.1,22.3,16.5,31.1,26.3c8.8-9.8,20.7-18.2,31.1-26.3C829.6,904.5,875.5,878.8,912,841.5z"/>
</g>
</svg>
