<?xml version="1.0" encoding="utf-8"?>
<!-- Generator: Adobe Illustrator 18.1.1, SVG Export Plug-In . SVG Version: 6.00 Build 0)  -->
<svg version="1.1" id="Capa_1" xmlns="http://www.w3.org/2000/svg" xmlns:xlink="http://www.w3.org/1999/xlink" x="0px" y="0px"
	 width="1000px" height="1000px" viewBox="0 0 1000 1000" enable-background="new 0 0 1000 1000" xml:space="preserve">
<g>
	<path d="M396.6,771.4c25.3,0,50-2.5,73.9-7.2c-1.2-13.7,2.7-27.5,11.6-38.8l216.4-274.6c10.5-13.3,26.2-21,43.2-21
		c11,0,21.4,3.2,30.3,9.1c1.8-14.9,2.7-30.1,2.7-45.5c0-208.8-169.3-378.1-378.1-378.1S18.5,184.5,18.5,393.3
		S187.8,771.4,396.6,771.4z M467.1,446.2c-15.2-18.7-41.3-26.6-64.8-32c-29.1-6.6-55.4-13.2-81.8-28c-16.9-9.4-30.2-22.7-39.3-39.5
		c-9.1-16.6-13.7-35.8-13.7-56.8c0-37.4,13.5-68.2,40.1-91.5c15.7-13.8,37.2-23.3,61.5-27.8v-20.4c0-13.8,11.2-25,25-25h13.6
		c13.8,0,25,11.2,25,25v20.7c22.5,4.4,42.6,13.2,57.6,25.7c15.9,13.2,27.6,30,34.8,50.1c5.3,14.8-4.4,30.7-19.9,33l-13.2,2
		c-12,1.8-23.5-5.2-27.4-16.7c-3.2-9.3-7.4-17-12.7-22.9c-11.9-13.4-30.7-21-51.5-21c-22.2,0-43.1,8.6-56,23.1
		c-10.6,11.9-15.7,25.5-15.7,41.8c0,15.9,4.5,29.4,13.3,40c18.4,22.2,48.6,28.2,77.7,34.1c17,3.4,34.6,7,49.9,13.7
		c16.3,7.2,29.8,16.1,40.1,26.4c10.4,10.4,18.5,23,24.1,37.3c5.6,14.2,8.4,29.8,8.4,46.4c0,36.3-11.8,67.1-34.9,91.4
		c-19,20-44.9,33.2-74.6,38.5v15.1c0,13.8-11.2,25-25,25H394c-13.8,0-25-11.2-25-25v-15.7c-16.4-3.1-32.1-8.4-46.2-15.7
		c-16.6-8.6-31.1-22.5-43.1-41.4c-8-12.6-13.8-27.2-17.3-43.6c-3-13.8,6.3-27.3,20.2-29.7l13.5-2.4c12.9-2.2,25.3,5.8,28.5,18.5
		c3.8,14.9,8.9,26.6,15.3,34.8c14.3,18.4,38,29.4,63.3,29.4h0c4.3,0,8.6-0.3,12.8-1c18.1-2.7,34.3-11.3,45.6-24.1
		c11.9-13.6,18-30.7,18-50.8C479.6,470.2,475.4,456.4,467.1,446.2z"/>
	<path d="M602.1,968.4h279.1c13.8,0,25-11.2,25-25v-159H958c20.9,0,32.6-24.1,19.6-40.5L765.8,475l-4.5-5.7
		c-5-6.4-12.3-9.5-19.6-9.5s-14.6,3.2-19.6,9.5L505.7,743.9c-3.2,4.1-4.9,8.6-5.3,13.1c-1.3,13.7,9.2,27.4,24.9,27.4h51.8v159
		C577.1,957.2,588.3,968.4,602.1,968.4z"/>
</g>
</svg>
