<?xml version="1.0" encoding="utf-8"?>
<!-- Generator: Adobe Illustrator 18.1.1, SVG Export Plug-In . SVG Version: 6.00 Build 0)  -->
<svg version="1.1" id="Capa_1" xmlns="http://www.w3.org/2000/svg" xmlns:xlink="http://www.w3.org/1999/xlink" x="0px" y="0px"
	 width="1000px" height="1000px" viewBox="0 0 1000 1000" enable-background="new 0 0 1000 1000" xml:space="preserve">
<g>
	<path d="M430.6,754.6c-30.6-41.9-51.6-92.9-71.8-142.2c-34.4-83.6-66.8-162.6-141.2-195.3c-10.6-4.7-20.9-8-30.7-10.2
		c-19.5,11.8-38,26.2-54.9,43c-4.5,4.5-8.7,9.1-12.9,13.7c4.5,1.6,8.9,3.4,13.2,5.3c44.7,19.7,81.5,52.4,112.3,100.2
		c25.9,40.1,44.7,85.8,62.8,129.9c19.7,47.8,38.2,93,64.2,128.5c20.6,28.1,47.6,52.1,74.3,65.9c11.2,5.8,22.2,9.8,32.9,12
		c22.1-12.5,42.9-28.2,61.7-47c2.9-2.9,5.8-5.9,8.5-8.9c-7.2-2.7-14.4-6-21.6-9.7C491.6,821.4,457.2,791.1,430.6,754.6z"/>
	<path d="M80.5,519.5c-57.5,109.1-40.4,247.2,51.4,339c56.4,56.4,130.4,84.6,204.3,84.6c19,0,38-1.9,56.7-5.6
		c-27.3-18.3-52.9-43-73.7-71.5c-30.6-41.9-51.6-92.9-71.8-142.2c-34.4-83.6-66.8-162.6-141.2-195.3
		C97.3,524.6,88.8,521.7,80.5,519.5z"/>
	<path d="M510.6,423.9c-51.4-39-112.9-58.6-174.4-58.6c-21.5,0-43.1,2.4-64.2,7.2c32.2,19.9,59.9,48.1,84,85.3
		c25.9,40.1,44.7,85.8,62.8,129.9c19.7,47.8,38.2,93,64.2,128.5c20.6,28.1,47.6,52.1,74.3,65.9c10.9,5.6,21.5,9.6,31.8,11.8
		c54.6-98.7,47-222.4-22.6-314.2l145.9-145.9c5.3,3,10.9,5.7,16.6,8c17.5,7.1,36,10.7,55,10.7c19,0,37.5-3.6,55-10.7
		c18.2-7.4,34.5-18.2,48.4-32.1c13.9-13.9,24.7-30.2,32.1-48.4c7.1-17.5,10.7-36,10.7-55c0-19-3.6-37.5-10.7-55
		c-7.4-18.2-18.2-34.5-32.1-48.4C873.5,89,857.2,78.2,839,70.9c-17.5-7.1-36-10.7-55-10.7c-19,0-37.5,3.6-55,10.7
		c-18.2,7.4-34.5,18.2-48.4,32.1c-13.9,13.9-24.7,30.2-32.1,48.4c-7.1,17.5-10.7,36-10.7,55c0,19,3.6,37.5,10.7,55
		c2.3,5.7,5,11.3,8,16.6L510.6,423.9z M784,120.3c22,0,44.1,8.4,60.9,25.2c33.6,33.6,33.6,88.1,0,121.7
		c-16.8,16.8-38.8,25.2-60.9,25.2c-22,0-44.1-8.4-60.9-25.2c-33.6-33.6-33.6-88.1,0-121.7C740,128.7,762,120.3,784,120.3z"/>
</g>
</svg>
