<?xml version="1.0" encoding="utf-8"?>
<!-- Generator: Adobe Illustrator 18.1.1, SVG Export Plug-In . SVG Version: 6.00 Build 0)  -->
<svg version="1.1" id="Capa_1" xmlns="http://www.w3.org/2000/svg" xmlns:xlink="http://www.w3.org/1999/xlink" x="0px" y="0px"
	 width="1000px" height="1000px" viewBox="0 0 1000 1000" enable-background="new 0 0 1000 1000" xml:space="preserve">
<g>
	<path d="M97.5,305.5v531.4c0,12.9,8.2,24.3,20.4,28.4l228.3,76.9V347.5L137,277.1C117.6,270.5,97.5,285,97.5,305.5z"/>
	<path d="M694.4,549.8c-8.6,9.1-19.6,15.5-31.5,18.5v290.2L872,928.9c19.4,6.5,39.6-7.9,39.6-28.4V369.1c0-12.9-8.2-24.3-20.4-28.4
		L848,326.1c-9.5,26.5-24.8,56.1-45.8,88.6C774.5,457.6,737.2,504.4,694.4,549.8z"/>
	<path d="M599.6,549.7C558,505.3,521.2,459,493,415.8c-21.8-33.5-37.6-63.7-47.2-90.4l-65.6,22.1v594.7l248.7-83.8V567.7
		C617.8,564.4,607.6,558.3,599.6,549.7z"/>
	<path d="M647.5,57.1c-0.2,0-0.4,0-0.5,0c-100.3,0-183.1,80.4-185.9,180.7c-0.5,17.4,1.4,34.3,5.4,50.4c1.6,8.6,4.2,17.8,7.8,27.6
		c17.2,47.3,44.5,90.3,75.2,130c19.9,25.8,61,94.4,97.5,94.4c38.8,0,83.3-76.3,103.5-103.6c27.3-36.9,53.5-76.7,69.1-120.1
		c3.6-10,6.3-19.5,7.9-28.3c3.6-14.4,5.5-29.5,5.5-45.1C833,140.6,750,57.4,647.5,57.1z M662.9,335.8c-5.2,0.8-10.5,1.3-15.9,1.3
		c-6.2,0-12.2-0.6-18.1-1.7c-29.1-5.4-53.7-23.8-67.6-48.9c-7.8-14.1-12.2-30.2-12.2-47.4c0-54.1,43.9-98,98-98
		c54.1,0,98,43.9,98,98c0,17.5-4.6,33.9-12.6,48.1C718.1,312.5,692.7,330.9,662.9,335.8z"/>
</g>
</svg>
