<?xml version="1.0" encoding="utf-8"?>
<!-- Generator: Adobe Illustrator 18.1.1, SVG Export Plug-In . SVG Version: 6.00 Build 0)  -->
<svg version="1.1" id="Capa_1" xmlns="http://www.w3.org/2000/svg" xmlns:xlink="http://www.w3.org/1999/xlink" x="0px" y="0px"
	 width="1000px" height="1000px" viewBox="0 0 1000 1000" enable-background="new 0 0 1000 1000" xml:space="preserve">
<g>
	<path d="M504.5,83C271.4,83,82.5,271.9,82.5,505s189,422.1,422.1,422.1c233.1,0,422.1-189,422.1-422.1S737.6,83,504.5,83z
		 M829.7,523.9l-181,60.5l37.2,75.2c8.5,17.2-9.7,35.3-26.9,26.8l-74.7-37.2l-61,181.3c-6.1,18.2-31.8,18.2-37.9,0l-61-181.1
		l-74.9,37.2c-17.2,8.5-35.3-9.6-26.8-26.8l37.4-75.3l-181-60.5c-18.2-6.1-18.2-31.8-0.1-37.9l181-61.2l-37.2-74.6
		c-8.6-17.2,9.6-35.4,26.8-26.9l74.7,36.9l61.1-180.9c6.1-18.1,31.8-18.1,37.9,0l61.1,180.9l74.8-37c17.2-8.5,35.3,9.6,26.8,26.8
		l-37,74.9L829.8,486C847.9,492.2,847.9,517.9,829.7,523.9z"/>
	<circle cx="504.5" cy="505" r="46.8"/>
</g>
</svg>
