<?xml version="1.0" encoding="utf-8"?>
<!-- Generator: Adobe Illustrator 18.1.1, SVG Export Plug-In . SVG Version: 6.00 Build 0)  -->
<svg version="1.1" id="Capa_1" xmlns="http://www.w3.org/2000/svg" xmlns:xlink="http://www.w3.org/1999/xlink" x="0px" y="0px"
	 width="1000px" height="1000px" viewBox="0 0 1000 1000" enable-background="new 0 0 1000 1000" xml:space="preserve">
<g>
	<path d="M101.3,142.9c-19.3,0-35,15.7-35,35v745.2c0,19.3,15.7,35,35,35h799.4c19.3,0,35-15.7,35-35V177.9c0-19.3-15.7-35-35-35
		H837v64.2c0,34.4-28,62.3-62.3,62.3h-40.8c-34.4,0-62.3-28-62.3-62.3v-64.2h-341v64.2c0,34.4-28,62.3-62.3,62.3h-40.8
		c-34.4,0-62.3-28-62.3-62.3v-64.2H101.3z M168.4,397.7h665.1v478.3H168.4V397.7z"/>
	<path d="M733.8,43.7c-19.3,0-35,15.7-35,35v64.2v64.2c0,19.3,15.7,35,35,35h40.8c19.3,0,35-15.7,35-35v-64.2V78.7
		c0-19.3-15.7-35-35-35H733.8z"/>
	<path d="M227.3,43.7c-19.3,0-35,15.7-35,35v64.2v64.2c0,19.3,15.7,35,35,35h40.8c19.3,0,35-15.7,35-35v-64.2V78.7
		c0-19.3-15.7-35-35-35H227.3z"/>
	<path d="M690.9,570.4c-6.7-52.5-56.3-88.6-106.9-88.6c-9.6,0-19.2,1.3-28.6,4c-22,6.4-40.5,20.2-54.4,37.9
		c-13.9-17.8-32.5-31.6-54.4-37.9c-9.4-2.7-19-4-28.6-4c-50.7,0-100.3,36.1-106.9,88.6c-0.2,1.6-0.4,3.2-0.5,4.8
		c-3.4,43.4,19.6,84.3,49.1,114.4c33.4,34.1,75.5,57.7,112.9,86.9c9.5,7.4,20.4,15.1,28.5,24.1c8.1-9,19-16.7,28.5-24.1
		c37.4-29.3,79.4-52.8,112.9-86.9c29.5-30.1,52.5-71,49.1-114.4C691.3,573.6,691.1,572,690.9,570.4z"/>
</g>
</svg>
