<?xml version="1.0" encoding="utf-8"?>
<!-- Generator: Adobe Illustrator 18.1.1, SVG Export Plug-In . SVG Version: 6.00 Build 0)  -->
<svg version="1.1" id="Capa_1" xmlns="http://www.w3.org/2000/svg" xmlns:xlink="http://www.w3.org/1999/xlink" x="0px" y="0px"
	 width="1000px" height="1000px" viewBox="0 0 1000 1000" enable-background="new 0 0 1000 1000" xml:space="preserve">
<g>
	<path d="M181.3,101.9c0-21.3-17.2-38.5-38.5-38.5h-40.2c-21.3,0-38.5,17.2-38.5,38.5v14.6h117.2V101.9z"/>
	<path d="M61.7,648h332.4l29.4-82.5c-7.8,1.1-15.7,1.7-23.7,1.7c-95.3,0-172.5-78.9-172.5-176.2s77.3-176.2,172.5-176.2
		c82.8,0,152,59.6,168.7,139.1l212.3,75.6V191.2c0-24.2-19.2-43.8-42.8-43.8H584.8l-17.7-90.3c-4-20.4-21.6-35.2-42-35.2H404.4
		H273.8c-20.4,0-38,14.7-42,35.2l-17.7,90.3h-32.7H64.1h-2.4c-23.7,0-42.8,19.6-42.8,43.8v413.1C18.9,628.4,38.1,648,61.7,648z"/>
	<path d="M964.1,526.5l-152.4-54.3l-15.5-5.5l-15.5-5.5l-208.5-74.3l-14.3-5.1c-3.9-1.4-7.8-2-11.7-2c-14.4,0-27.9,8.9-33,23.3
		l-54.7,153.6L426,648l-5.5,15.5L415,679L373.6,795c-6.5,18.2,3,38.2,21.2,44.7L801,984.4c3.9,1.4,7.8,2,11.7,2
		c14.4,0,27.9-8.9,33-23.3l139.6-392C991.9,553,982.4,533,964.1,526.5z M484.7,676.9l79.7-223.7l349.6,124.6l-79.7,223.7
		L484.7,676.9z"/>
	<path d="M780.8,569.2c-7.8-5-16.9-8.2-26.4-8.8c-11.9-0.7-23.4,2.8-33.4,9.1c-3.7-11.2-10.4-21.2-20.1-28.2
		c-26-18.7-66.5-11.4-81.4,17.8c-0.4,0.7-0.7,1.5-1.1,2.3c-9.2,20.7-5.1,44.8,4.1,64.8c3.5,7.6,7.7,14.8,12.3,21.8
		c3.4,5.2,7,10.4,10.6,15.5c3.7,5.1,7.3,10.3,10.9,15.5c2.2,3.2,4.4,6.4,6.4,9.7c3.4,5.3,7.4,11,9.8,16.8c5.5-3,12.2-4.9,18.2-6.9
		c23.5-7.8,48.3-12,70.6-23c1.5-0.7,2.9-1.5,4.3-2.2c18.1-9.8,34.3-25.1,39.8-45.3c0.2-0.8,0.4-1.6,0.6-2.5
		c3.3-15.2-1-30.3-9.9-42.1C792,577.9,786.7,573,780.8,569.2z"/>
</g>
</svg>
