<?xml version="1.0" encoding="utf-8"?>
<!-- Generator: Adobe Illustrator 18.1.1, SVG Export Plug-In . SVG Version: 6.00 Build 0)  -->
<svg version="1.1" id="Capa_1" xmlns="http://www.w3.org/2000/svg" xmlns:xlink="http://www.w3.org/1999/xlink" x="0px" y="0px"
	 width="1000px" height="1000px" viewBox="0 0 1000 1000" enable-background="new 0 0 1000 1000" xml:space="preserve">
<g>
	<path d="M146.6,982.9h314.1L356.3,645.3c-3.5-11.3,3.1-23.3,14.5-26.4l69.8-19l-21-51.1c-142.4,12.9-260.5,120-285.2,263.3
		L112.1,942C108.4,963.4,124.9,982.9,146.6,982.9z"/>
	<path d="M586.2,548.7l-21,51.1l69.8,19c11.4,3.1,18,15.1,14.5,26.4L545.2,982.9h314.1c21.7,0,38.2-19.6,34.5-40.9L871.4,812
		C846.7,668.7,728.7,561.6,586.2,548.7z M780.1,877.1H664.3c-14,0-21-16.9-11.1-26.9l57.9-57.9c6.1-6.1,16.1-6.1,22.3,0l57.9,57.9
		C801.1,860.2,794.1,877.1,780.1,877.1z"/>
	<path d="M502.9,515.2c125.1,0,226.5-101.4,226.5-226.5V65.3c0-36.2-34.5-62.5-69.4-52.8L379.2,89.9c-60.8,16.8-102.8,72-102.8,135
		v63.7C276.4,413.8,377.8,515.2,502.9,515.2z"/>
	<path d="M397.1,652.4v51c0,18.8,20,30.9,36.7,22.1l69.1-36.5l69.1,36.5c16.6,8.8,36.7-3.3,36.7-22.1v-51c0-18.8-20-30.9-36.7-22.1
		l-69.1,36.5l-69.1-36.5C417.1,621.5,397.1,633.6,397.1,652.4z"/>
</g>
</svg>
