<?xml version="1.0" encoding="utf-8"?>
<!-- Generator: Adobe Illustrator 18.1.1, SVG Export Plug-In . SVG Version: 6.00 Build 0)  -->
<svg version="1.1" id="Capa_1" xmlns="http://www.w3.org/2000/svg" xmlns:xlink="http://www.w3.org/1999/xlink" x="0px" y="0px"
	 width="1000px" height="1000px" viewBox="0 0 1000 1000" enable-background="new 0 0 1000 1000" xml:space="preserve">
<g>
	<path d="M486.1,534.5h120.2v-85.3c-25.5,34.6-65.9,63.6-117.1,84.1C488.2,533.7,487.1,534.1,486.1,534.5z"/>
	<path d="M317.2,868.7h53.3v-61.5c0-15.2,12.3-27.5,27.5-27.5s27.5,12.3,27.5,27.5v61.5h51.7h7.3v-126c0-15.2,12.3-27.5,27.5-27.5
		s27.5,12.3,27.5,27.5v126H573h25.5v-61.5c0-15.2,12.3-27.5,27.5-27.5s27.5,12.3,27.5,27.5v61.5h59v-126c0-15.2,12.3-27.5,27.5-27.5
		s27.5,12.3,27.5,27.5v126h59v-61.5c0-15.2,12.3-27.5,27.5-27.5s27.5,12.3,27.5,27.5v61.5h52.4c22.1,0,40-17.9,40-40V606.9
		c0-22.1-17.9-40-40-40H337.2h-20h-20c-74.5-2.9-144.2-21.7-198.1-53.7C69.3,495.5,45.7,474.5,29,451c-0.3-0.4-0.6-0.8-0.9-1.2
		v175.8v71.2C28.1,791.7,157.5,868.7,317.2,868.7z"/>
	<path d="M304.8,534.3c4.1,0.1,8.2,0.2,12.4,0.2c0,0,0,0,0,0s0,0,0,0c119.1,0,221.4-42.8,265.6-104c15.1-20.8,23.4-43.8,23.4-67.9
		c0-95-129.4-171.9-289.1-171.9s-289.1,77-289.1,171.9c0,24.1,8.4,47.1,23.4,67.9C94.3,489.5,191,531.4,304.8,534.3z M317.2,285.9
		c71.1,0,128.8,34.3,128.8,76.6c0,6.9-1.5,13.6-4.4,19.9c-1.6,3.6-3.6,7-6,10.3c-19.7,27.3-65.3,46.4-118.4,46.4
		c-4.2,0-8.3-0.1-12.4-0.4c-47.7-2.7-87.8-20.9-105.9-46c-6.7-9.3-10.4-19.5-10.4-30.3C188.4,320.2,246,285.9,317.2,285.9z"/>
</g>
</svg>
