<?xml version="1.0" encoding="utf-8"?>
<!-- Generator: Adobe Illustrator 18.1.1, SVG Export Plug-In . SVG Version: 6.00 Build 0)  -->
<svg version="1.1" id="Capa_1" xmlns="http://www.w3.org/2000/svg" xmlns:xlink="http://www.w3.org/1999/xlink" x="0px" y="0px"
	 width="1000px" height="1000px" viewBox="0 0 1000 1000" enable-background="new 0 0 1000 1000" xml:space="preserve">
<g>
	<path d="M251.6,628c-61.1,0-118.9-7.1-162.6-20.1c-22.5-6.7-40.5-14.7-53.6-23.8c-1.9-1.3-3.6-2.7-5.3-4v79.8v10.5v2.2
		c0,2.8,0.6,5.6,1.8,8.3c13.8,32.4,106.9,57.4,219.7,57.4c112.8,0,206-25,219.7-57.4c1.2-2.7,1.8-5.5,1.8-8.3v-2.2v-10.5V580
		c-1.7,1.4-3.5,2.7-5.3,4c-13,9.1-31,17.1-53.6,23.8C370.4,620.8,312.7,628,251.6,628z"/>
	<path d="M251.6,773.2c-61.1,0-118.9-7.1-162.6-20.1c-22.5-6.7-40.5-14.7-53.6-23.8c-1.9-1.3-3.6-2.7-5.3-4v79.8v10.5v2.2
		c0,2.8,0.6,5.6,1.8,8.3c13.8,32.4,106.9,57.4,219.7,57.4c112.8,0,206-25,219.7-57.4c1.2-2.7,1.8-5.5,1.8-8.3v-2.2v-10.5v-79.8
		c-1.7,1.4-3.5,2.7-5.3,4c-13,9.1-31,17.1-53.6,23.8C370.4,766,312.7,773.2,251.6,773.2z"/>
	<path d="M473,527.9c0-3.6-1-7.1-2.8-10.5c-2-3.6-4.9-7.1-8.8-10.5c-29.6-26-112.4-44.6-209.9-44.6c-97.5,0-180.3,18.7-209.9,44.6
		c-3.9,3.4-6.8,6.9-8.8,10.5c-1.9,3.4-2.8,6.9-2.8,10.5v0c0,36.3,99.2,65.7,221.5,65.7C373.9,593.6,473,564.2,473,527.9L473,527.9z"
		/>
	<path d="M754.5,340.5c-61.1,0-118.9-7.1-162.6-20.1c-22.5-6.7-40.5-14.7-53.6-23.8c-1.9-1.3-3.6-2.7-5.3-4v79.8v10.5v2.2
		c0,2.8,0.6,5.6,1.8,8.3c13.8,32.4,106.9,57.4,219.7,57.4c112.8,0,206-25,219.7-57.4c1.2-2.7,1.8-5.5,1.8-8.3v-2.2v-10.5v-79.8
		c-1.7,1.4-3.5,2.7-5.3,4c-13,9.1-31,17.1-53.6,23.8C873.4,333.4,815.6,340.5,754.5,340.5z"/>
	<path d="M754.5,485.7c-61.1,0-118.9-7.1-162.6-20.1c-22.5-6.7-40.5-14.7-53.6-23.8c-1.9-1.3-3.6-2.7-5.3-4v79.8v10.5v2.2
		c0,2.8,0.6,5.6,1.8,8.3C548.5,571,641.6,596,754.5,596c112.8,0,206-25,219.7-57.4c1.2-2.7,1.8-5.5,1.8-8.3v-2.2v-10.5v-79.8
		c-1.7,1.4-3.5,2.7-5.3,4c-13,9.1-31,17.1-53.6,23.8C873.4,478.6,815.6,485.7,754.5,485.7z"/>
	<path d="M754.5,628c-61.1,0-118.9-7.1-162.6-20.1c-22.5-6.7-40.5-14.7-53.6-23.8c-1.9-1.3-3.6-2.7-5.3-4v79.8v10.5v2.2
		c0,2.8,0.6,5.6,1.8,8.3c13.8,32.4,106.9,57.4,219.7,57.4c112.8,0,206-25,219.7-57.4c1.2-2.7,1.8-5.5,1.8-8.3v-2.2v-10.5V580
		c-1.7,1.4-3.5,2.7-5.3,4c-13,9.1-31,17.1-53.6,23.8C873.4,620.8,815.6,628,754.5,628z"/>
	<path d="M754.5,770.2c-61.1,0-118.9-7.1-162.6-20.1c-22.5-6.7-40.5-14.7-53.6-23.8c-1.9-1.3-3.6-2.7-5.3-4v79.8v10.5v2.2
		c0,2.8,0.6,5.6,1.8,8.3c13.8,32.4,106.9,57.4,219.7,57.4c112.8,0,206-25,219.7-57.4c1.2-2.7,1.8-5.5,1.8-8.3v-2.2v-10.5v-79.8
		c-1.7,1.4-3.5,2.7-5.3,4c-13,9.1-31,17.1-53.6,23.8C873.4,763.1,815.6,770.2,754.5,770.2z"/>
	<path d="M976,240.5c0-3.6-1-7.1-2.8-10.5c-2-3.6-4.9-7.1-8.8-10.5c-29.6-26-112.4-44.6-209.9-44.6c-97.5,0-180.3,18.7-209.9,44.6
		c-3.9,3.4-6.8,6.9-8.8,10.5c-1.9,3.4-2.8,6.9-2.8,10.5v0c0,36.3,99.2,65.7,221.5,65.7C876.8,306.1,976,276.7,976,240.5L976,240.5z"
		/>
</g>
</svg>
