<?xml version="1.0" encoding="utf-8"?>
<!-- Generator: Adobe Illustrator 18.1.1, SVG Export Plug-In . SVG Version: 6.00 Build 0)  -->
<svg version="1.1" id="Capa_1" xmlns="http://www.w3.org/2000/svg" xmlns:xlink="http://www.w3.org/1999/xlink" x="0px" y="0px"
	 width="1000px" height="1000px" viewBox="0 0 1000 1000" enable-background="new 0 0 1000 1000" xml:space="preserve">
<g>
	<path d="M80.5,102.5h607v151.9h65V70c0-17.9-14.6-32.5-32.5-32.5H48C30.1,37.5,15.5,52,15.5,70v602.3c0,10.9,5.5,21.1,14.6,27.2
		c5.4,3.5,11.6,5.3,17.9,5.3c4.4,0,8.7-0.9,12.9-2.7L236,626.5v-70.8L80.5,622.8V102.5z"/>
	<path d="M940,284.3H752.5h-65H306c-22.1,0-40,17.9-40,40v218.4v70.8v142.8c0,22.1,17.9,40,40,40h377.7l261.4,112.8
		c3.3,1.4,6.6,2.1,9.9,2.1c13.2,0,25-10.6,25-25V324.3C980,302.2,962.1,284.3,940,284.3z M702.6,659.6c-12.4,13-29,22-48.2,26v6.6
		c0,11.4-9.3,20.7-20.7,20.7h-9c-11.4,0-20.7-9.3-20.7-20.7v-7c-10.1-2.2-19.6-5.6-28.3-10.1c-11.6-6-21.8-15.7-30.1-28.8
		c-5.5-8.7-9.6-18.9-12-30.1c-1.2-5.5-0.1-11.1,3-15.8c3.1-4.7,8.1-7.9,13.6-8.8l8.9-1.6c1.2-0.2,2.4-0.3,3.6-0.3
		c9.4,0,17.7,6.4,20,15.6c2.4,9.3,5.5,16.5,9.4,21.4c8.7,11.1,23.1,17.8,38.6,17.8c2.6,0,5.3-0.2,7.8-0.6c11-1.7,20.8-6.8,27.6-14.6
		c7.2-8.2,10.8-18.6,10.8-30.8c0-5.3-0.7-10-2-14.2c-1.2-3.9-3-7.3-5.3-10.2c-9.3-11.4-25.7-16.3-40.5-19.7
		c-19.6-4.4-37.2-8.9-55.1-18.9c-7.7-4.3-14.3-9.7-19.7-16.2c-3-3.5-5.6-7.4-7.9-11.5c-6.4-11.6-9.6-24.9-9.6-39.5
		c0-26,9.4-47.4,27.9-63.6c10.2-8.9,23.7-15.3,39.2-18.6v-10.1c0-11.4,9.3-20.7,20.7-20.7h9c11.4,0,20.7,9.3,20.7,20.7v10.3
		c12.7,2.9,24,7.8,33.1,14.5c1.2,0.9,2.3,1.8,3.4,2.7c11.1,9.2,19.2,20.9,24.2,34.9c2.1,5.8,1.5,12.1-1.7,17.4
		c-3.2,5.4-8.6,9-14.7,9.9L690,467c-0.8,0.1-1.7,0.2-2.5,0.2c-0.2,0-0.4,0-0.6,0c-8.9,0-16.7-5.6-19.6-14
		c-1.9-5.6-4.4-10.2-7.6-13.7c-7.1-8-18.4-12.5-30.9-12.5c-13.5,0-26.1,5.2-33.9,13.9c-6.3,7-9.3,15.2-9.3,24.9
		c0,9.5,2.6,17.5,7.8,23.7c11.2,13.5,30.4,17.4,49,21.1c11,2.2,22.4,4.5,32.6,8.8c0.4,0.2,0.8,0.3,1.2,0.5
		c11.2,4.9,20.6,11.1,27.8,18.3c7.3,7.3,13,16.1,16.9,26c2.4,6.2,4.1,12.8,5,19.6c0.5,4.1,0.8,8.3,0.8,12.5
		C726.8,621.5,718.6,642.7,702.6,659.6z"/>
</g>
</svg>
