<?xml version="1.0" encoding="utf-8"?>
<!-- Generator: Adobe Illustrator 18.1.1, SVG Export Plug-In . SVG Version: 6.00 Build 0)  -->
<svg version="1.1" id="Capa_1" xmlns="http://www.w3.org/2000/svg" xmlns:xlink="http://www.w3.org/1999/xlink" x="0px" y="0px"
	 width="1000px" height="1000px" viewBox="0 0 1000 1000" enable-background="new 0 0 1000 1000" xml:space="preserve">
<g>
	<path d="M854.9,472.4c-15.1-26.5-23-56.4-23-86.8c0,0,0,0,0,0c0-192.5-156.8-348.3-349.6-346.8c-194.2,1.5-348.5,161-343.9,355.2
		c1.6,66.7,22,128.7,56.2,180.9c34.7,53.1,53.2,115.2,53.2,178.7v152.7c0,24.9,20.1,45,45,45h320.7c24.9,0,45-20.1,45-45v-64.5H763
		c53.8,0,30.9-46.2,62.5-90.4c10.3-14.4,15-32,13.1-49.6l-6.7-60.8l59.2-10.4c23.8-4.2,36.3-30.7,24.4-51.8L854.9,472.4z M582,489.1
		c-14.9,15.6-34.9,26.4-57.9,31.3v7.9c0,13.7-11.2,24.9-24.9,24.9h-10.8c-13.7,0-24.9-11.2-24.9-24.9v-8.4
		c-12.1-2.6-23.5-6.7-34-12.1c-14-7.2-26.2-18.9-36.2-34.7c-6.6-10.5-11.5-22.7-14.4-36.2c-1.4-6.6-0.1-13.3,3.7-18.9
		c3.8-5.6,9.8-9.5,16.4-10.6l10.7-1.9c1.4-0.2,2.9-0.4,4.3-0.4c11.4,0,21.3,7.7,24.1,18.7c2.9,11.2,6.7,19.9,11.3,25.8
		c10.5,13.4,27.8,21.4,46.4,21.4c3.2,0,6.3-0.2,9.4-0.7c13.2-2,25-8.2,33.2-17.5c8.6-9.8,13-22.3,13-37.1c0-12.4-3-22.3-8.8-29.4
		c-11.1-13.7-30.9-19.6-48.7-23.7c-23.5-5.3-44.8-10.7-66.3-22.7c-14.3-8-25.5-19.2-33.2-33.3c-7.6-14-11.5-30-11.5-47.6
		c0-31.2,11.3-57,33.5-76.4c12.2-10.7,28.5-18.4,47.2-22.4V148c0-13.7,11.2-24.9,24.9-24.9h10.8c13.7,0,24.9,11.2,24.9,24.9v12.4
		c17.2,3.9,32.4,11,44,20.6c13.3,11.1,23.1,25.2,29.1,41.9c2.5,6.9,1.8,14.6-2.1,21c-3.8,6.4-10.3,10.8-17.7,11.9l-10.5,1.6
		c-1.2,0.2-2.5,0.3-3.7,0.3c-10.7,0-20.1-6.8-23.5-16.9c-2.3-6.7-5.3-12.3-9.1-16.5c-8.5-9.6-22.1-15-37.2-15
		c-16.2,0-31.4,6.2-40.7,16.7c-7.5,8.5-11.2,18.2-11.2,29.9c0,11.4,3.2,21.1,9.4,28.6c13.5,16.2,36.6,20.9,58.9,25.4
		c13.8,2.8,28.1,5.6,40.7,11.2c13.5,5.9,24.7,13.4,33.4,22c8.8,8.8,15.6,19.3,20.3,31.3c4.6,11.9,7,24.9,7,38.7
		C611.2,443.2,601.4,468.7,582,489.1z"/>
</g>
</svg>
