<?xml version="1.0" encoding="utf-8"?>
<!-- Generator: Adobe Illustrator 18.1.1, SVG Export Plug-In . SVG Version: 6.00 Build 0)  -->
<svg version="1.1" id="Capa_1" xmlns="http://www.w3.org/2000/svg" xmlns:xlink="http://www.w3.org/1999/xlink" x="0px" y="0px"
	 width="1000px" height="1000px" viewBox="0 0 1000 1000" enable-background="new 0 0 1000 1000" xml:space="preserve">
<g>
	<path d="M105.4,677.8C74.8,748.2,67.3,818,67.1,869.2c-0.1,44.2,35.8,80,80,80H505h349.9c44.2,0,80.1-35.8,80-80
		c-0.1-51.2-7.7-121-38.2-191.4c-59.3-136.6-166.6-285.5-279-357.4H505H384.3C271.9,392.3,164.6,541.2,105.4,677.8z M556.9,674.1
		c-11.9-14.6-32.3-20.8-50.7-25c-22.8-5.2-43.3-10.4-63.9-21.9c-13.2-7.4-23.6-17.8-30.8-30.9c-7.1-13-10.7-28-10.7-44.4
		c0-29.3,10.5-53.3,31.3-71.5c12.3-10.8,29.1-18.3,48.1-21.7v-16c0-10.8,8.8-19.5,19.5-19.5h10.6c10.8,0,19.5,8.8,19.5,19.5v16.2
		c17.6,3.4,33.3,10.3,45,20.1c12.5,10.3,21.6,23.5,27.2,39.1c4.1,11.5-3.4,24-15.6,25.8l-10.3,1.5c-9.3,1.4-18.4-4.1-21.4-13
		c-2.5-7.3-5.8-13.3-9.9-17.9c-9.3-10.5-24-16.4-40.3-16.4c-17.3,0-33.7,6.8-43.8,18.1c-8.3,9.3-12.3,20-12.3,32.7
		c0,12.4,3.5,23,10.4,31.2c14.4,17.3,38,22.1,60.8,26.7c13.3,2.7,27.1,5.5,39,10.7c12.7,5.6,23.3,12.6,31.4,20.7
		c8.1,8.1,14.5,17.9,18.9,29.1c4.3,11.1,6.6,23.3,6.6,36.3c0,28.4-9.2,52.4-27.3,71.5c-14.9,15.6-35.1,26-58.4,30.1v11.8
		c0,10.8-8.8,19.5-19.5,19.5h-10.6c-10.8,0-19.5-8.8-19.5-19.5v-12.3c-12.8-2.4-25.1-6.6-36.1-12.2c-13-6.7-24.3-17.6-33.7-32.4
		c-6.3-9.9-10.8-21.3-13.6-34.1c-2.3-10.8,4.9-21.3,15.8-23.2l10.6-1.8c10.1-1.8,19.8,4.5,22.3,14.4c3,11.7,7,20.8,12,27.2
		c11.2,14.4,29.7,23,49.5,23h0c3.4,0,6.7-0.3,10-0.7c14.2-2.1,26.8-8.8,35.7-18.9c9.3-10.6,14-24,14-39.7
		C566.7,692.8,563.4,682,556.9,674.1z"/>
	<path d="M505.2,116.5l-0.2,0v0l-152.5,0.4c-27.9,0.1-44.5,31.2-29,54.4l68.4,102.6H505h0.4h113.1l68.4-102.6
		c15.5-23.2-1.1-54.3-29-54.4l-152.5-0.4v0L505.2,116.5z"/>
</g>
</svg>
