<?xml version="1.0" encoding="utf-8"?>
<!-- Generator: Adobe Illustrator 18.1.1, SVG Export Plug-In . SVG Version: 6.00 Build 0)  -->
<svg version="1.1" id="Capa_1" xmlns="http://www.w3.org/2000/svg" xmlns:xlink="http://www.w3.org/1999/xlink" x="0px" y="0px"
	 width="1000px" height="1000px" viewBox="0 0 1000 1000" enable-background="new 0 0 1000 1000" xml:space="preserve">
<g>
	<path d="M908.5,634.5l-109-227c-29.6-17-63.5-31.6-99.7-42.9c-62.2-19.4-129.7-29.2-200.5-29.2c-69,0-135,9.4-196,27.8
		c-37,11.2-71.9,26-102.2,43.1L91.5,634.5c-51,106.2,26.4,229.2,144.2,229.2H500h264.2C882.1,863.7,959.5,740.7,908.5,634.5z"/>
	<path d="M122.8,387.6c5.9,7.6,14.8,11.7,23.8,11.7c5.7,0,11.4-1.6,16.5-4.9c18.1-11.9,38.1-22.9,59.5-32.7
		c22.6-10.4,46.8-19.5,72.1-27.2c13.2-4,26.7-7.6,40.3-10.8c52.2-12.2,107.3-18.3,164.4-18.3c57.1,0,112.2,6.2,164.4,18.3
		c15.3,3.6,30.3,7.6,45,12.2c24.3,7.6,47.5,16.5,69.2,26.6c23.3,10.8,44.8,23,64.2,36.3c5.1,3.5,11,5.2,16.8,5.2
		c8.8,0,17.5-3.9,23.4-11.2l19.3-24c10.9-13.5,8.1-33.5-6.2-43.4c-83.3-57.9-193.8-95.2-314.7-106.9c5.2-3.8,9.6-8.4,13.2-13.8
		c2.9-4.4,5.2-9.2,6.7-14.3c1.5-4.9,2.3-10.1,2.3-15.5c0-29.8-24.2-54-54-54c-21.7,0-40.4,12.8-49,31.3c-8.6-18.5-27.3-31.3-49-31.3
		c-29.8,0-54,24.2-54,54c0,5.4,0.8,10.5,2.3,15.4c1.5,5.1,3.8,10,6.7,14.3c3.5,5.3,8,10,13.1,13.8c-117.3,11.2-225.4,46.6-308,101.5
		c-14.4,9.6-17.6,29.5-7.1,43.2L122.8,387.6z"/>
</g>
</svg>
