<?xml version="1.0" encoding="utf-8"?>
<!-- Generator: Adobe Illustrator 18.1.1, SVG Export Plug-In . SVG Version: 6.00 Build 0)  -->
<svg version="1.1" id="Capa_1" xmlns="http://www.w3.org/2000/svg" xmlns:xlink="http://www.w3.org/1999/xlink" x="0px" y="0px"
	 width="1000px" height="1000px" viewBox="0 0 1000 1000" enable-background="new 0 0 1000 1000" xml:space="preserve">
<g>
	<path d="M963.9,52.9l-6.9,0c-16.6,0-30,13.4-30,30v63.9H821.3V82.9c0-16.6-13.4-30-30-30h-7c-16.6,0-30,13.4-30,30v107.7H248V82.9
		c0-16.6-13.4-30-30-30h-6.8c-16.6,0-30,13.4-30,30v63.9H75.7V82.9c0-16.6-13.4-30-30-30h-6.9c-16.6,0-30,13.4-30,30v842
		c0,16.6,13.4,30,30,30h6.9c16.6,0,30-13.4,30-30v-64.8h105.5v64.8c0,16.6,13.4,30,30,30h6.8c16.6,0,30-13.4,30-30V818h506.3v106.9
		c0,16.6,13.4,30,30,30h7c16.6,0,30-13.4,30-30v-64.8h105.8v64.8c0,16.6,13.4,30,30,30h6.9c16.6,0,30-13.4,30-30v-842
		C993.9,66.3,980.5,52.9,963.9,52.9z M181.2,809.1H75.7v-94.7h105.5V809.1z M181.2,650.4H75.7v-93.9h105.5V650.4z M181.2,475.7H75.7
		v-93.8h105.5V475.7z M181.2,299.4H75.7v-93.9h105.5V299.4z M754.3,714.4H248v-415h506.3V714.4z M927.1,809.1H821.3v-94.7h105.8
		V809.1z M927.1,650.4H821.3v-93.9h105.8V650.4z M927.1,475.7H821.3v-93.8h105.8V475.7z M927.1,299.4H821.3v-93.9h105.8V299.4z"/>
	<path d="M473.8,635.2c9.2,7.2,19.8,14.6,27.6,23.4c7.8-8.7,18.4-16.2,27.6-23.4c36.3-28.4,77.1-51.2,109.5-84.4
		c28.6-29.2,50.9-68.9,47.6-111c-0.1-1.6-0.3-3.1-0.5-4.7c-6.5-50.9-54.6-86-103.8-86c-9.3,0-18.6,1.3-27.7,3.9
		c-21.3,6.2-39.3,19.6-52.8,36.8c-13.5-17.2-31.5-30.6-52.8-36.8c-9.1-2.6-18.4-3.9-27.7-3.9c-49.1,0-97.3,35-103.8,86
		c-0.2,1.5-0.4,3.1-0.5,4.7c-3.3,42.1,19,81.8,47.6,111C396.7,583.9,437.5,606.8,473.8,635.2z"/>
</g>
</svg>
