<?xml version="1.0" encoding="utf-8"?>
<!-- Generator: Adobe Illustrator 18.1.1, SVG Export Plug-In . SVG Version: 6.00 Build 0)  -->
<svg version="1.1" id="Capa_1" xmlns="http://www.w3.org/2000/svg" xmlns:xlink="http://www.w3.org/1999/xlink" x="0px" y="0px"
	 width="1000px" height="1000px" viewBox="0 0 1000 1000" enable-background="new 0 0 1000 1000" xml:space="preserve">
<g>
	<path d="M699.1,323.8H302.9c-22.1,0-40,17.9-40,40v549.7c0,22.1,17.9,40,40,40h396.2c22.1,0,40-17.9,40-40V363.8
		C739.1,341.7,721.2,323.8,699.1,323.8z M501,897.9c-64.5,0-116.8-52.3-116.8-116.8c0-64.5,52.3-116.8,116.8-116.8
		s116.8,52.3,116.8,116.8C617.8,845.7,565.5,897.9,501,897.9z M669,603.1H333V391.3h336V603.1z"/>
	<path d="M860.6,403.9c-0.4-47.5-9.8-93.6-28.2-137.1c-18.1-42.8-44-81.3-77.1-114.3c-33-33-71.5-58.9-114.3-77.1
		c-44.4-18.8-91.5-28.3-140-28.3s-95.6,9.5-140,28.3c-42.8,18.1-81.3,44-114.3,77.1c-33,33-58.9,71.5-77.1,114.3
		c-18.4,43.5-27.9,89.6-28.2,137.1c-76.7,26.9-131,94.1-131,172.7c0,102.3,92,185.2,205.5,185.2l0.5-355.1
		c0-76,29.6-147.5,83.4-201.3c53.8-53.8,125.2-83.4,201.3-83.4s147.5,29.6,201.3,83.4c53.8,53.8,83.4,125.2,83.4,201.3l0.5,355.1
		c113.5,0,205.5-82.9,205.5-185.2C991.6,497.9,937.3,430.8,860.6,403.9z"/>
</g>
</svg>
