<?xml version="1.0" encoding="utf-8"?>
<!-- Generator: Adobe Illustrator 18.1.1, SVG Export Plug-In . SVG Version: 6.00 Build 0)  -->
<svg version="1.1" id="Capa_1" xmlns="http://www.w3.org/2000/svg" xmlns:xlink="http://www.w3.org/1999/xlink" x="0px" y="0px"
	 width="1000px" height="1000px" viewBox="0 0 1000 1000" enable-background="new 0 0 1000 1000" xml:space="preserve">
<g>
	<path d="M167.9,517L167.9,517c0,40.2-14.5,79-40.7,109.5c-23.7,27.6-37.4,63.2-37.4,100.8v1.1h822.1v-1.1
		c0-37.5-13.6-73.1-37.4-100.8c-26.2-30.5-40.7-69.3-40.7-109.5v0c0-156.8-121.9-285.1-276.1-295.3v-46H444v46
		C289.8,231.9,167.9,360.2,167.9,517z"/>
	<path d="M955.8,758.3H46.2c-14.5,0-26.2,11.2-26.2,25v20c0,13.8,11.7,25,26.2,25h909.6c14.5,0,26.2-11.2,26.2-25v-20
		C982,769.5,970.3,758.3,955.8,758.3z"/>
	<path d="M599,145.7c22.1,0,40-17.9,40-40v-11c0-22.1-17.9-40-40-40H403c-22.1,0-40,17.9-40,40v11c0,22.1,17.9,40,40,40H599z"/>
</g>
</svg>
