<?xml version="1.0" encoding="utf-8"?>
<!-- Generator: Adobe Illustrator 18.1.1, SVG Export Plug-In . SVG Version: 6.00 Build 0)  -->
<svg version="1.1" id="Capa_1" xmlns="http://www.w3.org/2000/svg" xmlns:xlink="http://www.w3.org/1999/xlink" x="0px" y="0px"
	 width="1000px" height="1000px" viewBox="0 0 1000 1000" enable-background="new 0 0 1000 1000" xml:space="preserve">
<g>
	<path d="M690.1,193.1V41.6c0-21.6-22.1-36.1-41.9-27.5L232.9,193.3c1.6-0.1,3.3-0.2,4.9-0.2H690.1z"/>
	<path d="M777.7,935.8V263.1c0-22.1-17.9-40-40-40h-47.6H237.9c-22.1,0-40,17.9-40,40v672.7c0,8.3,2.5,16,6.8,22.4
		c7.2,10.6,19.4,17.6,33.2,17.6h499.8C759.8,975.8,777.7,957.9,777.7,935.8z M690.1,641.8c-10.8,27.4-27.2,52.6-48.7,74.1
		c-41.1,41.1-95.6,63.7-153.7,63.7s-112.6-22.6-153.7-63.7c-41.1-41.1-63.7-95.6-63.7-153.7s22.6-112.6,63.7-153.7
		c41.1-41.1,95.6-63.7,153.7-63.7c58.1,0,112.6,22.6,153.7,63.7c21.5,21.5,37.9,46.6,48.7,74.1c9.8,25,15,51.9,15,79.6
		S700,616.7,690.1,641.8z"/>
	<path d="M577.6,577.1h-74.8v62.5h66.8C574,620.1,576.7,599,577.6,577.1z"/>
	<path d="M368,577.1h-67c1.8,22.1,7.4,43.2,16.2,62.5h58.1C371.3,620.1,368.8,599.1,368,577.1z"/>
	<path d="M635.2,446.7c-19.2-24.4-44.3-44-73.2-56.5c11.1,15.6,20.6,34.7,28,56.5H635.2z"/>
	<path d="M598.5,476.7c5,21.8,8.1,45.5,9,70.5h67c-2-25.2-9-49-20.1-70.5H598.5z"/>
	<path d="M502.8,746.7c5.5-2.1,11-5.3,16.4-9.7c10.8-8.8,21-22.1,29.6-38.6c4.6-8.9,8.7-18.4,12.2-28.6h-58.2V746.7z"/>
	<path d="M426.8,698.3c8.6,16.5,18.8,29.9,29.6,38.6c5.4,4.4,10.9,7.6,16.4,9.7v-77h-58.2C418.1,679.9,422.2,689.4,426.8,698.3z"/>
	<path d="M406,639.7h66.8v-62.5H398C398.9,599,401.6,620.1,406,639.7z"/>
	<path d="M334.5,669.7c19.8,28.2,47.2,50.6,79.1,64.5c-12.4-17.5-22.8-39.4-30.6-64.5H334.5z"/>
	<path d="M398,547.1h74.8v-70.5h-64.8C402.4,498.5,399,522.3,398,547.1z"/>
	<path d="M562,734.1c31.9-13.8,59.3-36.3,79.1-64.5h-48.5C584.9,694.8,574.5,716.6,562,734.1z"/>
	<path d="M600.3,639.7h58.1c8.8-19.3,14.4-40.4,16.2-62.5h-67C606.8,599.1,604.3,620.1,600.3,639.7z"/>
	<path d="M426.8,426c-3.4,6.5-6.5,13.4-9.3,20.7h55.3v-69.1c-5.5,2.1-11,5.3-16.4,9.7C445.6,396.1,435.4,409.4,426.8,426z"/>
	<path d="M377,476.7h-55.9c-11,21.4-18.1,45.3-20.1,70.5h67C368.9,522.2,372,498.5,377,476.7z"/>
	<path d="M548.8,426c-8.6-16.5-18.8-29.9-29.6-38.6c-5.4-4.4-10.9-7.6-16.4-9.7v69.1h55.3C555.3,439.4,552.2,432.5,548.8,426z"/>
	<path d="M567.6,476.7h-64.8v70.5h74.8C576.6,522.3,573.2,498.5,567.6,476.7z"/>
	<path d="M413.5,390.1c-28.9,12.5-54,32.1-73.2,56.5h45.2C393,424.9,402.4,405.7,413.5,390.1z"/>
</g>
</svg>
