<?xml version="1.0" encoding="utf-8"?>
<!-- Generator: Adobe Illustrator 18.1.1, SVG Export Plug-In . SVG Version: 6.00 Build 0)  -->
<svg version="1.1" id="Capa_1" xmlns="http://www.w3.org/2000/svg" xmlns:xlink="http://www.w3.org/1999/xlink" x="0px" y="0px"
	 width="1000px" height="1000px" viewBox="0 0 1000 1000" enable-background="new 0 0 1000 1000" xml:space="preserve">
<g>
	<path d="M822.5,105.3c-43.4,1.1-83.8-23.5-102.7-62.6c-6.2-12.7-20.3-19.4-34-16L535.1,63.2l398.1,398.1l-80.8-333.1
		C849,114.5,836.6,104.9,822.5,105.3z"/>
	<path d="M961.1,565.2c7.6-11.9,6-27.5-4-37.5l-10.4-10.4L501,71.5l-21.6-21.6c-5.8-5.8-13.5-8.8-21.2-8.8c-5.6,0-11.2,1.6-16.2,4.8
		c-18.3,11.8-39.2,17.6-60.1,17.6c-20.9,0-41.9-5.9-60.1-17.6c-5-3.2-10.6-4.8-16.2-4.8c-7.7,0-15.4,3-21.2,8.8L46.8,287.3
		c-10,10-11.7,25.6-4,37.4c23.5,36.5,23.5,83.8,0,120.3c-7.6,11.9-6,27.4,4,37.4l346,346l131.8,131.8c5.8,5.8,13.5,8.8,21.2,8.8
		c5.6,0,11.2-1.6,16.2-4.8c18.3-11.8,39.2-17.6,60.1-17.6c20.9,0,41.9,5.9,60.1,17.6c5,3.2,10.6,4.8,16.2,4.8c7.7,0,15.4-3,21.2-8.8
		l237.4-237.4c10-10,11.6-25.7,3.9-37.6c-22.7-35.4-23.3-80.9-1.9-116.8C959.8,567.3,960.5,566.3,961.1,565.2z M725.4,428.1
		l-179.8,80.6l49.9,49.9l89.1,0c2.7,0,5.2,1.1,7.1,2.9l13.3,13.3c5,5,3.4,13.5-3.1,16.3l-79.6,34.1L588,704.8
		c-2.8,6.5-11.3,8.1-16.3,3.1l-13.3-13.3c-1.9-1.9-2.9-4.4-2.9-7.1l0-89.1l-49.9-49.9L425,728.4c-2.9,6.4-11.2,7.9-16.2,3
		l-19.6-19.6c-2.2-2.2-3.2-5.2-2.9-8.3l29.4-244.8l-72.5-72.5c-0.8-0.8-1.5-1.8-2-2.9l-21.6-47.4c-3.8-8.4,4.8-17.1,13.2-13.2
		l47.4,21.6c1.1,0.5,2.1,1.2,2.9,2l72.5,72.5l244.8-29.4c3-0.4,6.1,0.7,8.3,2.9l19.6,19.6C733.3,416.8,731.8,425.2,725.4,428.1z"/>
</g>
</svg>
