<?xml version="1.0" encoding="utf-8"?>
<!-- Generator: Adobe Illustrator 18.1.1, SVG Export Plug-In . SVG Version: 6.00 Build 0)  -->
<svg version="1.1" id="Capa_1" xmlns="http://www.w3.org/2000/svg" xmlns:xlink="http://www.w3.org/1999/xlink" x="0px" y="0px"
	 width="1000px" height="1000px" viewBox="0 0 1000 1000" enable-background="new 0 0 1000 1000" xml:space="preserve">
<g>
	<path d="M260.8,290.4c0-23.2-18.8-42.1-42.1-42.1h-43.9c-23.2,0-42.1,18.8-42.1,42.1v15.9h128V290.4z"/>
	<path d="M130.1,340.1c-25.9,0-46.8,21.4-46.8,47.8v451.4c0,26.4,21,47.8,46.8,47.8h738.9c25.9,0,46.8-21.4,46.8-47.8V388
		c0-26.4-21-47.8-46.8-47.8H713.6l-19.3-98.7c-4.4-22.3-23.6-38.4-45.9-38.4H504.5H361.8c-22.3,0-41.5,16.1-45.9,38.4l-19.3,98.7
		h-35.8h-128H130.1z M499.5,413.6c104.1,0,188.5,86.2,188.5,192.6s-84.4,192.6-188.5,192.6c-104.1,0-188.5-86.2-188.5-192.6
		S395.4,413.6,499.5,413.6z"/>
</g>
</svg>
