<?xml version="1.0" encoding="utf-8"?>
<!-- Generator: Adobe Illustrator 18.1.1, SVG Export Plug-In . SVG Version: 6.00 Build 0)  -->
<svg version="1.1" id="Capa_1" xmlns="http://www.w3.org/2000/svg" xmlns:xlink="http://www.w3.org/1999/xlink" x="0px" y="0px"
	 width="1000px" height="1000px" viewBox="0 0 1000 1000" enable-background="new 0 0 1000 1000" xml:space="preserve">
<g>
	<path d="M650.2,654.7c-13.3-24.2-20-51.6-20-81.3c0-25.9,4.8-50,14.4-71.7c9.7-21.9,24.1-41.5,43.1-58
		c12.3-10.8,26.5-19.6,42.4-26.5v-5.6c0-29.2,23.7-52.9,52.9-52.9h9.9C766.9,179.9,613,42.6,427,42.6v314.8c0,30.4-24.6,55-55,55
		H57.2c0,204.2,165.5,369.8,369.8,369.8c95,0,181.7-35.9,247.2-94.8C664.9,677.7,656.8,666.8,650.2,654.7z"/>
	<path d="M391.7,347.8V39.4c0-17.5-15-31.4-32.5-29.9C180.9,25,38.8,167.1,23.3,345.4c-1.5,17.5,12.4,32.5,29.9,32.5h308.4
		C378.2,377.8,391.7,364.4,391.7,347.8z"/>
	<path d="M934.9,668.2c-11.9-11.9-27.1-22-45.3-30c-16.9-7.5-35.3-11.1-53-14.7c-26.6-5.3-51.7-10.4-65.4-27c-5.8-7-8.6-15.8-8.6-27
		c0-0.6,0-1.2,0-1.8c0.3-10.4,3.7-18.9,10.5-26.5c0.3-0.3,0.6-0.6,0.9-0.9c9.1-9.5,24.2-15.4,39.8-15.4c15,0,28.2,5.2,36.3,14.3
		c6,6.7,10.3,17.9,12.5,32.3l0,0c1.4,9.5,9.6,16.3,19,16.3c0.9,0,1.9-0.1,2.9-0.2l61.7-9.2c10.4-1.6,17.6-11.2,16.2-21.7l0,0
		c-5.3-37.6-21.4-67.8-47.9-89.8c-13.6-11.3-30.5-20-49.7-25.6v-29.9c0-10.6-8.6-19.2-19.2-19.2h-49.3H783
		c-10.6,0-19.2,8.6-19.2,19.2v29.4c-21,5.9-39.4,15.5-53.9,28.1c-30.5,26.7-46,61.8-46,104.4c0,24,5.3,45.9,15.9,65.1
		c5.1,9.3,11.2,17.7,18.4,25.1c8,8.3,17.3,15.5,27.8,21.3c28.2,15.7,55.4,22.6,85.5,29.5c19.9,4.5,41.8,11,53.1,24.8
		c5.3,6.5,7.9,15.9,7.9,28.2c0,15.2-4.2,27.4-12.9,37.3c-8.1,9.2-19.9,15.4-33.3,17.4c-3.2,0.5-6.5,0.7-9.7,0.7
		c-19,0-36.6-8-47.1-21.5c-4.9-6.2-11.5-19.5-15.6-47.4l0,0c-1.4-9.6-9.6-16.5-19-16.5c-1.1,0-2.2,0.1-3.3,0.3l-60.4,10.5
		c-9.7,1.7-16.6,10.5-15.9,20.3l0,0c2.1,29.8,10,55.6,23.5,76.9c13.6,21.5,30.4,37.5,49.8,47.5c11,5.7,22.7,10.2,35,13.6v24.8
		c0,10.6,8.6,19.2,19.2,19.2h62.5c10.6,0,19.2-8.6,19.2-19.2v-24.2c26.8-7.4,50.1-21.1,68.1-39.9c26.3-27.6,39.6-62.3,39.6-103.1
		c0-18.6-3.2-36.3-9.6-52.6C956.5,694.9,947.1,680.4,934.9,668.2z"/>
</g>
</svg>
