<?xml version="1.0" encoding="utf-8"?>
<!-- Generator: Adobe Illustrator 18.1.1, SVG Export Plug-In . SVG Version: 6.00 Build 0)  -->
<svg version="1.1" id="Capa_1" xmlns="http://www.w3.org/2000/svg" xmlns:xlink="http://www.w3.org/1999/xlink" x="0px" y="0px"
	 width="1000px" height="1000px" viewBox="0 0 1000 1000" enable-background="new 0 0 1000 1000" xml:space="preserve">
<g>
	<path d="M255.9,847.8c0,0,106.9,10.1,204.9-96.8c-4.6-20.2-7-41-7-62.2c0-74.1,28.9-143.8,81.3-196.3
		c21.6-21.6,46.2-39.2,72.8-52.5c87-219.6,171.8-244,238.2-244v-78c0,0-158-20-258,192c-59,125-113,167.9-147.5,182.1
		c-15.4-21.9-34.6-40.8-56.6-56L50.2,528.9c-12.9,28.4-20,59.9-20,93.1C30.2,746.7,131.2,847.8,255.9,847.8z"/>
	<path d="M926.9,117.5h-37.4v78.1h37.4c21.6,0,39.1-17.5,39.1-39.1C966,135,948.5,117.5,926.9,117.5z"/>
	<path d="M50.8,495.9l310.3-87.8c13.3-3.8,21-17.6,17.3-30.9c-3.8-13.3-17.6-21-30.9-17.3L37.2,447.8c-13.3,3.8-21,17.6-17.3,30.9
		c3.1,11,13.1,18.2,24,18.2C46.2,496.9,48.5,496.6,50.8,495.9z"/>
	<path d="M731.4,441.2c-50.8,0-99.2,15.2-140.2,43.5c-12.4,8.5-24,18.2-34.9,29.1c-46.8,46.8-72.5,108.9-72.5,175.1
		c0,10.8,0.7,21.4,2,31.9c6.9,54,31.3,104,70.5,143.1c46.8,46.8,108.9,72.5,175.1,72.5c66.1,0,128.3-25.8,175.1-72.5
		c46.8-46.8,72.5-108.9,72.5-175.1c0-66.1-25.8-128.3-72.5-175.1C859.7,466.9,797.6,441.2,731.4,441.2z M731.4,851.3
		c-29.4,0-57-7.8-80.8-21.6l221.8-221.8c13.7,23.8,21.6,51.4,21.6,80.8C894,778.4,821.1,851.3,731.4,851.3z M731.4,526.2
		c29.4,0,57,7.8,80.8,21.6L590.5,769.6c-13.7-23.8-21.6-51.4-21.6-80.8C568.9,599.1,641.8,526.2,731.4,526.2z"/>
	<path d="M157.5,366.5c2.1,1.9,4.4,3.6,6.9,5.1c-5.1-3.1,20.5-38.9,23.3-42.4c11.6-14.4,24.9-27.3,37.3-41
		c17-18.9,32.2-39.8,41.3-63.5c9.7-25.2,12.8-55.3,1.4-80.6c-4-8.9-11.5-19.5-20-24.7c4.1,2.6-19,37.1-21.4,40.5
		c-10.3,14.6-22,28.2-33.4,41.9c-19.8,23.8-39.4,48.9-48.8,78.4C135.8,306.4,135.4,346.5,157.5,366.5z"/>
</g>
</svg>
