<?xml version="1.0" encoding="utf-8"?>
<!-- Generator: Adobe Illustrator 18.1.1, SVG Export Plug-In . SVG Version: 6.00 Build 0)  -->
<svg version="1.1" id="Capa_1" xmlns="http://www.w3.org/2000/svg" xmlns:xlink="http://www.w3.org/1999/xlink" x="0px" y="0px"
	 width="1000px" height="1000px" viewBox="0 0 1000 1000" enable-background="new 0 0 1000 1000" xml:space="preserve">
<g>
	<path d="M141,428.3v460.1c0,24.9,20.1,45,45,45h632c24.9,0,45-20.1,45-45V428.3c0-13.9-6.4-27-17.4-35.5
		c-27.2-21.2-76.9-66.7-76.9-116.3H502H235.3c0,49.6-49.7,95.1-76.9,116.3C147.4,401.3,141,414.4,141,428.3z M380.3,600.1
		l136.8-203.4c8.3-12.3,27.4-6.4,27.4,8.4v195h66.6c12,0,19.1,13.4,12.4,23.4L486.8,826.8c-8.3,12.3-27.4,6.4-27.4-8.4v-195h-66.6
		C380.8,623.4,373.6,610,380.3,600.1z"/>
	<path d="M226,236h552c22.6,0,41-18.4,41-41v-62c0-22.6-18.4-41-41-41H226c-22.6,0-41,18.4-41,41v62C185,217.7,203.4,236,226,236z"
		/>
</g>
</svg>
