<?xml version="1.0" encoding="utf-8"?>
<!-- Generator: Adobe Illustrator 18.1.1, SVG Export Plug-In . SVG Version: 6.00 Build 0)  -->
<svg version="1.1" id="Capa_1" xmlns="http://www.w3.org/2000/svg" xmlns:xlink="http://www.w3.org/1999/xlink" x="0px" y="0px"
	 width="1000px" height="1000px" viewBox="0 0 1000 1000" enable-background="new 0 0 1000 1000" xml:space="preserve">
<g>
	<path d="M302.7,940.2c0,20.1,16.3,36.5,36.5,36.5h394.4c20.1,0,36.5-16.3,36.5-36.5v-75.9H302.7V940.2z"/>
	<path d="M305.1,162.7l40.3,39.9c7.9-4.6,16-8.7,24.5-12.3c26.2-11.1,54-16.7,82.7-16.7h164.7c28.7,0,56.5,5.6,82.7,16.7
		c10.1,4.3,19.9,9.3,29.2,15.1l43.2-42.7c12.7-12.6,3.8-34.2-14.1-34.2H678l11.4-72.2c2.5-15.6-13.2-27.7-27.7-21.5l-60.2,26.1
		l-52.3-50.7c-5.8-5.6-15.1-5.6-20.9,0L476,60.9l-60.2-26.1c-14.5-6.3-30.2,5.9-27.7,21.5l11.4,72.2h-80.2
		C301.3,128.5,292.4,150.1,305.1,162.7z"/>
	<path d="M218.1,419.6c-45.3,0-82.1,36.7-82.1,82.1v92.5c0,28.7,10,56.5,28.3,78.5c0,0,75.9,91.6,75.9,91.6
		c16.3,19.7,37.2,59.7,66.5,59.7h456.5c20.1,0,36.5-16.3,36.5-36.5V386c0-68.1-37.3-127.5-92.6-158.8c-26.5-15-57.1-23.6-89.8-23.6
		H452.6c-30.7,0-59.6,7.6-84.9,20.9c-58,30.5-97.5,91.4-97.5,161.5v142.8c-4.7-2.3-10-5.5-15-9.8c-5.5-4.7-10.8-10.8-15-18.6
		c-5.1-9.5-8.5-21.6-8.5-37c0-26.9,0-43.8,0-43.8H218.1z"/>
</g>
</svg>
