<?xml version="1.0" encoding="utf-8"?>
<!-- Generator: Adobe Illustrator 18.1.1, SVG Export Plug-In . SVG Version: 6.00 Build 0)  -->
<svg version="1.1" id="Capa_1" xmlns="http://www.w3.org/2000/svg" xmlns:xlink="http://www.w3.org/1999/xlink" x="0px" y="0px"
	 width="1000px" height="1000px" viewBox="0 0 1000 1000" enable-background="new 0 0 1000 1000" xml:space="preserve">
<g>
	<path d="M742.1,930.6c0,22.1,17.9,40,40,40H852c22.1,0,40-17.9,40-40v-49.9H742.1V930.6z"/>
	<path d="M110,930.6c0,22.1,17.9,40,40,40h69.9c22.1,0,40-17.9,40-40v-49.9H110V930.6z"/>
	<path d="M75,408.9V166.8c-9.4-6-20.5-10.7-33.7-13.6c-15.6-3.4-30.3,8.5-30.3,24.4v151.9C11,368.5,38.4,401,75,408.9z"/>
	<path d="M960.7,153.2c-13.1,2.9-24.3,7.6-33.7,13.6v242.1c36.6-7.9,64-40.4,64-79.3V177.6C991,161.7,976.3,149.8,960.7,153.2z"/>
	<path d="M892,820.7v-410V205.3V61.7c0-22.1-17.9-40-40-40H150c-22.1,0-40,17.9-40,40v143.6v205.4v410v25h149.9h482.2H892V820.7z
		 M192.8,754.7v-86c119.9,0,149.4,86,149.4,86H192.8z M498.3,511.4c-9.4-9.5-22.2-14.8-35.6-14.8h-270l1-391h614.4v460.8v41.9H594.1
		L498.3,511.4z M658.9,754.7c0,0,29.5-86,149.4-86v86H658.9z"/>
</g>
</svg>
