<?xml version="1.0" encoding="utf-8"?>
<!-- Generator: Adobe Illustrator 18.1.1, SVG Export Plug-In . SVG Version: 6.00 Build 0)  -->
<svg version="1.1" id="Capa_1" xmlns="http://www.w3.org/2000/svg" xmlns:xlink="http://www.w3.org/1999/xlink" x="0px" y="0px"
	 width="1000px" height="1000px" viewBox="0 0 1000 1000" enable-background="new 0 0 1000 1000" xml:space="preserve">
<g>
	<path d="M324.2,820.1c56,0,109.5-16.3,155.1-46.6c-6.2-5.4-12.2-11.1-18.1-17.1c-13.3-13.6-25.2-28.3-35.7-43.8
		c-29.8,17.5-64.4,27.5-101.4,27.5c-110.7,0-200.8-90.1-200.8-200.8c0-85.2,53.4-158.2,128.4-187.3l-57.9-61.6
		c-24.9,13-47.9,29.9-68.3,50.3c-53,53-82.2,123.5-82.2,198.5c0,75,29.2,145.5,82.2,198.5C178.6,790.9,249.2,820.1,324.2,820.1z"/>
	<path d="M580.5,367.1c30.2-18.1,65.4-28.6,103.1-28.6c110.7,0,200.8,90.1,200.8,200.8c0,110.7-90.1,200.8-200.8,200.8
		c-50.6,0-100.7-19.9-137.6-54.6c-39.9-37.6-63.2-91.4-63.2-146.2c0-17.5,2.3-34.6,6.5-50.8c-4.4-14.4-10.7-28.1-18.7-41
		c-9.6-15.2-21.4-28.8-35-40.3c-21.4,40.2-32.8,85.2-32.8,132c0,80.9,36.1,159.9,97.5,212.7c48.6,41.9,111.9,66.3,176,68
		c2.4,0.1,4.8,0.1,7.3,0.1c75,0,145.5-29.2,198.5-82.2c53-53,82.2-123.5,82.2-198.5c0-75-29.2-145.5-82.2-198.5
		c-53-53-123.5-82.2-198.5-82.2c-56.7,0-110.8,16.7-156.8,47.8C547.2,324,565.3,344.5,580.5,367.1z"/>
	<path d="M492.6,314.8c-12-9.1-24.8-17.3-38.3-24.3L396.6,352c1.7,0.7,3.5,1.4,5.2,2.1c42.3,17.8,78,50.2,99.6,90.7
		c23.2,43.5,29.6,95.4,17.7,143.2l6.3,15.5c10.4,25.5,27,48.2,47.8,66c16.6-31.6,26.9-66.1,30.5-102.1c0.9-9.3,1.4-18.7,1.4-28
		C605,451.6,561.8,367.4,492.6,314.8z"/>
	<path d="M305.9,368.7c4.9,5.2,11.6,7.9,18.2,7.9c6.6,0,13.3-2.6,18.2-7.9l24.2-25.7L467,236.2c7.8-8.3,9-20.9,2.9-30.5l-34.2-53.8
		c-4.6-7.2-12.5-11.6-21.1-11.6H233.8c-8.5,0-16.5,4.4-21.1,11.6l-34.2,53.8c-6.1,9.6-5,22.2,2.9,30.5L305.9,368.7z"/>
</g>
</svg>
