<?xml version="1.0" encoding="utf-8"?>
<!-- Generator: Adobe Illustrator 18.1.1, SVG Export Plug-In . SVG Version: 6.00 Build 0)  -->
<svg version="1.1" id="Capa_1" xmlns="http://www.w3.org/2000/svg" xmlns:xlink="http://www.w3.org/1999/xlink" x="0px" y="0px"
	 width="1000px" height="1000px" viewBox="0 0 1000 1000" enable-background="new 0 0 1000 1000" xml:space="preserve">
<g>
	<path d="M234.4,559.8c-56.9,0-103.2,46.3-103.2,103.2c0,56.9,46.3,103.2,103.2,103.2c56.9,0,103.2-46.3,103.2-103.2
		C337.6,606.1,291.3,559.8,234.4,559.8z M234.4,709.7c-25.8,0-46.7-21-46.7-46.8c0-25.8,21-46.8,46.7-46.8c25.8,0,46.8,21,46.8,46.8
		C281.2,688.7,260.2,709.7,234.4,709.7z"/>
	<path d="M763.3,559.8c-56.9,0-103.2,46.3-103.2,103.2c0,56.9,46.3,103.2,103.2,103.2c56.9,0,103.2-46.3,103.2-103.2
		C866.5,606.1,820.2,559.8,763.3,559.8z M810.1,663c0,25.8-21,46.8-46.8,46.8c-25.8,0-46.8-21-46.8-46.8c0-25.8,21-46.8,46.8-46.8
		C789.1,616.2,810.1,637.2,810.1,663z"/>
	<path d="M945.8,557.7l-12.7,0l-0.2-261.4c0-15.2-12.3-27.5-27.5-27.5H398.9c-8.8,0-17.2,4.3-22.4,11.5l-101.7,142l-169.2-0.4
		c-15.2,0-27.5,12.3-27.5,27.5v108.2L58,557.4l-0.3,0c-15.2,0-27.5,12.3-27.5,27.5v30c0,15,12.2,27.4,27.2,27.5H103
		c0,0,2.2-10.9,3.8-16.3c1.5-5.3,3.4-10.5,5.6-15.6c2.2-5.1,4.7-10,7.5-14.7c2.8-4.8,5.9-9.3,9.2-13.7c3.4-4.4,7-8.6,10.9-12.5
		c2.6-2.7,5.4-5.2,8.2-7.6c24-20.5,54.6-31.8,86.1-31.8c31.6,0,62.2,11.3,86.2,31.8c23.7,20.3,39.6,48.3,44.8,78.9l0.3,2.1h266.5
		l0.4-2.1c5.1-30.6,21-58.6,44.8-78.9c24-20.5,54.6-31.8,86.2-31.8c31.6,0,62.2,11.3,86.2,31.8c23.7,20.3,39.6,48.3,44.7,78.9
		l0.3,2.1h51.2c15.2,0,27.5-12.3,27.5-27.5v-30.2C973.3,570,961,557.7,945.8,557.7z M479.4,424.8H357.6c-12.2,0-19.3-13.8-12.2-23.7
		l56.3-79c4.7-6.6,12.3-10.5,20.4-10.5h57.5c13.8,0,25,11.2,25,25v63.2C504.4,413.6,493.2,424.8,479.4,424.8z M575.3,336.7
		c0-6,2.3-11.7,6.6-15.9c4.2-4.2,9.9-6.6,15.9-6.6l256,0c6,0,11.7,2.3,15.9,6.6s6.6,9.9,6.6,15.9v63.2c0,12.4-10.1,22.5-22.5,22.5
		h-256c-12.4,0-22.5-10.1-22.5-22.5L575.3,336.7z"/>
	<path d="M454.8,168c-19.3,0-35,15.7-35,35c0,19.3,15.7,35,35,35h422c19.3,0,35-15.7,35-35c0-19.3-15.7-35-35-35H454.8z"/>
</g>
</svg>
