<?xml version="1.0" encoding="utf-8"?>
<!-- Generator: Adobe Illustrator 18.1.1, SVG Export Plug-In . SVG Version: 6.00 Build 0)  -->
<svg version="1.1" id="Capa_1" xmlns="http://www.w3.org/2000/svg" xmlns:xlink="http://www.w3.org/1999/xlink" x="0px" y="0px"
	 width="1000px" height="1000px" viewBox="0 0 1000 1000" enable-background="new 0 0 1000 1000" xml:space="preserve">
<g>
	<path d="M431.8,639.9L313,166.9c-3.8-15.1-22.4-20.4-33.7-9.7C88.7,338.7,105.8,587.3,122.8,688.9L431.8,639.9z"/>
	<path d="M469.7,633.9l397-63C828.9,453.7,696.9,139.5,352,51.3c-14.9-3.8-28.5,9.7-24.7,24.7L469.7,633.9z"/>
	<path d="M958.3,621c-0.7-16.5-14.4-29.1-30.3-29.1c-1.6,0-3.2,0.1-4.8,0.4l-47.7,7.6L477.2,663l-38,6l-310.7,49.3l-33.4,5.3
		c-21.8,3.5-35.2,25.8-27.9,46.7l34.2,98.1c5,14.3,18.4,23.8,33.5,23.8h566.8c10.7,0,21.3-1.7,31.4-5
		C941.1,819.3,961.2,684,958.3,621z"/>
</g>
</svg>
