<?xml version="1.0" encoding="utf-8"?>
<!-- Generator: Adobe Illustrator 18.1.1, SVG Export Plug-In . SVG Version: 6.00 Build 0)  -->
<svg version="1.1" id="Capa_1" xmlns="http://www.w3.org/2000/svg" xmlns:xlink="http://www.w3.org/1999/xlink" x="0px" y="0px"
	 width="1000px" height="1000px" viewBox="0 0 1000 1000" enable-background="new 0 0 1000 1000" xml:space="preserve">
<g>
	<path d="M134.2,890.3c0,19.3,15.7,35,35,35h62.9c19.3,0,35-15.7,35-35v-52.1H134.2V890.3z"/>
	<path d="M695.9,890.3c0,19.3,15.7,35,35,35h62.9c19.3,0,35-15.7,35-35v-52.1H695.9V890.3z"/>
	<path d="M784.4,173.6H179.8v528.1h604.6V173.6z M482.1,603.8c-67.2,0-125.1-39.9-151.3-97.4c-4.9-10.7-8.6-22-11.1-33.7h-27.5
		c-13.8,0-25-11.2-25-25v-20c0-13.8,11.2-25,25-25h27.5c2.5-11.8,6.3-23.1,11.1-33.7c26.1-57.5,84.1-97.4,151.3-97.4
		c91.8,0,166.1,74.4,166.1,166.1C648.2,529.4,573.8,603.8,482.1,603.8z"/>
	<circle cx="482.1" cy="437.6" r="95"/>
	<path d="M938.7,180.6h-15h-30v-74.6c0-21.5-17.5-39-39-39H109.5c-21.5,0-39,17.5-39,39v663.1c0,21.5,17.5,39,39,39h24.7h132.9
		h428.8h132.9h25.9c21.5,0,39-17.5,39-39v-74.6h45c19.3,0,35-15.7,35-35v-62.9c0-19.3-15.7-35-35-35h-45V313.5h45
		c19.3,0,35-15.7,35-35v-62.9C973.7,196.3,958,180.6,938.7,180.6z M179.8,734.3h-3.6c-16.6,0-30-13.4-30-30v-2.6V173.6V171
		c0-16.6,13.4-30,30-30h3.6h604.6h3.6c16.6,0,30,13.4,30,30v2.6v528.1v2.6c0,16.6-13.4,30-30,30h-3.6H179.8z"/>
</g>
</svg>
