<?xml version="1.0" encoding="utf-8"?>
<!-- Generator: Adobe Illustrator 18.1.1, SVG Export Plug-In . SVG Version: 6.00 Build 0)  -->
<svg version="1.1" id="Capa_1" xmlns="http://www.w3.org/2000/svg" xmlns:xlink="http://www.w3.org/1999/xlink" x="0px" y="0px"
	 width="1000px" height="1000px" viewBox="0 0 1000 1000" enable-background="new 0 0 1000 1000" xml:space="preserve">
<rect x="454" y="216" width="89.2" height="371.6"/>
<path d="M411.3,91c0-19.3-15.7-35-35-35H272.9c-19.3,0-35,15.7-35,35v90.9h173.4V91z"/>
<path d="M359.7,638.2c0-28.5,23.1-51.6,51.6-51.6V216H186.2c-19.3,0-35,15.7-35,35v81.7c0,81.5-18,162-52.6,235.8v0
	c-34.7,73.8-52.6,154.3-52.6,235.8v29.5h313.8V638.2z"/>
<path d="M45.9,907.7c0,19.3,15.7,35,35,35h243.8c19.3,0,35-15.7,35-35v-44.9H45.9V907.7z"/>
<path d="M759.3,91c0-19.3-15.7-35-35-35H620.8c-19.3,0-35,15.7-35,35v90.9h173.4V91z"/>
<path d="M951.3,804.3c0-81.5-18-162-52.6-235.8v0C863.9,494.7,846,414.2,846,332.7V251c0-19.3-15.7-35-35-35H585.8v370.6l0,0
	c28.5,0,51.6,23.1,51.6,51.6v195.5h313.8V804.3z"/>
<path d="M637.5,907.7c0,19.3,15.7,35,35,35h243.8c19.3,0,35-15.7,35-35v-44.9H637.5V907.7z"/>
</svg>
