<?xml version="1.0" encoding="utf-8"?>
<!-- Generator: Adobe Illustrator 18.1.1, SVG Export Plug-In . SVG Version: 6.00 Build 0)  -->
<svg version="1.1" id="Capa_1" xmlns="http://www.w3.org/2000/svg" xmlns:xlink="http://www.w3.org/1999/xlink" x="0px" y="0px"
	 width="1000px" height="1000px" viewBox="0 0 1000 1000" enable-background="new 0 0 1000 1000" xml:space="preserve">
<path d="M943.3,636.9l-4-31.4c-4.1-32.2-27.5-58.7-58.9-66.8C676,486.3,540,323.3,503.4,265.8c-8.1-12.6-22-20.3-37-20.3H445
	c-22.2,0-41,16.6-43.6,38.7c-8.4,71-43.6,112.6-131.7,112.6c-64.3,0-88.5-36.1-97.6-63.2c-6-17.7-22.8-29.6-41.5-29.6h-29.8
	c-24.2,0-43.9,19.6-43.9,43.9v340.7c0,36.3,29.5,65.8,65.8,65.8h121.1c18.6,0,36.7-6,51.8-16.9c101.9-73.8,112.4,16.9,312.7,16.9
	c121.5,0,215.9-16.3,274.8-30.4C922.5,714.6,948.4,677.1,943.3,636.9z M275.6,670.9c0,13.3-10.8,24.1-24.1,24.1H144.2
	c-13.3,0-24.1-10.8-24.1-24.1l0,0c0-13.3,10.8-24.1,24.1-24.1h107.3C264.8,646.8,275.6,657.6,275.6,670.9L275.6,670.9z M836.4,680.2
	c-73.4,17.4-137.7,23-190,23c-30.2,0-56.4-1.9-78-4.4c-39.2-4.6-68.7-11.8-87.1-17.2c-12-3.6-18.3-16.8-13.5-28.4l0.1-0.1
	c4.2-10,15.1-15.1,25.5-12.1c16.7,4.9,44.6,11.8,82,16c55.3,6.2,142.6,7.8,251.5-18c11.1-2.6,22.3,4.1,25.2,15.2l0,0.1
	C855,665.8,848,677.5,836.4,680.2z"/>
</svg>
