<?xml version="1.0" encoding="utf-8"?>
<!-- Generator: Adobe Illustrator 18.1.1, SVG Export Plug-In . SVG Version: 6.00 Build 0)  -->
<svg version="1.1" id="Capa_1" xmlns="http://www.w3.org/2000/svg" xmlns:xlink="http://www.w3.org/1999/xlink" x="0px" y="0px"
	 width="1000px" height="1000px" viewBox="0 0 1000 1000" enable-background="new 0 0 1000 1000" xml:space="preserve">
<g>
	<path d="M545.5,835.8c-55.7,18-113.4,16.4-166.3-10.5L303,930.2c43.3,21.7,90.2,36.5,138.9,43.4c53.5,7.6,107.4,5.4,160.2-6.2
		c31.7-7,61.8-17.1,90.2-30l-94-129.4C582.3,819.5,564.7,828.9,545.5,835.8z"/>
	<path d="M268.9,682.9c-1.9-8.5-3.2-16.9-4-25.3c-1.3-14.2-20.3-18.1-26.9-5.5c-18.6,35.2-18.7,60.2-18.7,60.2
		c-41.6-68.3-104-95.6-137.1-105.8c-10.5-3.2-20.6,6-18.3,16.7c0,0.1,0,0.1,0,0.2c27.9,126.5,106.3,228.8,209.3,290.5l77.2-106.3
		C310.4,778.4,280.4,735.1,268.9,682.9z"/>
	<path d="M680.5,594.7c4.5,21.8,5.1,43.6,2.5,65.1c-25.2-7.6-60.6-7.4-101.7,23.8c0,0,45.3,8.1,79,22.4
		c-30.7-4.4-73.3,2.1-114.9,50.3c0,0,56.3-1.9,97.9,7c-5.9,8-12.4,15.5-19.4,22.6L722.8,922c46.1-25.3,86.7-58.2,120.6-96.7
		c39.5-39.5,70.2-106.7,70.2-106.7c30.8-65.3,46.2-138.3,42.5-213.5L680.5,594.7z"/>
	<path d="M870.9,261.6l-0.9,1.1c-21,25.9-44.8,49.4-70.9,69.7c-25.4,19.8-53.1,36.7-82.3,50.4c-28.7,13.4-59,23.7-90,30.6
		c-30.9,6.8-62.5,10.3-94.1,10.3c-8.5,0-17-0.3-25.5-0.8c28,5.6,54.6,19.7,78.3,35.6c2.1,1.4,9.1,6.2,18.3,13.8
		c-25.3,11.2-57.5,37.4-61.8,99c0,0,67.8-54.3,102.5-55c-22.7,13.9-59.5,48-45.1,120c0,0,28.8-65,132.1-92.6
		c73.4-19.6,221.5-72.9,221.5-72.9c-1.7-13.8-4.1-27.6-7.1-41.4C932.3,366.8,906.2,310.2,870.9,261.6z"/>
	<path d="M604.5,85l-7.3-0.9l-80.5-9.4L127.9,29.5c-0.6-0.1-1.2-0.1-1.7-0.1c-10.4,0-17.6,11-12.9,20.7L170,166.5
		c29.3,60.3,73.2,112.3,127.6,151.4c59.1,42.4,125.9,66.6,193.7,73.6c13.8,1.4,27.6,2.1,41.3,2.1c118,0,234.6-51.5,314-149.8
		l4.3-5.4C851,238.4,679.8,93.8,604.5,85z M521.5,229.1c-12.2,0-23-5.5-30.2-14.2c-5.7-6.8-9.1-15.6-9.1-25.1
		c0-9.5,3.4-18.3,9.1-25.1c7.2-8.7,18.1-14.2,30.2-14.2c21.7,0,39.3,17.6,39.3,39.3S543.2,229.1,521.5,229.1z"/>
</g>
</svg>
