<?xml version="1.0" encoding="utf-8"?>
<!-- Generator: Adobe Illustrator 18.1.1, SVG Export Plug-In . SVG Version: 6.00 Build 0)  -->
<svg version="1.1" id="Capa_1" xmlns="http://www.w3.org/2000/svg" xmlns:xlink="http://www.w3.org/1999/xlink" x="0px" y="0px"
	 width="1000px" height="1000px" viewBox="0 0 1000 1000" enable-background="new 0 0 1000 1000" xml:space="preserve">
<g>
	<path d="M437.8,250.3c29.6-22.6,60.7-34.1,92.5-34.1c0.3,0,0.5,0,0.8,0c9.9-27.9,22-54.7,35.7-78.9c9-15.8,18.4-30.2,28.4-43.3
		C561.3,48.2,519.4,17.2,474,17.2c-57.9,0-110.1,50.4-147.3,118c13.1,6.2,26,14.5,38.5,24.9c26.5,21.8,50.7,51.8,72,89.3
		C437.4,249.7,437.6,250,437.8,250.3z"/>
	<path d="M737.3,39.2c-38.3,0-74.1,22-104.7,56.5c-7.1,7.9-13.6,16.3-19.8,25c-20.5,28.9-38,63.2-51.3,99.3
		c23.1,5.6,45.6,17.3,67.3,35.2c61.4,50.5,97.7,127.4,118.6,202.6c11.2,40.4,17.2,80.9,17.2,117.2c0,2.2,0,4.4-0.1,6.5
		c100-11.6,177.1-87.8,177.1-213.6C941.7,231,850.2,39.2,737.3,39.2z"/>
	<path d="M62.3,479.9c0,48.2,11.3,89,30.9,121.8c9.5-26,21-51,33.9-73.7c21.3-37.4,45.5-67.4,72-89.3
		c36.8-30.3,84.9-46.9,132.1-34.6c8.4-21,17.9-41.1,28.5-59.7c16.6-29.3,35.1-54,55-73.8c-29.6-54.4-79.4-119.4-148.1-119.4
		C153.8,151.1,62.3,342.9,62.3,479.9z"/>
	<path d="M532,758.6c0,10.8-0.5,21.3-1.6,31.6c-0.4,3.6,68.7-10.5,74.8-12.7c25-9,48.1-23,67.3-41.4
		c109.3-104.8,61.1-301.1-18.4-408.4c-36-48.6-96.2-87.2-158.7-71.2c-69.6,17.9-111.7,96.7-136.2,158.1c12.6,6.1,24.9,14.2,37,24.1
		c61.3,50.5,97.7,127.5,118.6,202.6C526.1,681.8,532,722.3,532,758.6z"/>
	<path d="M468.2,589.9c-25.3-62.6-64.9-118.7-119.3-146.9c-29.6-15.3-63.9-17.2-94.5-3.9C143.1,487.6,93.3,646.6,93.3,758.6
		c0,137,91.5,215.2,204.3,215.2c78.3,0,148.7-43.3,182.3-114.3C519.6,776,501.5,672.3,468.2,589.9z"/>
</g>
</svg>
