<?xml version="1.0" encoding="utf-8"?>
<!-- Generator: Adobe Illustrator 18.1.1, SVG Export Plug-In . SVG Version: 6.00 Build 0)  -->
<svg version="1.1" id="Capa_1" xmlns="http://www.w3.org/2000/svg" xmlns:xlink="http://www.w3.org/1999/xlink" x="0px" y="0px"
	 width="1000px" height="1000px" viewBox="0 0 1000 1000" enable-background="new 0 0 1000 1000" xml:space="preserve">
<g>
	<path d="M523.2,459.3c52.4-52.4,122.1-81.3,196.3-81.3c37.9,0,74.7,7.6,108.5,22v-46.6c0-22.1-17.9-40-40-40H170.1v200.8h310.4
		C492.2,494.4,506.5,475.9,523.2,459.3z"/>
	<path d="M64.7,514.1h60.4V313.3H64.7c-22.1,0-40,17.9-40,40v120.8C24.7,496.2,42.6,514.1,64.7,514.1z"/>
	<path d="M102.3,272.5c1.2,2.5,2.7,5,4.4,7.3c-3.5-4.7,33.7-28.2,37.6-30.4c16.2-8.9,33.4-15.8,50-23.8c22.9-11,44.9-24.6,62.3-43.1
		c18.6-19.7,32.8-46.3,31.8-74c-0.3-9.8-3.3-22.4-9.1-30.4c2.9,3.9-31.7,27.2-35.1,29.4c-15.1,9.6-31,17.7-46.8,26.1
		c-27.4,14.5-55,30.3-74.9,54C105,208.7,89.5,245.6,102.3,272.5z"/>
	<path d="M967,655.5c0-66.1-25.8-128.3-72.5-175.1c-19.7-19.7-42.2-35.7-66.5-47.6c-33.4-16.3-70.3-24.9-108.5-24.9
		c-66.1,0-128.3,25.8-175.1,72.5c-10.5,10.5-19.9,21.7-28.2,33.6c-28.8,41.2-44.3,90.1-44.3,141.4c0,66.1,25.8,128.3,72.5,175.1
		c46.8,46.8,108.9,72.5,175.1,72.5c66.1,0,128.3-25.8,175.1-72.5C941.2,783.8,967,721.7,967,655.5z M719.4,818
		c-29.4,0-57-7.8-80.8-21.6l221.8-221.8c13.7,23.8,21.6,51.4,21.6,80.8C882,745.1,809,818,719.4,818z M639.4,514.1
		c23.6-13.4,50.9-21.1,80-21.1c28.2,0,54.8,7.3,78,20c1,0.5,1.9,1,2.9,1.6L578.5,736.4c-13.7-23.8-21.6-51.4-21.6-80.8
		C556.9,595,590.2,542.1,639.4,514.1z"/>
</g>
</svg>
