<?xml version="1.0" encoding="utf-8"?>
<!-- Generator: Adobe Illustrator 18.1.1, SVG Export Plug-In . SVG Version: 6.00 Build 0)  -->
<svg version="1.1" id="Capa_1" xmlns="http://www.w3.org/2000/svg" xmlns:xlink="http://www.w3.org/1999/xlink" x="0px" y="0px"
	 width="1000px" height="1000px" viewBox="0 0 1000 1000" enable-background="new 0 0 1000 1000" xml:space="preserve">
<g>
	<path d="M29.4,612.5l47.3,111.1c8.7,20.3,32.2,29.8,52.5,21.1l55.6-23.7l-78.7-184.7L50.5,560C30.2,568.7,20.7,592.2,29.4,612.5z"
		/>
	<path d="M416.2,404.3L147.5,518.7l78.7,184.7l242.6-103.3l36.4-70.7c2.7-5.2,0.3-11.6-5-13.8l-98.3-41l27.3-56.8
		C433.1,409.5,424.6,400.7,416.2,404.3z"/>
	<path d="M533.7,596.2l307.8,108.9c20.8,7.4,43.7-3.5,51.1-24.4l40.3-113.9c7.4-20.8-3.5-43.7-24.4-51.1L626.3,416l-73.4,29.3
		c-5.3,2.1-7.8,8.3-5.4,13.5l44.9,97l-58.8,21.6C524.8,580.6,524.9,593.1,533.7,596.2z"/>
	<path d="M70.3,502.5c2.1,1.9,4.4,3.6,6.9,5.1c-5.1-3.1,20.5-38.9,23.3-42.4c11.6-14.4,24.9-27.3,37.3-41
		c17-18.9,32.2-39.8,41.3-63.5c9.7-25.2,12.8-55.3,1.4-80.6c-4-8.9-11.5-19.5-20-24.7c4.1,2.6-19,37.1-21.4,40.5
		c-10.3,14.6-22,28.2-33.4,41.9c-19.8,23.8-39.4,48.9-48.8,78.4C48.6,442.4,48.2,482.5,70.3,502.5z"/>
</g>
</svg>
