<?xml version="1.0" encoding="utf-8"?>
<!-- Generator: Adobe Illustrator 18.1.1, SVG Export Plug-In . SVG Version: 6.00 Build 0)  -->
<svg version="1.1" id="Capa_1" xmlns="http://www.w3.org/2000/svg" xmlns:xlink="http://www.w3.org/1999/xlink" x="0px" y="0px"
	 width="1000px" height="1000px" viewBox="0 0 1000 1000" enable-background="new 0 0 1000 1000" xml:space="preserve">
<g>
	<path d="M90.8,883.6c5,12.8,15.2,23,28,28c67.5,26.3,138.7,40,210.1,41.4L49.4,673.5C50.7,744.9,64.5,816.2,90.8,883.6z"/>
	<path d="M909.2,121.2c-5-12.8-15.2-23-28-28c-66.1-25.7-135.8-39.5-205.7-41.3L950.5,327C948.7,257,935,187.3,909.2,121.2z"/>
	<path d="M228,230.4C123.3,335.2,64.6,468.5,51.9,605.3l345.2,345.2c136.8-12.7,270.2-71.4,374.9-176.1
		c105.7-105.7,164.6-240.6,176.5-378.8L606.8,54C468.6,65.9,333.7,124.7,228,230.4z M692.3,305.9l4.2,4.2c9.8,9.8,9.8,25.6,0,35.4
		l-39.2,39.2l26.1,26.1c9.8,9.8,9.8,25.6,0,35.4l-4.2,4.2c-9.8,9.8-25.6,9.8-35.4,0l-26.1-26.1l-78.2,78.2l26.1,26.1
		c9.8,9.8,9.8,25.6,0,35.4l-4.2,4.2c-9.8,9.8-25.6,9.8-35.4,0L500,542l-78.2,78.2l26.1,26.1c9.8,9.8,9.8,25.6,0,35.4l-4.2,4.2
		c-9.8,9.8-25.6,9.8-35.4,0l-26.1-26.1l-39.2,39.2c-9.8,9.8-25.6,9.8-35.4,0l-4.2-4.2c-9.8-9.8-9.8-25.6,0-35.4l39.2-39.2
		l-26.1-26.1c-9.8-9.8-9.8-25.6,0-35.4l4.2-4.2c9.8-9.8,25.6-9.8,35.4,0l26.1,26.1l78.2-78.2l-26.1-26.1c-9.8-9.8-9.8-25.6,0-35.4
		l4.2-4.2c9.8-9.8,25.6-9.8,35.4,0l26.1,26.1l78.2-78.2l-26.1-26.1c-9.8-9.8-9.8-25.6,0-35.4l4.2-4.2c9.8-9.8,25.6-9.8,35.4,0
		l26.1,26.1l39.2-39.2C666.7,296.2,682.5,296.2,692.3,305.9z"/>
</g>
<path d="M328.9,953.1l44.1,44.1l35.4-35.4l-11.3-11.3C374.4,952.7,351.6,953.5,328.9,953.1z"/>
</svg>
