<?xml version="1.0" encoding="utf-8"?>
<!-- Generator: Adobe Illustrator 18.1.1, SVG Export Plug-In . SVG Version: 6.00 Build 0)  -->
<svg version="1.1" id="Capa_1" xmlns="http://www.w3.org/2000/svg" xmlns:xlink="http://www.w3.org/1999/xlink" x="0px" y="0px"
	 width="1000px" height="1000px" viewBox="0 0 1000 1000" enable-background="new 0 0 1000 1000" xml:space="preserve">
<g>
	<path d="M186.5,189.8c-168.3,175.1-162.8,453.6,12.3,622c175.1,168.3,453.6,162.8,622-12.3c86.6-90.1,127.2-207.5,122.4-323.2
		c-41,23.1-78.1,51.6-110.7,85.3c-18.5,19.1-35,39.7-52.5,61.6c-17.2,21.5-34.9,43.6-54.8,64.3c-54.3,56.5-127.3,88.4-205.7,90
		c-2,0-4,0.1-6,0.1c-76.1,0-148.1-28.9-203.1-81.8c-56.5-54.3-88.4-127.3-90-205.7c-1.6-78.3,27.5-152.6,81.8-209.1
		c19.8-20.6,41.3-39.3,62.1-57.3c21.1-18.3,41.1-35.6,59.5-54.9c32.3-33.9,59.4-72.1,80.8-114C388.7,54.5,273,99.7,186.5,189.8z"/>
	<path d="M400.3,265.1c-20.7,18-40.3,35-58.5,53.8c-44.1,45.9-67.7,106.2-66.5,169.9c1.3,63.6,27.2,123,73.1,167.1
		c45.9,44.1,106.2,67.7,169.9,66.5c63.6-1.3,123-27.2,167.1-73.1c18.1-18.8,34.3-39.1,51.5-60.5c17.5-21.9,35.6-44.5,55.9-65.5
		c41.6-43,90-78.6,143.7-105.9c-15.7-88.4-58.5-172.8-128.2-239.8C738.7,110.5,652.7,71,563.7,58.8
		c-25.2,54.8-58.8,104.5-100.1,147.8C443.4,227.7,421.5,246.7,400.3,265.1z"/>
</g>
</svg>
