<?xml version="1.0" encoding="utf-8"?>
<!-- Generator: Adobe Illustrator 18.1.1, SVG Export Plug-In . SVG Version: 6.00 Build 0)  -->
<svg version="1.1" id="Capa_1" xmlns="http://www.w3.org/2000/svg" xmlns:xlink="http://www.w3.org/1999/xlink" x="0px" y="0px"
	 width="1000px" height="1000px" viewBox="0 0 1000 1000" enable-background="new 0 0 1000 1000" xml:space="preserve">
<g>
	<path d="M213.9,443.2c-36.8,36-59.6,86.3-59.6,141.9c0,55.5,22.8,105.8,59.6,141.8c8.1,8,21.2,8,29.3,0
		c36.8-36,59.6-86.3,59.6-141.8c0-55.6-22.9-105.8-59.6-141.8C235.1,435.2,222,435.2,213.9,443.2z"/>
	<path d="M411.2,693.4c-55.5,0-105.8,22.8-141.8,59.6c-8,8.1-8,21.2,0,29.3c36.1,36.8,86.3,59.6,141.8,59.6
		c55.6,0,105.8-22.8,141.9-59.6c8-8.2,8-21.2,0-29.3C516.9,716.2,466.7,693.4,411.2,693.4z"/>
	<path d="M357.4,299.7c-36.8,36-59.6,86.3-59.6,141.9c0,55.5,22.8,105.8,59.6,141.8c8.1,8,21.2,8,29.3,0
		c36.8-36,59.6-86.3,59.6-141.8c0-55.6-22.9-105.8-59.6-141.8C378.6,291.7,365.5,291.7,357.4,299.7z"/>
	<path d="M696.5,609.5c-36.1-36.8-86.3-59.6-141.8-59.6c-55.5,0-105.8,22.8-141.8,59.6c-8,8.1-8,21.2,0,29.3
		c36.1,36.8,86.3,59.6,141.8,59.6c55.6,0,105.8-22.8,141.9-59.6C704.5,630.7,704.5,617.7,696.5,609.5z"/>
	<path d="M530.2,156.3c-8.1-8-21.2-8-29.3,0c-36.8,36-59.6,86.3-59.6,141.9c0,55.5,22.8,105.8,59.6,141.8c8.1,8,21.2,8,29.3,0
		c36.8-36,59.6-86.3,59.6-141.8C589.8,242.5,567,192.3,530.2,156.3z"/>
	<path d="M698.1,406.4c-55.5,0-105.8,22.8-141.8,59.6c-8,8.1-8,21.2,0,29.3c36.1,36.8,86.3,59.6,141.8,59.6
		c55.6,0,105.8-22.8,141.9-59.6c8-8.2,8-21.2,0-29.3C803.9,429.3,753.7,406.4,698.1,406.4z"/>
	<path d="M673.7,12.8c-8.1-8-21.2-8-29.3,0c-36.8,36-59.6,86.3-59.6,141.9c0,55.5,22.8,105.8,59.6,141.8c8.1,8,21.2,8,29.3,0
		c36.8-36,59.6-86.3,59.6-141.8C733.3,99.1,710.4,48.8,673.7,12.8z"/>
	<path d="M841.6,262.9c-55.5,0-105.8,22.8-141.8,59.6c-8,8.1-8,21.2,0,29.3c36.1,36.8,86.3,59.6,141.8,59.6
		c55.6,0,105.8-22.8,141.9-59.6c8-8.2,8-21.2,0-29.3C947.4,285.8,897.2,263,841.6,262.9z"/>
	<path d="M823,68.1c-39.3,39.3-58.6,90.9-58.1,142.5c0.1,11.4,9.3,20.6,20.7,20.7c51.5,0.5,103.2-18.8,142.5-58.1
		c39.3-39.3,58.6-91,58.1-142.5c-0.1-11.4-9.3-20.6-20.7-20.7C914,9.5,862.3,28.8,823,68.1z"/>
	<path d="M42.9,965.1c11.7,11.7,30.7,11.7,42.4,0L223,827.4c11.7-11.7,11.7-30.7,0-42.4l-12.7-12.7c-11.7-11.7-30.7-11.7-42.4,0
		L30.2,909.9c-11.7,11.7-11.7,30.7,0,42.4L42.9,965.1z"/>
</g>
</svg>
