<?xml version="1.0" encoding="utf-8"?>
<!-- Generator: Adobe Illustrator 18.1.1, SVG Export Plug-In . SVG Version: 6.00 Build 0)  -->
<svg version="1.1" id="Capa_1" xmlns="http://www.w3.org/2000/svg" xmlns:xlink="http://www.w3.org/1999/xlink" x="0px" y="0px"
	 width="1000px" height="1000px" viewBox="0 0 1000 1000" enable-background="new 0 0 1000 1000" xml:space="preserve">
<g>
	<path d="M63.9,685.6c-26.1,5-43.2,30.2-38.2,56.3c4.4,23,24.6,39,47.2,39c3,0,6.1-0.3,9.1-0.9l198-38c11.3-2.2,21.4-8.3,28.6-17.3
		l85-107.2L365.2,603c-21-10.6-35.6-29.8-40.6-53.1l-80.2,101.1L63.9,685.6z"/>
	<circle cx="769.1" cy="162.2" r="105.4"/>
	<path d="M539.1,135.8c-11.1-11.4-21.4-15.9-32.7-15.9c-4.1,0-8.2,0.6-12.6,1.6l-180.9,42.9c-25,5.9-40.4,31-34.5,55.9
		c5.1,21.4,24.1,35.8,45.2,35.8c3.6,0,7.2-0.4,10.8-1.3l154.1-36.5c10,11.1,60.1,65.4,69.2,75c0,0,0,0,0,0
		c-63.7,68.2-127.4,136.3-191.1,204.5c-1,1.1-1.9,2.2-2.8,3.3c-18.6,23.7-12.9,60.9,15.1,75l33.9,17.3l161.4,82.4L472.8,840.1
		c-13.9,22.6-6.9,52.2,15.7,66.2c7.9,4.9,16.6,7.2,25.2,7.2h0c16.1,0,31.9-8.1,41-22.8l128.8-208.7c7.1-11.5,9-25.4,5.3-38.3
		c-3.7-13-12.6-23.8-24.7-29.9l-132.3-67.3l139.1-148.8l105,89c8.7,7.4,19.4,11,30,11c11.4,0,22.8-4.2,31.7-12.4L958.1,373
		c18.8-17.5,19.9-46.9,2.4-65.7c-9.2-9.8-21.6-14.8-34-14.8c-11.3,0-22.7,4.1-31.6,12.4l-90.2,83.9
		C804.6,388.9,578.6,176.3,539.1,135.8z"/>
</g>
</svg>
