<?xml version="1.0" encoding="utf-8"?>
<!-- Generator: Adobe Illustrator 18.1.1, SVG Export Plug-In . SVG Version: 6.00 Build 0)  -->
<svg version="1.1" id="Capa_1" xmlns="http://www.w3.org/2000/svg" xmlns:xlink="http://www.w3.org/1999/xlink" x="0px" y="0px"
	 width="1000px" height="1000px" viewBox="0 0 1000 1000" enable-background="new 0 0 1000 1000" xml:space="preserve">
<g>
	<path d="M453.1,670l-61.2-10.2c-12.5-2.1-24-7-33.8-14.4v275c0,26.2,21.3,47.5,47.5,47.5s47.5-21.3,47.5-47.5V670z"/>
	<path d="M278.3,326.6l-68.2,157.8c-9.9,22.8,0.6,49.3,23.5,59.2c5.8,2.5,11.9,3.7,17.8,3.7c17.4,0,34-10.2,41.3-27.2l59.4-137.4
		l35.1-8.7l-25.9,177.4l-3.2,21.9l-0.4,2.4c-1,6-0.8,11.9,0.4,17.5c3.9,18.6,18.8,33.9,38.7,37.2l56.3,9.4l158,26.3v133.5
		c0,26.2,21.3,47.5,47.5,47.5s47.5-21.3,47.5-47.5V625.7c0-23.2-16.8-43-39.7-46.9l-147.8-24.6c0,0,35.8-248,35.6-251
		c0.8-5.5,0.5-11.3-0.9-17.1c-5.1-20.5-23.5-34.1-43.6-34.1c-3.6,0-7.3,0.4-10.9,1.3l-190,47.4C295.1,304.1,283.9,313.7,278.3,326.6
		z"/>
	<path d="M498.2,222.9c12.1,5.2,25.5,8.1,39.5,8.1c2.4,0,4.8-0.1,7.1-0.3c52.1-3.6,93.2-47.1,93.2-100.1
		c0-55.4-44.9-100.4-100.4-100.4c-7.3,0-14.5,0.8-21.4,2.3c-8.5,1.8-16.5,4.7-24,8.5c-32.6,16.6-55,50.4-55,89.5
		C437.3,172,462.4,207.6,498.2,222.9z"/>
	<circle cx="712.1" cy="397.6" r="95.6"/>
</g>
</svg>
