<?xml version="1.0" encoding="utf-8"?>
<!-- Generator: Adobe Illustrator 18.1.1, SVG Export Plug-In . SVG Version: 6.00 Build 0)  -->
<svg version="1.1" id="Capa_1" xmlns="http://www.w3.org/2000/svg" xmlns:xlink="http://www.w3.org/1999/xlink" x="0px" y="0px"
	 width="1000px" height="1000px" viewBox="0 0 1000 1000" enable-background="new 0 0 1000 1000" xml:space="preserve">
<g>
	<path d="M66.4,840.1C66.4,840.1,66.4,840.1,66.4,840.1l42.1-0.1c15.6,0,29-10.8,32.5-26l54.4-239l44.4-79.6v313
		c0,16,9.5,30.4,24.1,36.8c98.2,42.8,212.3,44.8,212.3,44.8l24.5-72.8l24.5,72.8c0,0,114.1-2,212.3-44.8
		c14.6-6.4,24.1-20.8,24.1-36.8v-313L806,575l54.4,239c3.5,15.2,16.9,25.9,32.5,26l42.1,0.1c0,0,0,0,0,0c20.3,0,35.9-17.9,33-38
		l-39.7-284.6c-1.2-8.3-3.5-16.3-6.8-23.9L780,176.2c-6.5-14.5-20.8-23.8-36.7-23.8h-95.4L500.7,483.2L353.4,152.4H258
		c-15.8,0-30.2,9.3-36.7,23.8L79.9,493.6c-3.4,7.6-5.7,15.7-6.8,23.9L33.3,802.1C30.5,822.2,46.1,840.1,66.4,840.1z M499.5,532.1
		c12.4,0,22.4,10,22.4,22.4c0,12.4-10,22.4-22.4,22.4c-12.4,0-22.4-10-22.4-22.4C477.1,542.1,487.2,532.1,499.5,532.1z M499.5,627.5
		c12.4,0,22.4,10,22.4,22.4c0,12.4-10,22.4-22.4,22.4c-12.4,0-22.4-10-22.4-22.4C477.1,637.5,487.2,627.5,499.5,627.5z M499.5,722.8
		c12.4,0,22.4,10,22.4,22.4c0,12.4-10,22.4-22.4,22.4c-12.4,0-22.4-10-22.4-22.4C477.1,732.9,487.2,722.8,499.5,722.8z"/>
	<path d="M555,153.9l-54.4,28.7l-54.4-28.7c-13.4-7-29.4,2.6-29.4,17.8v39.5c0,0.5,0,1,0.1,1.5c0.4,4.9,2.4,9.1,5.5,12.3
		c5.9,6.1,15.4,8.4,23.9,3.9l54.4-28.7l54.4,28.7c8.5,4.5,18,2.2,23.9-3.9c3.1-3.2,5.1-7.4,5.5-12.3c0-0.5,0.1-1,0.1-1.5v-39.5
		C584.5,156.5,568.4,146.9,555,153.9z"/>
</g>
</svg>
