<?xml version="1.0" encoding="utf-8"?>
<!-- Generator: Adobe Illustrator 18.1.1, SVG Export Plug-In . SVG Version: 6.00 Build 0)  -->
<svg version="1.1" id="Capa_1" xmlns="http://www.w3.org/2000/svg" xmlns:xlink="http://www.w3.org/1999/xlink" x="0px" y="0px"
	 width="1000px" height="1000px" viewBox="0 0 1000 1000" enable-background="new 0 0 1000 1000" xml:space="preserve">
<g>
	<path d="M858.4,244.9V85.2c0-19.3-15.7-35-35-35H503.1c-19.3,0-35,15.7-35,35v159.7h70V120.2h250.3v124.7H858.4z"/>
	<path d="M913.3,274.9h-54.9H468.1h-54.9c-16.6,0-30,13.4-30,30v65.9h55.7c34.5,0,62.5,28,62.5,62.5V505h136c33.1,0,60,26.9,60,60
		v354.7c0,10.5-2.7,20.4-7.5,29h223.4c16.6,0,30-13.4,30-30V304.9C943.3,288.3,929.9,274.9,913.3,274.9z"/>
	<path d="M471.4,505v-71.7c0-17.9-14.6-32.5-32.5-32.5h-55.7h-15h-15h-79.6c-17.9,0-32.5,14.6-32.5,32.5V505h65v-39.2h47.1h15h15
		h23.2V505H471.4z"/>
	<path d="M75.1,535c-16.6,0-30,13.4-30,30v354.7c0,16.6,13.4,30,30,30h286.8h18.8h256.7c2.7,0,5.2-0.4,7.7-1
		c12.8-3.4,22.3-15.1,22.3-29V565c0-16.6-13.4-30-30-30H75.1z M270.2,851c-36.9,19.5-78.6,13.1-93.1-14.4
		c-14.5-27.4,3.7-65.5,40.6-85c36.9-19.5,78.6-13.1,93.1,14.4C325.3,793.5,307.1,831.5,270.2,851z M569.4,722.1
		c17.7,13.2,21.4,38.2,8.3,56l-18.2,24.5c-13.2,17.7-38.2,21.4-56,8.3l-113.4-84.2c-2.6-1.9-4.9-4.1-6.8-6.5
		c-11.6-13.9-12.7-34.3-1.4-49.5l1.4-1.9l16.8-22.6c5.4-7.2,12.7-12.1,20.7-14.5c7.2-2.1,14.9-2.2,22.3-0.1c4.6,1.3,9,3.4,13,6.4
		L569.4,722.1z"/>
</g>
</svg>
