<?xml version="1.0" encoding="utf-8"?>
<!-- Generator: Adobe Illustrator 18.1.1, SVG Export Plug-In . SVG Version: 6.00 Build 0)  -->
<svg version="1.1" id="Capa_1" xmlns="http://www.w3.org/2000/svg" xmlns:xlink="http://www.w3.org/1999/xlink" x="0px" y="0px"
	 width="1000px" height="1000px" viewBox="0 0 1000 1000" enable-background="new 0 0 1000 1000" xml:space="preserve">
<path d="M542.7,230.7L622,109.9c10.6-16.2,6.1-37.9-10.1-48.5c-16.2-10.6-37.9-6.1-48.5,10.1L500.8,167l-0.8-1.3l-1,1.5l-62.8-95.7
	c-10.6-16.2-32.3-20.7-48.5-10.1c-16.2,10.6-20.7,32.3-10.1,48.5l79.5,121.1L65.1,828.3h178.3c9.7,0,19.4-1.6,28.5-4.9
	c143.6-52,198.7-213,218.3-298.2c2.4-10.4,17.1-10.4,19.5,0c19.5,85.1,74.7,246.1,218.3,298.2c9.1,3.3,18.8,4.9,28.5,4.9h178.3
	L542.7,230.7z"/>
<path d="M954.8,860.3H45.2c-14.5,0-26.2,11.2-26.2,25v20c0,13.8,11.7,25,26.2,25h909.6c14.5,0,26.2-11.2,26.2-25v-20
	C981,871.5,969.3,860.3,954.8,860.3z"/>
</svg>
