<?xml version="1.0" encoding="utf-8"?>
<!-- Generator: Adobe Illustrator 18.1.1, SVG Export Plug-In . SVG Version: 6.00 Build 0)  -->
<svg version="1.1" id="Capa_1" xmlns="http://www.w3.org/2000/svg" xmlns:xlink="http://www.w3.org/1999/xlink" x="0px" y="0px"
	 width="1000px" height="1000px" viewBox="0 0 1000 1000" enable-background="new 0 0 1000 1000" xml:space="preserve">
<g>
	<path d="M820.3,291.5l25.4-33.4c13.4-17.6,10-42.7-7.6-56.1l-65.4-49.8c-17.6-13.4-42.7-10-56.1,7.6l-25.4,33.3
		c41.6,20.6,79.3,47.7,112.4,80.8C809.5,279.7,815,285.5,820.3,291.5z"/>
	<path d="M501,148.5c17.7,0,35.2,1.1,52.5,3.2v-46h31.6c22.1,0,40-17.9,40-40v-20c0-22.1-17.9-40-40-40H416.9c-22.1,0-40,17.9-40,40
		v20c0,22.1,17.9,40,40,40h31.6v46C465.8,149.6,483.3,148.5,501,148.5z"/>
	<path d="M501,976.3c220.7,0,399.6-178.9,399.6-399.6c0-100.3-36.9-191.9-97.9-262c-35.6-41-79.5-74.6-129-98.4
		c-37.2-17.9-77.7-30.1-120.2-35.7c-17.2-2.3-34.7-3.4-52.5-3.4s-35.3,1.2-52.5,3.4c-195.9,25.7-347.1,193.3-347.1,396.1
		C101.4,797.4,280.3,976.3,501,976.3z M611.1,298.5c51.6,20.4,96.1,54.7,129,98.4c29.4,39,49.5,85.5,56.9,136.1
		c2.1,14.3,3.2,29,3.2,43.9H603H501h-1.9v-1.5V445.4V277.5c0.6,0,1.3,0,1.9,0c14.3,0,28.4,1,42.1,3
		C566.8,283.8,589.5,289.9,611.1,298.5z"/>
</g>
</svg>
