<?xml version="1.0" encoding="utf-8"?>
<!-- Generator: Adobe Illustrator 18.1.1, SVG Export Plug-In . SVG Version: 6.00 Build 0)  -->
<svg version="1.1" id="Capa_1" xmlns="http://www.w3.org/2000/svg" xmlns:xlink="http://www.w3.org/1999/xlink" x="0px" y="0px"
	 width="1000px" height="1000px" viewBox="0 0 1000 1000" enable-background="new 0 0 1000 1000" xml:space="preserve">
<g>
	<path d="M550.8,538.9h99c83-45.6,114.1-127.9,125-170.2c3.7-14.5-5.9-28.9-20.7-31c-128.7-18.5-193.5,17.4-239,89.6
		c3.2,7.6,6.3,15.3,9.3,23.1c6.9,18.3,11.4,40,13.6,60.6c62.3-35.4,116.1-80.1,135.4-92.9C659.3,433.5,620.4,481.1,550.8,538.9z"/>
	<path d="M32.7,252.2C43.8,311.9,88,471.4,250.2,538.9h194.3c-61.4-111.9-172.4-166.9-222-197.3c37.8,6.9,154.7,47,261.3,158.1
		c8.2,8.6,24.9,26.7,25.4,26.5c-12.1-175-174.3-316.9-345.8-316.9c-34.9,0-72.2,4.5-112,14.1C38.5,226.5,30.3,239.2,32.7,252.2z"/>
	<path d="M970.1,593.9c0-13.8-11.2-25-25-25H174.4c-13.8,0-25,11.2-25,25v3c0,201.2,163.1,364.2,364.2,364.2h92.2
		c201.2,0,364.2-163.1,364.2-364.2V593.9z"/>
</g>
</svg>
