<?xml version="1.0" encoding="utf-8"?>
<!-- Generator: Adobe Illustrator 18.1.1, SVG Export Plug-In . SVG Version: 6.00 Build 0)  -->
<svg version="1.1" id="Capa_1" xmlns="http://www.w3.org/2000/svg" xmlns:xlink="http://www.w3.org/1999/xlink" x="0px" y="0px"
	 width="1000px" height="1000px" viewBox="0 0 1000 1000" enable-background="new 0 0 1000 1000" xml:space="preserve">
<g>
	<path d="M455.7,312c0-115.8-93.9-209.7-209.7-209.7h0c-115.8,0-209.7,93.9-209.7,209.7v550c0,22.1,17.9,40,40,40h339.4
		c22.1,0,40-17.9,40-40V515h77.7V352.5h-77.7V312z M371.3,793.5c0,13.8-11.2,25-25,25H145.7c-13.8,0-25-11.2-25-25v-25
		c0-13.8,11.2-25,25-25h200.6c13.8,0,25,11.2,25,25V793.5z M348,393.3c-23.8,30.1-60.6,49.5-102,49.5
		c-71.7,0-129.9-58.1-129.9-129.9c0-71.7,58.1-129.9,129.9-129.9S375.9,241.2,375.9,313c0,13.8-2.2,27.1-6.1,39.5
		C365,367.5,357.5,381.3,348,393.3z"/>
	<path d="M915.7,280.4H603.4c-22.1,0-40,17.9-40,40v32.1V515v32.1c0,22.1,17.9,40,40,40h312.3c22.1,0,40-17.9,40-40V320.4
		C955.7,298.3,937.8,280.4,915.7,280.4z"/>
</g>
</svg>
