<?xml version="1.0" encoding="utf-8"?>
<!-- Generator: Adobe Illustrator 18.1.1, SVG Export Plug-In . SVG Version: 6.00 Build 0)  -->
<svg version="1.1" id="Capa_1" xmlns="http://www.w3.org/2000/svg" xmlns:xlink="http://www.w3.org/1999/xlink" x="0px" y="0px"
	 width="1000px" height="1000px" viewBox="0 0 1000 1000" enable-background="new 0 0 1000 1000" xml:space="preserve">
<g>
	<path d="M248.4,963.7h162.7v-169c0-46.3,37.6-83.9,83.9-83.9s83.9,37.6,83.9,83.9v169h162.7c19.3,0,35-15.7,35-35V710.4
		c0-10.7-4.9-20.8-13.3-27.5L621.2,570.5l0,0V368.8H368.8v201.7l0,0L226.7,682.9c-8.4,6.6-13.3,16.8-13.3,27.5v218.4
		C213.4,948.1,229.1,963.7,248.4,963.7z M451,476.2c0-24.3,19.7-44,44-44c24.3,0,44,19.7,44,44v94.4h-44h-44V476.2z"/>
	<path d="M371.9,335.5h246.2c15.3,0,24.9-16.4,17.5-29.7L518.4,95c7.6-6.6,12.5-16.3,12.5-27.1c0-19.8-16-35.8-35.8-35.8
		c-19.8,0-35.8,16-35.8,35.8c0,10.9,4.8,20.6,12.5,27.1L354.4,305.8C347,319.1,356.7,335.5,371.9,335.5z"/>
</g>
</svg>
