<?xml version="1.0" encoding="utf-8"?>
<!-- Generator: Adobe Illustrator 18.1.1, SVG Export Plug-In . SVG Version: 6.00 Build 0)  -->
<svg version="1.1" id="Capa_1" xmlns="http://www.w3.org/2000/svg" xmlns:xlink="http://www.w3.org/1999/xlink" x="0px" y="0px"
	 width="1000px" height="1000px" viewBox="0 0 1000 1000" enable-background="new 0 0 1000 1000" xml:space="preserve">
<g>
	<path d="M604.7,58.7c11.8,18.2,19.3,39.4,21,62.2c14,9,27.7,20.1,40.3,33.7c16.4,17.7,29.7,38.2,39.6,61.2
		c3.5,6.6,6.8,13.3,9.7,20.2c12.7,29.9,19.1,61.7,19.1,94.4c0,24.9-3.7,50-11.4,73.7c-2.2,6.9-4.4,14.2-7.7,20.7
		c-12.2,28.9-29.7,54.8-52,77.1c-22.3,22.3-48.2,39.7-77.1,52c-5.1,2.2-10.3,4.2-15.6,6c25.8,2.6,51,8.5,75.4,17.5
		c33.3,12.4,64,30.2,91.2,53.2c10.2,8.6,19.8,17.8,28.7,27.5c28.4-33.3,61.3-59.8,96.9-67.1c10.6-2.2,17.6-12.4,15.7-23.1
		C863,481.5,793,155.7,604.7,58.7z"/>
	<path d="M121,590.9c37.1,6.9,70.2,32.7,98.5,65.3c8.4-9,17.4-17.6,26.9-25.6c27.2-22.9,57.9-40.8,91.2-53.2
		c24.4-9,49.6-14.9,75.4-17.5c-5.2-1.8-10.5-3.8-15.6-6c-28.9-12.2-54.8-29.7-77.1-52c-22.3-22.3-39.7-48.2-52-77.1
		c-12.6-29.8-19.1-62-19.1-94.4c0-32.7,6.4-64.5,19.1-94.4c2.9-6.9,6.2-13.6,9.7-20.2c9.9-23,23.2-43.5,39.6-61.2
		c12.6-13.6,26.3-24.7,40.3-33.7c1.8-22.8,9.3-44,21-62.2c-188.2,96.9-258.2,422.3-273.8,509C103.2,578.5,110.3,588.9,121,590.9z"/>
	<path d="M491.8,80.9c0.1,0,0.3,0,0.5,0c7.2,0,52.6,0.9,101.7,22.9c-8.2-30.4-29.7-55.5-57.9-68.5c-13.5-6.3-28.5-9.8-44.4-9.8
		c-15.8,0-30.9,3.5-44.4,9.8c-28.2,13-49.7,38.1-57.9,68.5c49.2-22,94.5-22.9,101.7-22.9C491.5,80.9,491.7,80.9,491.8,80.9z"/>
	<path d="M288.7,674.8c-8.7,22.4-14.2,40.9-17.4,56.1c-8.3,39.4-1.3,56.6,3.1,63.2c4.3,6.3,10.5,9,15.2,10.1
		c4.9-2.8,9.9-5.4,14.9-7.7c21.8-9.9,45.4-15,69.7-15c21.9,0,43.5,4.3,63.7,12.5c6.6,2.7,13.1,5.8,19.3,9.4
		c12.6,7.1,24.2,15.9,34.6,26c10.4-10.1,22-18.8,34.6-26c6.2-3.5,12.7-6.7,19.3-9.4c20.1-8.2,41.8-12.5,63.7-12.5
		c24.7,0,48.7,5.3,70.7,15.5c4.7,2.2,9.4,4.6,13.9,7.2c4.7-1.2,10.9-3.9,15.1-10.1c4.3-6.3,11-22.8,3.8-59.8
		c-3.1-15.8-8.7-35.3-18-59.4l-19.8-50.9c-40.4-22.8-86.9-35.6-136.1-35.6h-94.5c-49.1,0-95.6,12.9-136.1,35.6L288.7,674.8z"/>
	<path d="M260.7,663.9c0,0-8.4,5.9-20.3,18.8c-22.1,24-56.3,72.3-71.1,152.3c0,0-4.8,22.4-9.6,49.6c-0.5,3.1-1.1,6.2-1.6,9.3
		c-2.6,15.6-5.1,32.1-6.5,46.4c0,0.4-0.1,0.8-0.1,1.2c-1.1,17.2,12.5,31.9,29.9,31.9h56.2h508.6h56.2c17.4,0,31-14.7,29.9-31.9
		c0-0.4,0-0.8-0.1-1.2c-1.4-14.2-3.9-30.7-6.5-46.3c-0.5-3.2-1.1-6.3-1.6-9.4c-4.8-27.2-9.6-49.6-9.6-49.6
		c-14.4-77.9-47.2-125.7-69.3-150.3c-12.9-14.3-22.1-20.8-22.1-20.8c4.9,12.6,8.9,24.3,12.2,35.1c39.6,132.4-38.7,136-47.5,136
		c-0.5,0-0.8,0-0.8,0c-6-4.1-12.4-7.6-19-10.7c-17.7-8.3-37.5-12.9-58.4-12.9c-6.4,0-12.7,0.4-18.9,1.3
		c-41.6,5.7-77.4,29.8-98.7,63.9c-21.3-34.1-57.1-58.2-98.7-63.9c-6.2-0.8-12.5-1.3-18.9-1.3c-20.7,0-40.3,4.6-58,12.7
		c-6.8,3.1-13.3,6.8-19.5,10.9c0,0-0.3,0-0.8,0c-8.9,0-88.3-3.7-46.5-139.2C252.6,685.8,256.3,675.2,260.7,663.9z"/>
	<path d="M491.8,545c96.6,0,178.2-63.8,205.1-151.6l-9-3.6c-1.9-0.8-48.3-19.5-98.5-52.9c-30-20-55.2-41.2-75-63
		c-2.7-3-5.2-5.9-7.7-8.9c-3.7-4.5-7.2-8.9-10.5-13.5c-1.5-2.1-3-4.2-4.4-6.3c-1.4,2.1-2.9,4.2-4.4,6.3c-3.3,4.5-6.8,9-10.5,13.5
		c-2.5,3-5.1,6-7.7,8.9c-19.8,21.8-45,43-75,63c-50.2,33.5-96.5,52.2-98.5,52.9l-9,3.6C313.6,481.1,395.2,545,491.8,545z"/>
	<path d="M372.5,144.9c-4.4,2.9-8.7,6-13,9.3c-22.1,17.3-42.3,41.1-56.2,74c-14.5,34.4-22.2,78.6-17.9,135.6
		c0,0,98.7-39.5,160.7-106.1c3.5-3.8,6.9-7.6,10.1-11.5c3.3-4,6.4-8,9.3-12.1c12.3-17.2,21.7-35.9,26.4-55.9
		c4.6,20,14,38.7,26.4,55.9c3,4.1,6.1,8.2,9.3,12.1c3.2,3.9,6.6,7.8,10.1,11.5c62,66.6,160.7,106.1,160.7,106.1
		c4.3-57-3.4-101.2-17.9-135.6c-13.9-32.9-34.1-56.7-56.2-74c-4.3-3.3-8.6-6.4-13-9.3c-4.5-2.9-9-5.6-13.6-8.1
		c-49.5-27-99.7-27.8-105.3-27.8c-0.3,0-0.5,0-0.5,0s-0.2,0-0.5,0c-5.6,0-55.7,0.8-105.3,27.8C381.5,139.2,377,141.9,372.5,144.9z"
		/>
</g>
</svg>
