<?xml version="1.0" encoding="utf-8"?>
<!-- Generator: Adobe Illustrator 18.1.1, SVG Export Plug-In . SVG Version: 6.00 Build 0)  -->
<svg version="1.1" id="Capa_1" xmlns="http://www.w3.org/2000/svg" xmlns:xlink="http://www.w3.org/1999/xlink" x="0px" y="0px"
	 width="1000px" height="1000px" viewBox="0 0 1000 1000" enable-background="new 0 0 1000 1000" xml:space="preserve">
<g>
	<path d="M54.5,839.9h267.6h32.7h292.4h32.7h267.6c19.8,0,35.8-16,35.8-35.8V544.7c0-19.8-16-35.8-35.8-35.8H679.9V289.6
		c0-19.8-16-35.8-35.8-35.8H357.9c-19.8,0-35.8,16-35.8,35.8v157.7H54.5c-19.8,0-35.8,16-35.8,35.8V804
		C18.7,823.8,34.7,839.9,54.5,839.9z M761,718.4l17.7-2.2c4.9-0.6,9.4,2.5,10.9,7.2c1.7,5.6,4.4,10.2,8,13.7
		c5.3,5.1,11.7,7.6,19.2,7.6c8,0,14.8-3.1,20.3-9.2c5.5-6.1,8.3-14.3,8.3-24.7c0-9.8-2.6-17.6-7.9-23.3c-5.3-5.7-11.7-8.6-19.3-8.6
		c-1.5,0-3.1,0.1-4.8,0.3c-6.6,0.7-12.1-5-11.2-11.6l1.2-9.1c0.6-4.7,4.4-8.3,9.1-8.8c6.8-0.8,12.2-3,16.2-6.5
		c5.6-4.9,8.3-11.3,8.3-19.4c0-6.8-2-12.3-6.1-16.4c-4.1-4.1-9.5-6.1-16.2-6.1c-6.7,0-12.4,2.3-17.1,6.9c-3,3-5.3,6.8-6.8,11.5
		c-1.6,4.9-6.4,7.9-11.5,7.1l-15.3-2.6c-6.1-1-9.9-7.3-8-13.2c2.2-7.2,5-13.2,8.4-18.1c5-7.4,12.1-13.1,21.1-17.3
		c9-4.2,19.1-6.3,30.3-6.3c19.2,0,34.5,6.1,46.1,18.3c9.5,10,14.3,21.3,14.3,33.9c0,17.9-9.8,32.1-29.3,42.7
		c11.7,2.5,21,8.1,28,16.8c7,8.7,10.5,19.2,10.5,31.5c0,17.9-6.5,33.1-19.6,45.7c-13,12.6-29.3,18.9-48.7,18.9
		c-18.4,0-33.7-5.3-45.8-15.9c-9.3-8.1-15.6-18.1-18.9-30C750.7,725.2,754.8,719.1,761,718.4z M449,379.8c0-4.1,2.4-7.8,6.1-9.4
		c8.4-3.6,17.5-9.2,27-16.6c10-7.8,17.3-16.6,22.1-26.6c1.7-3.6,5.3-6,9.3-6h14.6c5.7,0,10.2,4.6,10.2,10.2v183.8
		c0,5.7-4.6,10.2-10.2,10.2h-18.5c-5.7,0-10.2-4.6-10.2-10.2V378.6c-10.6,9.9-22.6,17.9-35.9,23.9c-6.8,3.1-14.4-1.9-14.4-9.3V379.8
		z M116.5,699.4c2.3-9.1,6-17.9,11.1-26.3c7.4-12.3,22-28.5,43.9-48.8c17.6-16.4,28.4-27.5,32.3-33.3c5.4-8,8-16,8-23.9
		c0-8.7-2.3-15.4-7-20.1c-4.7-4.7-11.1-7-19.4-7c-8.1,0-14.6,2.5-19.4,7.4c-3.4,3.5-5.8,8.6-7.2,15.4c-1,5.1-5.8,8.6-11,8.1
		l-18.2-1.8c-6.1-0.6-10.3-6.4-9-12.4c3.4-15.7,10-27.3,20-34.9c12.2-9.3,27.5-14,45.8-14c20.1,0,35.9,5.4,47.3,16.2
		c11.5,10.8,17.2,24.3,17.2,40.4c0,9.2-1.6,17.9-4.9,26.2c-3.3,8.3-8.5,17-15.6,26c-4.7,6-13.2,14.7-25.5,26
		c-12.3,11.3-20.1,18.8-23.4,22.5c-3.3,3.7-5.9,7.3-8,10.8h67.2c5.7,0,10.2,4.6,10.2,10.2v15.7c0,5.7-4.6,10.2-10.2,10.2H126.5
		C119.9,712,114.9,705.8,116.5,699.4z"/>
</g>
</svg>
